<?xml version="1.0" encoding="UTF-8" standalone="no"?>
<!-- Created with Inkscape (http://www.inkscape.org/) -->

<svg
   width="39.906609mm"
   height="10.671183mm"
   viewBox="0 0 39.906609 10.671183"
   version="1.1"
   id="svg274"
   inkscape:version="1.2.1 (9c6d41e, 2022-07-14)"
   sodipodi:docname="dark-manta.svg"
   xmlns:inkscape="http://www.inkscape.org/namespaces/inkscape"
   xmlns:sodipodi="http://sodipodi.sourceforge.net/DTD/sodipodi-0.dtd"
   xmlns="http://www.w3.org/2000/svg"
   xmlns:svg="http://www.w3.org/2000/svg">
  <sodipodi:namedview
     id="namedview276"
     pagecolor="#ffffff"
     bordercolor="#999999"
     borderopacity="1"
     inkscape:showpageshadow="0"
     inkscape:pageopacity="0"
     inkscape:pagecheckerboard="0"
     inkscape:deskcolor="#d1d1d1"
     inkscape:document-units="mm"
     showgrid="false"
     inkscape:zoom="1.8761364"
     inkscape:cx="94.342823"
     inkscape:cy="43.173834"
     inkscape:window-width="2560"
     inkscape:window-height="1373"
     inkscape:window-x="0"
     inkscape:window-y="0"
     inkscape:window-maximized="1"
     inkscape:current-layer="layer1" />
  <defs
     id="defs271" />
  <g
     inkscape:label="Calque 1"
     inkscape:groupmode="layer"
     id="layer1"
     transform="translate(-85.110803,-143.30543)">
    <g
       aria-label="manta"
       transform="matrix(0.26458333,0,0,0.26458333,42.302048,131.39071)"
       id="text2149"
       style="font-size:56px;line-height:1.15;font-family:Tailwind;-inkscape-font-specification:Tailwind;letter-spacing:0px;word-spacing:0px;white-space:pre;shape-inside:url(#rect2151);shape-padding:6.02342;display:inline;fill:#ffffff;fill-opacity:1"
       inkscape:label="manta-text">
      <path
         d="m 188.78516,57.090624 q 4.45703,0 7.60156,3.144532 3.14453,3.144531 3.14453,7.601562 v 14.957031 q 0,1.039063 -0.76563,1.804688 -0.76562,0.765625 -1.85937,0.765625 -1.03906,0 -1.80469,-0.765625 -0.76562,-0.765625 -0.76562,-1.804688 V 67.836718 q 0,-2.324219 -1.61328,-3.9375 -1.61329,-1.613281 -3.9375,-1.613281 -2.32422,0 -3.9375,1.613281 -1.61329,1.613281 -1.61329,3.9375 v 14.957031 q 0,1.039063 -0.76562,1.804688 -0.76563,0.765625 -1.80469,0.765625 -1.0664,0 -1.83203,-0.738281 -0.73828,-0.765625 -0.73828,-1.832032 V 67.836718 q 0,-2.296875 -1.64063,-3.910156 -1.61328,-1.640625 -3.91015,-1.640625 -2.32422,0 -3.9375,1.613281 -1.61328,1.613281 -1.61328,3.9375 v 14.957031 q 0,1.039063 -0.76563,1.804688 -0.76562,0.765625 -1.85937,0.765625 -1.03907,0 -1.80469,-0.765625 -0.76563,-0.765625 -0.76563,-1.804688 V 67.836718 q 0,-4.457031 3.14454,-7.601562 3.14453,-3.144532 7.60156,-3.144532 2.40625,0 4.51172,1.011719 2.10547,0.984375 3.60937,2.734375 1.50391,-1.75 3.60938,-2.734375 2.10547,-1.011719 4.51172,-1.011719 z"
         id="path2155"
         inkscape:label="m"
         style="fill:#000000;fill-opacity:1" />
      <path
         d="m 223.59375,64.938281 q -2.625,-2.652344 -6.31641,-2.652344 -3.6914,0 -6.28906,2.652344 -2.59766,2.625 -2.59766,6.316406 0,3.691406 2.59766,6.316406 2.59766,2.597656 6.28906,2.597656 3.69141,0 6.31641,-2.597656 2.65234,-2.625 2.65234,-6.316406 0,-3.691406 -2.65234,-6.316406 z m -13.39844,-5.933594 q 3.25391,-1.914063 7.08203,-1.914063 3.82813,0 7.08203,1.886719 3.25391,1.859375 5.16797,5.140625 1.91407,3.253906 1.91407,7.136719 v 11.539062 q 0,1.039063 -0.76563,1.804688 -0.76562,0.765625 -1.85937,0.765625 -1.03907,0 -1.80469,-0.765625 -0.76563,-0.765625 -0.76563,-1.804688 v -0.628906 q -3.80078,3.199219 -8.96875,3.199219 -3.82812,0 -7.08203,-1.886719 -3.2539,-1.886719 -5.14062,-5.140625 -1.88672,-3.253906 -1.88672,-7.082031 0,-3.828125 1.88672,-7.082031 1.88672,-3.28125 5.14062,-5.167969 z"
         id="path2157"
         inkscape:label="a"
         style="fill:#000000;fill-opacity:1" />
      <path
         d="m 249.65234,57.090624 q 3.63672,0 6.69922,1.804688 3.08985,1.804687 4.86719,4.894531 1.80469,3.089844 1.80469,6.726563 v 12.277343 q 0,1.066407 -0.76563,1.832032 -0.73828,0.738281 -1.80469,0.738281 -1.03906,0 -1.80468,-0.765625 -0.76563,-0.765625 -0.76563,-1.804688 V 70.516406 q 0,-3.417969 -2.43359,-5.824219 -2.40625,-2.40625 -5.79688,-2.40625 -3.39062,0 -5.82422,2.40625 -2.40625,2.40625 -2.40625,5.824219 v 12.277343 q 0,1.039063 -0.79296,1.804688 -0.76563,0.765625 -1.85938,0.765625 -1.03906,0 -1.80469,-0.765625 -0.76562,-0.765625 -0.76562,-1.804688 V 59.715624 q 0,-1.09375 0.76562,-1.859375 0.76563,-0.765625 1.80469,-0.765625 1.09375,0 1.85938,0.765625 0.79296,0.765625 0.79296,1.859375 v 0.21875 q 3.52735,-2.84375 8.23047,-2.84375 z"
         id="path2159"
         inkscape:label="n"
         style="fill:#000000;fill-opacity:1" />
      <path
         d="m 273.00391,45.032031 q 1.03906,0 1.80468,0.792968 0.76563,0.765625 0.76563,1.804688 v 9.460937 h 6.48047 q 1.09375,0 1.83203,0.765625 0.76562,0.765625 0.76562,1.859375 0,1.039063 -0.76562,1.804688 -0.76563,0.765625 -1.83203,0.765625 h -6.48047 v 20.507812 q 0,1.039063 -0.76563,1.804688 -0.76562,0.765625 -1.80468,0.765625 -1.09375,0 -1.85938,-0.765625 -0.73828,-0.765625 -0.73828,-1.804688 V 62.285937 h -3.69141 q -1.03906,0 -1.80468,-0.765625 -0.76563,-0.765625 -0.76563,-1.804688 0,-1.09375 0.76563,-1.859375 0.76562,-0.765625 1.80468,-0.765625 h 3.69141 v -9.460937 q 0,-1.066406 0.76562,-1.832031 0.76563,-0.765625 1.83204,-0.765625 z"
         id="path2161"
         inkscape:label="t"
         style="fill:#000000;fill-opacity:1" />
      <path
         d="m 304.77734,64.938281 q -2.625,-2.652344 -6.3164,-2.652344 -3.69141,0 -6.28907,2.652344 -2.59765,2.625 -2.59765,6.316406 0,3.691406 2.59765,6.316406 2.59766,2.597656 6.28907,2.597656 3.6914,0 6.3164,-2.597656 2.65235,-2.625 2.65235,-6.316406 0,-3.691406 -2.65235,-6.316406 z m -13.39843,-5.933594 q 3.2539,-1.914063 7.08203,-1.914063 3.82812,0 7.08203,1.886719 3.2539,1.859375 5.16797,5.140625 1.91406,3.253906 1.91406,7.136719 v 11.539062 q 0,1.039063 -0.76563,1.804688 -0.76562,0.765625 -1.85937,0.765625 -1.03906,0 -1.80469,-0.765625 -0.76562,-0.765625 -0.76562,-1.804688 v -0.628906 q -3.80078,3.199219 -8.96875,3.199219 -3.82813,0 -7.08203,-1.886719 -3.25391,-1.886719 -5.14063,-5.140625 -1.88672,-3.253906 -1.88672,-7.082031 0,-3.828125 1.88672,-7.082031 1.88672,-3.28125 5.14063,-5.167969 z"
         id="path2163"
         inkscape:label="a"
         style="fill:#000000;fill-opacity:1" />
    </g>
  </g>
</svg>
