<?xml version="1.0" encoding="UTF-8" standalone="no"?>
<!-- Uploaded to: SVG Repo, www.svgrepo.com, Generator: SVG Repo Mixer Tools -->

<svg
   version="1.1"
   id="Layer_1"
   viewBox="0 0 150 150"
   xml:space="preserve"
   sodipodi:docname="chip.svg"
   inkscape:version="1.3.2 (091e20e, 2023-11-25)"
   width="150"
   height="150"
   xmlns:inkscape="http://www.inkscape.org/namespaces/inkscape"
   xmlns:sodipodi="http://sodipodi.sourceforge.net/DTD/sodipodi-0.dtd"
   xmlns="http://www.w3.org/2000/svg"
   xmlns:svg="http://www.w3.org/2000/svg"><defs
   id="defs6" /><sodipodi:namedview
   id="namedview6"
   pagecolor="#ffffff"
   bordercolor="#999999"
   borderopacity="1"
   inkscape:showpageshadow="0"
   inkscape:pageopacity="0"
   inkscape:pagecheckerboard="0"
   inkscape:deskcolor="#d1d1d1"
   inkscape:zoom="1.1416016"
   inkscape:cx="246.5834"
   inkscape:cy="250.96322"
   inkscape:window-width="2560"
   inkscape:window-height="1373"
   inkscape:window-x="0"
   inkscape:window-y="0"
   inkscape:window-maximized="1"
   inkscape:current-layer="Layer_1" />
<polygon
   style="fill:#ffd600;fill-opacity:1"
   points="434.863,77.137 385.907,77.137 385.907,0 352.515,0 352.515,77.137 310.432,77.137 310.432,0 277.041,0 277.041,77.137 234.959,77.137 234.959,0 201.568,0 201.568,77.137 159.485,77.137 159.485,0 126.093,0 126.093,77.137 77.137,77.137 77.137,126.093 0,126.093 0,159.485 77.137,159.485 77.137,201.568 0,201.568 0,234.959 77.137,234.959 77.137,277.041 0,277.041 0,310.432 77.137,310.432 77.137,352.515 0,352.515 0,385.907 77.137,385.907 77.137,434.863 126.093,434.863 126.093,512 159.485,512 159.485,434.863 201.568,434.863 201.568,512 234.959,512 234.959,434.863 277.041,434.863 277.041,512 310.432,512 310.432,434.863 352.515,434.863 352.515,512 385.907,512 385.907,434.863 434.863,434.863 434.863,385.907 512,385.907 512,352.515 434.863,352.515 434.863,310.432 512,310.432 512,277.041 434.863,277.041 434.863,234.959 512,234.959 512,201.568 434.863,201.568 434.863,159.485 512,159.485 512,126.093 434.863,126.093 "
   id="polygon1"
   transform="scale(0.29296875)" />
<polygon
   style="fill:#cead00;fill-opacity:1"
   points="434.863,77.137 385.907,77.137 385.907,0 352.515,0 352.515,77.137 310.432,77.137 310.432,0 277.041,0 277.041,77.137 256,77.137 256,434.863 277.041,434.863 277.041,512 310.432,512 310.432,434.863 352.515,434.863 352.515,512 385.907,512 385.907,434.863 434.863,434.863 434.863,385.907 512,385.907 512,352.515 434.863,352.515 434.863,310.432 512,310.432 512,277.041 434.863,277.041 434.863,234.959 512,234.959 512,201.568 434.863,201.568 434.863,159.485 512,159.485 512,126.093 434.863,126.093 "
   id="polygon2"
   transform="scale(0.29296875)" /><rect
   x="32.380371"
   y="32.380371"
   style="fill:#5a01ff;fill-opacity:1;stroke-width:0.292969"
   width="85.235741"
   height="85.235741"
   id="rect2" />
<rect
   x="75"
   y="32.380371"
   style="fill:#3d01b1;fill-opacity:1;stroke-width:0.292969"
   width="42.619629"
   height="85.235741"
   id="rect3" />



<g
   id="g6"
   inkscape:label="brain"
   transform="scale(0.29296875)"><path
     style="fill:#eebf70"
     d="m 342.486,256.072 c 6.115,-6.477 9.87,-15.204 9.87,-24.814 0,-18.792 -14.335,-34.225 -32.664,-35.987 0.292,-1.011 0.545,-3.572 0.545,-9.452 0,-17.739 -14.381,-32.119 -32.119,-32.119 -17.738,0 -32.119,14.381 -32.119,32.119 0,-17.739 -14.381,-32.119 -32.119,-32.119 -17.738,0 -32.119,14.381 -32.119,32.119 0,5.88 0.255,8.441 0.545,9.452 -18.33,1.762 -32.664,17.195 -32.664,35.987 0,9.61 3.755,18.337 9.87,24.814 l -0.08,-0.073 c -6.072,6.469 -9.79,15.172 -9.79,24.744 0,19.079 14.778,34.697 33.509,36.057 l -0.002,0.01 c -0.903,2.965 -1.389,6.112 -1.389,9.372 0,17.739 14.381,32.119 32.119,32.119 17.738,0 32.119,-14.381 32.119,-32.119 0,17.739 14.381,32.119 32.119,32.119 17.738,0 32.119,-14.381 32.119,-32.119 0,-3.26 -0.486,-6.407 -1.389,-9.372 l -0.002,-0.01 c 18.731,-1.361 33.509,-16.978 33.509,-36.057 0,-9.572 -3.719,-18.275 -9.79,-24.744 z"
     id="path3" /><path
     style="fill:#e79c25"
     d="m 342.486,256.072 c 6.115,-6.477 9.87,-15.204 9.87,-24.814 0,-19.081 -14.778,-34.711 -33.513,-36.069 0,0 1.394,4.399 1.394,-9.371 0,-17.739 -14.381,-32.119 -32.119,-32.119 -17.738,0 -32.119,14.381 -32.119,32.119 v 140.364 c 0,17.739 14.381,32.119 32.119,32.119 17.739,0 32.119,-14.381 32.119,-32.119 0,-3.26 -0.486,-6.407 -1.389,-9.372 l -0.002,-0.01 c 18.731,-1.361 33.509,-16.978 33.509,-36.057 0,-9.572 -3.719,-18.275 -9.79,-24.744 z"
     id="path4" /><path
     style="fill:#f3d49d"
     d="m 369.052,231.258 c 0,-21.634 -13.254,-40.546 -32.236,-48.652 -1.662,-25.423 -22.862,-45.601 -48.698,-45.601 -12.291,0 -23.527,4.577 -32.118,12.102 -8.592,-7.525 -19.827,-12.102 -32.118,-12.102 -25.836,0 -47.036,20.178 -48.698,45.601 -18.982,8.106 -32.236,27.018 -32.236,48.652 0,8.929 2.234,17.342 6.158,24.725 -4.013,7.555 -6.158,16.019 -6.158,24.76 0,21.835 13.308,40.617 32.237,48.669 1.67,25.415 22.866,45.585 48.697,45.585 12.291,0 23.528,-4.576 32.118,-12.102 8.592,7.525 19.827,12.102 32.118,12.102 25.83,0 47.026,-20.169 48.697,-45.585 18.93,-8.052 32.237,-26.834 32.237,-48.669 0,-8.741 -2.146,-17.204 -6.158,-24.76 3.924,-7.384 6.158,-15.797 6.158,-24.725 z m -145.17,110.347 c -6.527,0 -12.107,-4.082 -14.355,-9.822 9.716,-2.618 18.6,-7.979 25.469,-15.564 l -24.75,-22.416 c -3.741,4.132 -8.869,6.407 -14.436,6.407 -10.736,0 -19.469,-8.734 -19.469,-19.469 0,-0.117 0.014,-0.233 0.017,-0.349 6.026,2.394 12.585,3.725 19.453,3.725 v -33.391 c -10.736,0 -19.469,-8.734 -19.469,-19.469 0,-6.647 3.405,-12.582 8.583,-16.105 5.473,7.279 12.966,13.059 21.817,16.38 l 11.728,-31.264 c -5.987,-2.246 -10.008,-8.053 -10.008,-14.45 0,-8.505 6.92,-15.423 15.423,-15.423 8.504,0 15.421,6.92 15.421,15.423 v 140.364 c -0.002,8.505 -6.92,15.423 -15.424,15.423 z m 64.236,0 c -8.505,0 -15.422,-6.919 -15.422,-15.422 V 185.818 c 0,-8.505 6.919,-15.423 15.422,-15.423 8.503,0 15.423,6.919 15.423,15.423 0,6.398 -4.021,12.205 -10.008,14.45 l 11.728,31.264 c 8.851,-3.32 16.344,-9.1 21.817,-16.38 5.178,3.523 8.583,9.458 8.583,16.105 0,10.735 -8.734,19.469 -19.469,19.469 v 33.391 c 6.869,0 13.428,-1.331 19.454,-3.725 0.002,0.117 0.017,0.232 0.017,0.349 0,10.735 -8.734,19.469 -19.469,19.469 -5.567,0 -10.694,-2.275 -14.436,-6.407 l -24.75,22.416 c 6.869,7.583 15.753,12.946 25.469,15.564 -2.251,5.74 -7.832,9.822 -14.359,9.822 z"
     id="path5" /><path
     style="fill:#eebf70"
     d="m 369.052,231.258 c 0,-21.634 -13.254,-40.546 -32.236,-48.652 -1.662,-25.423 -22.862,-45.601 -48.698,-45.601 -12.291,0 -23.527,4.577 -32.118,12.102 0,31.269 0,186.687 0,213.789 8.592,7.525 19.827,12.102 32.118,12.102 25.83,0 47.026,-20.169 48.697,-45.585 18.93,-8.052 32.237,-26.834 32.237,-48.669 0,-8.741 -2.146,-17.204 -6.158,-24.76 3.924,-7.385 6.158,-15.798 6.158,-24.726 z m -80.934,110.347 c -8.505,0 -15.422,-6.919 -15.422,-15.422 V 185.818 c 0,-8.505 6.919,-15.423 15.422,-15.423 8.503,0 15.423,6.919 15.423,15.423 0,6.398 -4.021,12.205 -10.008,14.45 l 11.728,31.264 c 8.851,-3.32 16.344,-9.1 21.817,-16.38 5.178,3.523 8.583,9.458 8.583,16.105 0,10.735 -8.734,19.469 -19.469,19.469 v 33.391 c 6.869,0 13.428,-1.331 19.454,-3.725 0.002,0.117 0.017,0.232 0.017,0.349 0,10.735 -8.734,19.469 -19.469,19.469 -5.567,0 -10.694,-2.275 -14.436,-6.407 l -24.75,22.416 c 6.869,7.583 15.753,12.946 25.469,15.564 -2.251,5.74 -7.832,9.822 -14.359,9.822 z"
     id="path6" /></g>
</svg>
