<?xml version="1.0" encoding="UTF-8" standalone="no"?>
<!-- Created with Inkscape (http://www.inkscape.org/) -->

<svg
   width="41.970554mm"
   height="32.118374mm"
   viewBox="0 0 41.970555 32.118374"
   version="1.1"
   id="svg5"
   inkscape:version="1.3.2 (091e20e, 2023-11-25)"
   sodipodi:docname="logo-connected-reverse.svg"
   inkscape:export-filename="light-logo.png"
   inkscape:export-xdpi="1000"
   inkscape:export-ydpi="1000"
   xmlns:inkscape="http://www.inkscape.org/namespaces/inkscape"
   xmlns:sodipodi="http://sodipodi.sourceforge.net/DTD/sodipodi-0.dtd"
   xmlns:xlink="http://www.w3.org/1999/xlink"
   xmlns="http://www.w3.org/2000/svg"
   xmlns:svg="http://www.w3.org/2000/svg">
  <sodipodi:namedview
     id="namedview7"
     pagecolor="#545454"
     bordercolor="#999999"
     borderopacity="1"
     inkscape:showpageshadow="0"
     inkscape:pageopacity="0"
     inkscape:pagecheckerboard="0"
     inkscape:deskcolor="#d1d1d1"
     inkscape:document-units="mm"
     showgrid="false"
     inkscape:zoom="5.306515"
     inkscape:cx="79.807557"
     inkscape:cy="55.686265"
     inkscape:window-width="2560"
     inkscape:window-height="1373"
     inkscape:window-x="0"
     inkscape:window-y="0"
     inkscape:window-maximized="1"
     inkscape:current-layer="layer2" />
  <defs
     id="defs2">
    <linearGradient
       id="swatch31"
       inkscape:swatch="solid">
      <stop
         style="stop-color:#ffffff;stop-opacity:1;"
         offset="0"
         id="stop31" />
    </linearGradient>
    <linearGradient
       id="swatch30"
       inkscape:swatch="solid">
      <stop
         style="stop-color:#adddcf;stop-opacity:1;"
         offset="0"
         id="stop30" />
    </linearGradient>
    <linearGradient
       id="swatch29"
       inkscape:swatch="solid">
      <stop
         style="stop-color:#ffd600;stop-opacity:1;"
         offset="0"
         id="stop29" />
    </linearGradient>
    <linearGradient
       id="swatch28"
       inkscape:swatch="solid">
      <stop
         style="stop-color:#5801ff;stop-opacity:1;"
         offset="0"
         id="stop28" />
    </linearGradient>
    <linearGradient
       inkscape:collect="always"
       xlink:href="#linearGradient27301"
       id="linearGradient27303"
       x1="53.878876"
       y1="101.6237"
       x2="96.987747"
       y2="25.391558"
       gradientUnits="userSpaceOnUse"
       gradientTransform="matrix(0.26458333,0,0,0.26458333,57.839466,205.29681)" />
    <linearGradient
       inkscape:collect="always"
       id="linearGradient27301">
      <stop
         style="stop-color:#ffd600;stop-opacity:1;"
         offset="0"
         id="stop27297" />
      <stop
         style="stop-color:#adddcf;stop-opacity:0.6327427;"
         offset="1"
         id="stop27299" />
    </linearGradient>
  </defs>
  <g
     inkscape:groupmode="layer"
     id="layer2"
     inkscape:label="Calque 2"
     style="display:inline"
     transform="translate(3.5919303,2.3403871)">
    <g
       id="g31"
       style="display:inline"
       inkscape:label="lines">
      <path
         style="fill:none;stroke:#ffffff;stroke-width:0.355;stroke-linecap:butt;stroke-linejoin:miter;stroke-dasharray:0.355, 0.355;stroke-dashoffset:0;stroke-opacity:1"
         d="m 2.8851163,3.2717151 -3.4637644,-4.9230796 -2.2249772,3.1749278 1.4444429,7.3125863 -0.5381232,6.4487894 1.475197,10.733026 11.4894796,3.19415 L 7.9818637,21.34981 18.945823,26.215529 31.06598,28.361149 37.812191,24.467734 34.775718,14.213367 36.460028,-0.1326634 22.510291,-1.1920358 31.387636,4.2081575 27.155453,8.0759469 9.4628885,3.3778725 Z"
         id="path11" />
      <path
         style="fill:none;stroke:#fcfcfc;stroke-width:0.35515;stroke-linecap:butt;stroke-linejoin:miter;stroke-dasharray:0.35515, 0.35515;stroke-dashoffset:0;stroke-opacity:1"
         d="M 2.9570905,3.1327432 2.8155128,14.133648 7.7715064,21.512781 14.33635,17.514342 26.220698,20.339918 34.720803,13.994564 21.74961,10.560301 27.109825,8.1146636 10.716127,9.5538806 2.8079541,14.087613"
         id="path12"
         sodipodi:nodetypes="cccccccccc" />
      <path
         style="fill:none;stroke:#ffffff;stroke-width:0.354591px;stroke-linecap:butt;stroke-linejoin:miter;stroke-dasharray:0.354591, 0.354591;stroke-dashoffset:0;stroke-opacity:1"
         d="m -1.9226783,15.296064 4.748475,-1.191606"
         id="path13" />
      <path
         style="fill:none;stroke:#ffffff;stroke-width:0.35515;stroke-linecap:butt;stroke-linejoin:miter;stroke-dasharray:0.35515, 0.35515;stroke-dashoffset:0;stroke-opacity:1"
         d="M -0.51066222,-1.6676932 22.593181,-1.0998252"
         id="path14" />
      <path
         style="fill:none;stroke:#ffffff;stroke-width:0.354591px;stroke-linecap:butt;stroke-linejoin:miter;stroke-dasharray:0.354591, 0.354591;stroke-dashoffset:0;stroke-opacity:1"
         d="m 36.564345,-0.0607903 -5.167112,4.321699"
         id="path15" />
      <path
         style="fill:none;stroke:#ffffff;stroke-width:0.35515;stroke-linecap:butt;stroke-linejoin:miter;stroke-dasharray:0.35515, 0.35515;stroke-dashoffset:0;stroke-opacity:1"
         d="M 22.569873,-1.1033812 9.4539481,3.3582272"
         id="path16" />
      <path
         style="fill:none;stroke:#ffffff;stroke-width:0.35515;stroke-linecap:butt;stroke-linejoin:miter;stroke-dasharray:0.35515, 0.35515;stroke-dashoffset:0;stroke-opacity:1"
         d="M 26.45028,20.411698 21.802252,10.621155 14.105826,17.599234 10.688366,9.6859327 9.4081914,3.355199"
         id="path17"
         sodipodi:nodetypes="ccccc" />
      <path
         style="fill:none;stroke:#ffffff;stroke-width:0.354591px;stroke-linecap:butt;stroke-linejoin:miter;stroke-dasharray:0.354591, 0.354591;stroke-dashoffset:0;stroke-opacity:1"
         d="M 37.819183,24.470753 26.222549,20.46939 31.055113,28.610175"
         id="path18" />
      <path
         style="fill:none;stroke:#ffffff;stroke-width:0.354591px;stroke-linecap:butt;stroke-linejoin:miter;stroke-dasharray:0.354591, 0.354591;stroke-dashoffset:0;stroke-opacity:1"
         d="M 26.079956,20.34832 19.051991,26.305821 14.399972,17.541292 2.7980102,14.147163 -0.54521469,25.944309"
         id="path19" />
      <path
         style="fill:none;stroke:#ffffff;stroke-width:0.354591px;stroke-linecap:butt;stroke-linejoin:miter;stroke-dasharray:0.354591, 0.354591;stroke-dashoffset:0;stroke-opacity:1"
         d="M 2.7099091,14.26539 -1.4083071,8.7287607"
         id="path20" />
      <path
         style="fill:none;stroke:#ffffff;stroke-width:0.354591px;stroke-linecap:butt;stroke-linejoin:miter;stroke-dasharray:0.354591, 0.354591;stroke-dashoffset:0;stroke-opacity:1"
         d="m 27.42642,8.180143 7.653346,6.087055"
         id="path21" />
      <path
         style="fill:none;stroke:#ffffff;stroke-width:0.354591px;stroke-linecap:butt;stroke-linejoin:miter;stroke-dasharray:0.354591, 0.354591;stroke-dashoffset:0;stroke-opacity:1"
         d="M 10.722206,9.657096 2.8628926,3.0189147 -3.1790143,1.3591349"
         id="path22" />
      <path
         style="fill:none;stroke:#ffffff;stroke-width:0.354591px;stroke-linecap:butt;stroke-linejoin:miter;stroke-dasharray:0.354591, 0.354591;stroke-dashoffset:0;stroke-opacity:1"
         d="M 3.0367761,3.1001909 -1.5006186,8.5897211"
         id="path23" />
      <path
         style="fill:none;stroke:#ffffff;stroke-width:0.354591px;stroke-linecap:butt;stroke-linejoin:miter;stroke-dasharray:0.354591, 0.354591;stroke-dashoffset:0;stroke-opacity:1"
         d="M 27.239208,8.2824125 C 26.922351,7.7033376 22.472304,-1.11295 22.472304,-1.11295"
         id="path24" />
      <path
         style="fill:none;stroke:#ffffff;stroke-width:0.354591px;stroke-linecap:butt;stroke-linejoin:miter;stroke-dasharray:0.354591, 0.354591;stroke-dashoffset:0;stroke-opacity:1"
         d="M 9.599321,3.0329334 C 9.3689132,2.8699093 -0.08456808,-1.6164055 -0.08456808,-1.6164055"
         id="path25" />
      <path
         style="fill:none;stroke:#ffffff;stroke-width:0.354591px;stroke-linecap:butt;stroke-linejoin:miter;stroke-dasharray:0.354591, 0.354591;stroke-dashoffset:0;stroke-opacity:1"
         d="M 21.566867,10.664194 10.663327,9.6782989"
         id="path26" />
      <path
         style="fill:none;stroke:#ffffff;stroke-width:0.354591px;stroke-linecap:butt;stroke-linejoin:miter;stroke-dasharray:0.354591, 0.354591;stroke-dashoffset:0;stroke-opacity:1"
         d="m 7.856721,21.394132 -8.27052981,4.707766"
         id="path27" />
      <path
         style="display:inline;fill:none;stroke:#ffffff;stroke-width:0.355;stroke-linecap:butt;stroke-linejoin:miter;stroke-dasharray:0.355, 0.355;stroke-dashoffset:0;stroke-opacity:1"
         d="m 11.186594,29.188193 7.722909,-2.873191"
         id="path28"
         sodipodi:nodetypes="cc" />
      <path
         style="display:inline;fill:none;stroke:#ffffff;stroke-width:0.355;stroke-linecap:butt;stroke-linejoin:miter;stroke-opacity:1;stroke-dasharray:0.355, 0.355;stroke-dashoffset:0"
         d="M 34.721202,14.230209 31.418572,4.0946851"
         id="path31" />
    </g>
    <g
       id="g32"
       inkscape:label="circles">
      <circle
         style="fill:url(#swatch30);fill-opacity:1;fill-rule:evenodd;stroke:none;stroke-width:0.28412;stroke-linecap:round;stroke-linejoin:round;stroke-miterlimit:5;stroke-dasharray:none;stroke-opacity:0.999256;paint-order:stroke fill markers"
         id="path1"
         cx="-2.9218361"
         cy="1.4414487"
         r="0.67009419" />
      <circle
         style="fill:url(#swatch29);fill-opacity:1;fill-rule:evenodd;stroke:none;stroke-width:0.28412;stroke-linecap:round;stroke-linejoin:round;stroke-miterlimit:5;stroke-dasharray:none;stroke-opacity:0.999256;paint-order:stroke fill markers"
         id="path1-5"
         cx="-0.51339883"
         cy="-1.6702929"
         r="0.67009419" />
      <circle
         style="fill:url(#swatch28);fill-opacity:1;fill-rule:evenodd;stroke:none;stroke-width:0.28412;stroke-linecap:round;stroke-linejoin:round;stroke-miterlimit:5;stroke-dasharray:none;stroke-opacity:0.999256;paint-order:stroke fill markers"
         id="path1-5-6"
         cx="2.8552167"
         cy="3.1801343"
         r="0.67009419" />
      <circle
         style="fill:url(#swatch31);fill-opacity:1;fill-rule:evenodd;stroke:none;stroke-width:0.28412;stroke-linecap:round;stroke-linejoin:round;stroke-miterlimit:5;stroke-dasharray:none;stroke-opacity:0.999256;paint-order:stroke fill markers"
         id="path1-5-6-2"
         cx="9.4281397"
         cy="3.3570936"
         r="0.67009419" />
      <circle
         style="fill:url(#swatch29);fill-opacity:1;fill-rule:evenodd;stroke:none;stroke-width:0.28412;stroke-linecap:round;stroke-linejoin:round;stroke-miterlimit:5;stroke-dasharray:none;stroke-opacity:0.999256;paint-order:stroke fill markers"
         id="path1-5-6-2-9"
         cx="-1.4834363"
         cy="8.6825438"
         r="0.67009419" />
      <circle
         style="fill:url(#swatch30);fill-opacity:1;fill-rule:evenodd;stroke:none;stroke-width:0.28412;stroke-linecap:round;stroke-linejoin:round;stroke-miterlimit:5;stroke-dasharray:none;stroke-opacity:0.999256;paint-order:stroke fill markers"
         id="path1-5-6-2-9-1"
         cx="10.75828"
         cy="9.5892859"
         r="0.67009419" />
      <circle
         style="fill:url(#swatch29);fill-opacity:1;fill-rule:evenodd;stroke:none;stroke-width:0.28412;stroke-linecap:round;stroke-linejoin:round;stroke-miterlimit:5;stroke-dasharray:none;stroke-opacity:0.999256;paint-order:stroke fill markers"
         id="path1-5-6-2-9-1-2"
         cx="2.7829101"
         cy="14.093005"
         r="0.67009419" />
      <circle
         style="fill:#ffffff;fill-opacity:1;fill-rule:evenodd;stroke:none;stroke-width:0.28412;stroke-linecap:round;stroke-linejoin:round;stroke-miterlimit:5;stroke-dasharray:none;stroke-opacity:0.999256;paint-order:stroke fill markers"
         id="path1-5-6-2-9-1-2-7"
         cx="-1.9297146"
         cy="15.290262"
         r="0.67009419" />
      <circle
         style="fill:url(#swatch29);fill-opacity:1;fill-rule:evenodd;stroke:none;stroke-width:0.28412;stroke-linecap:round;stroke-linejoin:round;stroke-miterlimit:5;stroke-dasharray:none;stroke-opacity:0.999256;paint-order:stroke fill markers"
         id="path1-5-6-2-9-1-2-7-0"
         cx="-0.48165393"
         cy="25.928699"
         r="0.67009419" />
      <circle
         style="fill:url(#swatch28);fill-opacity:1;fill-rule:evenodd;stroke:none;stroke-width:0.28412;stroke-linecap:round;stroke-linejoin:round;stroke-miterlimit:5;stroke-dasharray:none;stroke-opacity:0.999256;paint-order:stroke fill markers"
         id="path1-5-6-2-9-1-2-7-0-9"
         cx="7.8538065"
         cy="21.346188"
         r="0.67009419" />
      <circle
         style="fill:url(#swatch30);fill-opacity:1;fill-rule:evenodd;stroke:none;stroke-width:0.28412;stroke-linecap:round;stroke-linejoin:round;stroke-miterlimit:5;stroke-dasharray:none;stroke-opacity:0.999256;paint-order:stroke fill markers"
         id="path1-5-6-2-9-1-2-7-0-9-3"
         cx="14.196466"
         cy="17.503824"
         r="0.67009419" />
      <circle
         style="fill:url(#swatch28);fill-opacity:1;fill-rule:evenodd;stroke:none;stroke-width:0.28412;stroke-linecap:round;stroke-linejoin:round;stroke-miterlimit:5;stroke-dasharray:none;stroke-opacity:0.999256;paint-order:stroke fill markers"
         id="path1-5-6-2-9-1-2-7-0-9-3-6"
         cx="22.531612"
         cy="-1.1522675"
         r="0.67009419" />
      <circle
         style="fill:#ffffff;fill-opacity:1;fill-rule:evenodd;stroke:none;stroke-width:0.28412;stroke-linecap:round;stroke-linejoin:round;stroke-miterlimit:5;stroke-dasharray:none;stroke-opacity:0.999256;paint-order:stroke fill markers"
         id="path1-5-6-2-9-1-2-7-0-9-3-6-0"
         cx="21.671759"
         cy="10.575642"
         r="0.67009419" />
      <circle
         style="fill:url(#swatch30);fill-opacity:1;fill-rule:evenodd;stroke:none;stroke-width:0.28412;stroke-linecap:round;stroke-linejoin:round;stroke-miterlimit:5;stroke-dasharray:none;stroke-opacity:0.999256;paint-order:stroke fill markers"
         id="path1-5-6-2-9-1-2-7-0-9-3-6-0-6"
         cx="27.142622"
         cy="8.1301565"
         r="0.67009419" />
      <circle
         style="fill:url(#swatch28);fill-opacity:1;fill-rule:evenodd;stroke:none;stroke-width:0.28412;stroke-linecap:round;stroke-linejoin:round;stroke-miterlimit:5;stroke-dasharray:none;stroke-opacity:0.999256;paint-order:stroke fill markers"
         id="path1-5-6-2-9-1-2-7-0-9-3-6-0-6-2"
         cx="31.417034"
         cy="4.1425781"
         r="0.67009419" />
      <circle
         style="fill:url(#swatch29);fill-opacity:1;fill-rule:evenodd;stroke:none;stroke-width:0.28412;stroke-linecap:round;stroke-linejoin:round;stroke-miterlimit:5;stroke-dasharray:none;stroke-opacity:0.999256;paint-order:stroke fill markers"
         id="path1-5-6-2-9-1-2-7-0-9-3-6-0-6-2-6"
         cx="36.407619"
         cy="-0.075500727"
         r="0.67009419" />
      <circle
         style="fill:url(#swatch29);fill-opacity:1;fill-rule:evenodd;stroke:none;stroke-width:0.28412;stroke-linecap:round;stroke-linejoin:round;stroke-miterlimit:5;stroke-dasharray:none;stroke-opacity:0.999256;paint-order:stroke fill markers"
         id="path1-5-6-2-9-1-2-7-0-9-3-6-0-6-2-6-1"
         cx="34.718552"
         cy="14.209312"
         r="0.67009419" />
      <circle
         style="fill:url(#swatch28);fill-opacity:1;fill-rule:evenodd;stroke:none;stroke-width:0.28412;stroke-linecap:round;stroke-linejoin:round;stroke-miterlimit:5;stroke-dasharray:none;stroke-opacity:0.999256;paint-order:stroke fill markers"
         id="path1-5-6-2-9-1-2-7-0-9-3-6-0-6-2-6-1-8"
         cx="26.318361"
         cy="20.352135"
         r="0.67009419" />
      <circle
         style="fill:url(#swatch31);fill-opacity:1;fill-rule:evenodd;stroke:none;stroke-width:0.28412;stroke-linecap:round;stroke-linejoin:round;stroke-miterlimit:5;stroke-dasharray:none;stroke-opacity:0.999256;paint-order:stroke fill markers"
         id="path1-5-6-2-9-1-2-7-0-9-3-6-0-6-2-6-1-8-7"
         cx="18.876333"
         cy="26.263968"
         r="0.67009419" />
      <circle
         style="fill:url(#swatch29);fill-opacity:1;fill-rule:evenodd;stroke:none;stroke-width:0.28412;stroke-linecap:round;stroke-linejoin:round;stroke-miterlimit:5;stroke-dasharray:none;stroke-opacity:0.999256;paint-order:stroke fill markers"
         id="path1-5-6-2-9-1-2-7-0-9-3-6-0-6-2-6-1-8-7-9"
         cx="30.984352"
         cy="28.417656"
         r="0.67009419" />
      <circle
         style="fill:url(#swatch31);fill-opacity:1;fill-rule:evenodd;stroke:none;stroke-width:0.28412;stroke-linecap:round;stroke-linejoin:round;stroke-miterlimit:5;stroke-dasharray:none;stroke-opacity:0.999256;paint-order:stroke fill markers"
         id="path1-5-6-2-9-1-2-7-0-9-3-6-0-6-2-6-1-8-7-9-2"
         cx="37.708527"
         cy="24.504917"
         r="0.67009419" />
      <circle
         style="fill:url(#swatch30);fill-opacity:1;fill-rule:evenodd;stroke:none;stroke-width:0.28412;stroke-linecap:round;stroke-linejoin:round;stroke-miterlimit:5;stroke-dasharray:none;stroke-opacity:0.999256;paint-order:stroke fill markers"
         id="path1-5-6-2-9-1-2-7-0-9-3-6-0-6-2-6-1-8-7-9-2-0"
         cx="11.151155"
         cy="29.107891"
         r="0.67009419" />
    </g>
  </g>
  <g
     inkscape:label="Calque 1"
     inkscape:groupmode="layer"
     id="layer1"
     transform="translate(-57.731851,-206.63571)"
     style="display:inline">
    <path
       style="display:inline;fill:#ffffff;fill-opacity:1;stroke:#000000;stroke-width:0.211667;stroke-linecap:round;stroke-dasharray:none;stroke-opacity:0;paint-order:fill markers stroke"
       d="m 77.696921,235.08311 c -0.0019,-0.68041 0.0037,-1.36854 -0.0021,-2.04587 1.714651,-0.0421 3.183607,-0.43863 3.885034,-1.01286 2.286965,-1.87223 5.033917,-3.62796 8.224303,-5.02295 1.943827,-0.84993 3.380239,-1.94266 3.560508,-3.39152 0.238083,-1.91357 -2.618621,-3.47829 -6.027023,-4.61987 -2.446951,-0.81957 -4.327988,-2.08454 -5.160409,-3.61322 0.199273,-0.42946 0.300757,-0.8933 0.300757,-1.37666 0,-1.43056 -0.886968,-2.69165 -2.222603,-3.54655 0.08122,-0.5793 -0.370933,-0.97429 -0.844394,-0.9679 -0.57004,0.008 -1.214541,0.76672 -1.301213,1.3658 -0.0678,0.46863 0.514008,0.9329 1.1436,1.00769 l 0.02585,1.75339 c 0.0028,0.19262 -0.155138,0.34778 -0.347781,0.34778 -1.018276,0 -2.036551,0 -3.054827,0 -0.192643,0 -0.35062,-0.15516 -0.347781,-0.34778 l 0.02585,-1.75339 c 0.629592,-0.0748 1.211397,-0.53906 1.1436,-1.00769 -0.08667,-0.59908 -0.731173,-1.35811 -1.301213,-1.3658 -0.473461,-0.006 -0.92561,0.3886 -0.844394,0.9679 -1.335635,0.8549 -2.222603,2.11599 -2.222603,3.54655 0,0.48336 0.101484,0.9472 0.300757,1.37666 -0.832421,1.52868 -2.713458,2.79365 -5.160409,3.61322 -3.408402,1.14158 -6.265106,2.7063 -6.027021,4.61987 0.180266,1.44886 1.616679,2.54159 3.560506,3.39152 3.190386,1.39499 5.937338,3.15072 8.224303,5.02295 0.701427,0.57423 2.170383,0.97071 3.885033,1.01286 -0.0049,0.67794 -0.0021,1.3649 -0.0021,2.04587 0,0.19264 0.129707,0.34778 0.292901,0.34778 0.163195,0 0.292902,-0.15514 0.292902,-0.34778 z"
       id="path454-7"
       inkscape:label="manta-background" />
    <path
       id="path2014"
       style="display:inline;fill:url(#linearGradient27303);fill-opacity:1;stroke:#000000;stroke-width:0.212;stroke-linecap:round;stroke-dasharray:none;stroke-opacity:0;paint-order:fill markers stroke"
       inkscape:label="manta-body-v2"
       d="m 75.39705,209.4857 c -0.473458,-0.006 -0.925609,0.38861 -0.844392,0.9679 -1.335629,0.8549 -2.222604,2.116 -2.222604,3.54655 0,0.48336 0.101485,0.94721 0.300757,1.37666 -0.832417,1.52868 -2.71347,2.79366 -5.160408,3.61322 -3.408385,1.14158 -6.265107,2.70632 -6.027023,4.61987 0.180265,1.44886 1.616688,2.5416 3.560506,3.39153 3.19037,1.39498 5.937351,3.15073 8.224304,5.02295 0.701424,0.57422 2.170393,0.97071 3.885035,1.01285 -0.0049,0.67794 -0.0021,1.36492 -0.0021,2.04587 0,0.19265 0.129811,0.34779 0.293005,0.34779 0.163195,0 0.293005,-0.15514 0.293005,-0.34779 -0.0019,-0.68039 0.0032,-1.36853 -0.0026,-2.04587 1.714641,-0.0421 3.183611,-0.43863 3.885033,-1.01285 0.667776,-0.54668 1.37965,-1.08176 2.125452,-1.60249 v -2.27325 H 81.191479 V 225.6351 H 78.67742 v 2.51354 h -2.513542 v -2.51354 -2.51354 h -2.513541 v -2.51354 h -2.513542 v -2.51354 h 2.513542 2.513541 v 2.51354 2.51354 h 5.027601 v -2.51354 h 2.513541 2.513544 v 2.51354 h 2.513541 v 2.51354 1.85829 c 0.352034,-0.16798 0.708189,-0.33299 1.071769,-0.49196 1.943815,-0.84993 3.380238,-1.94268 3.560506,-3.39153 0.238083,-1.91355 -2.618631,-3.47829 -6.027023,-4.61987 -2.446938,-0.81956 -4.327991,-2.08454 -5.160409,-3.61322 0.199272,-0.42945 0.300757,-0.8933 0.300757,-1.37666 0,-1.43055 -0.886975,-2.69165 -2.222603,-3.54655 0.08122,-0.57929 -0.370935,-0.97429 -0.844393,-0.9679 -0.570037,0.008 -1.214541,0.76673 -1.301213,1.36581 -0.0678,0.46862 0.51401,0.93289 1.1436,1.00769 l 0.02584,1.75338 c 0.0028,0.19262 -0.155141,0.34778 -0.347782,0.34778 -1.018271,0 -2.036324,0 -3.054594,0 -0.192642,0 -0.350622,-0.15516 -0.347783,-0.34778 l 0.02584,-1.75338 c 0.629589,-0.0748 1.211395,-0.53907 1.143599,-1.00769 -0.08667,-0.59908 -0.731176,-1.35811 -1.301213,-1.36581 z m 10.821563,13.63586 H 83.70507 v 2.51354 h 2.513543 z m -7.580417,-7.56698 h 2.539897 v 2.5399 h -2.539897 z m -12.527917,7.56646 h 2.513542 v 2.51355 h -2.513542 z m 5.027083,2.51355 h 2.513542 v 2.51354 h -2.513542 z m 15.081251,2.51405 v 0.67076 c 0.394629,-0.22862 0.796176,-0.453 1.208193,-0.67076 z" />
    <path
       style="display:inline;fill:none;fill-opacity:0;stroke:#ffffff;stroke-width:0.423333;stroke-linecap:round;stroke-dasharray:none;stroke-opacity:1;paint-order:fill markers stroke"
       d="m 95.271419,222.34407 c 0.238083,-1.91356 -2.618621,-3.47829 -6.027023,-4.61987 -2.446951,-0.81957 -4.327988,-2.08454 -5.16041,-3.61322 0.199273,-0.42946 0.300758,-0.8933 0.300758,-1.37666 0,-1.43056 -0.886969,-2.69165 -2.222604,-3.54655"
       id="path2061"
       inkscape:label="manta-wave-v3"
       sodipodi:nodetypes="cscsc" />
    <path
       style="display:inline;fill:none;fill-opacity:1;stroke:#ffffff;stroke-width:0.211667;stroke-linecap:round;stroke-dasharray:none;stroke-opacity:1;paint-order:fill markers stroke"
       d="m 77.696921,235.08311 c -0.0019,-0.68041 0.0037,-1.36854 -0.0021,-2.04587 1.714651,-0.0421 3.183607,-0.43863 3.885034,-1.01286 2.286965,-1.87223 5.033917,-3.62796 8.224303,-5.02295 1.943827,-0.84993 3.380239,-1.94266 3.560508,-3.39152 0.238083,-1.91357 -2.618621,-3.47829 -6.027023,-4.61987 -2.446951,-0.81957 -4.327988,-2.08454 -5.160409,-3.61322 0.199273,-0.42946 0.300757,-0.8933 0.300757,-1.37666 0,-1.43056 -0.886968,-2.69165 -2.222603,-3.54655 0.08122,-0.5793 -0.370933,-0.97429 -0.844394,-0.9679 -0.57004,0.008 -1.214541,0.76672 -1.301213,1.3658 -0.0678,0.46863 0.514008,0.9329 1.1436,1.00769 l 0.02585,1.75339 c 0.0028,0.19262 -0.155138,0.34778 -0.347781,0.34778 -1.018276,0 -2.036551,0 -3.054827,0 -0.192643,0 -0.35062,-0.15516 -0.347781,-0.34778 l 0.02585,-1.75339 c 0.629592,-0.0748 1.211397,-0.53906 1.1436,-1.00769 -0.08667,-0.59908 -0.731173,-1.35811 -1.301213,-1.3658 -0.473461,-0.006 -0.92561,0.3886 -0.844394,0.9679 -1.335635,0.8549 -2.222603,2.11599 -2.222603,3.54655 0,0.48336 0.101484,0.9472 0.300757,1.37666 -0.832421,1.52868 -2.713458,2.79365 -5.160409,3.61322 -3.408402,1.14158 -6.265106,2.7063 -6.027021,4.61987 0.180266,1.44886 1.616679,2.54159 3.560506,3.39152 3.190386,1.39499 5.937338,3.15072 8.224303,5.02295 0.701427,0.57423 2.170383,0.97071 3.885033,1.01286 -0.0049,0.67794 -0.0021,1.3649 -0.0021,2.04587 0,0.19264 0.129707,0.34778 0.292901,0.34778 0.163195,0 0.292902,-0.15514 0.292902,-0.34778 z"
       id="path1213"
       inkscape:label="outline" />
  </g>
</svg>
