<?xml version="1.0" encoding="UTF-8" standalone="no"?>
<svg
   version="1.0"
   width="900.000000pt"
   height="900.000000pt"
   viewBox="0 0 900.000000 900.000000"
   preserveAspectRatio="xMidYMid meet"
   id="svg4991"
   sodipodi:docname="manta.svg"
   inkscape:version="1.2 (dc2aeda, 2022-05-15)"
   xmlns:inkscape="http://www.inkscape.org/namespaces/inkscape"
   xmlns:sodipodi="http://sodipodi.sourceforge.net/DTD/sodipodi-0.dtd"
   xmlns="http://www.w3.org/2000/svg"
   xmlns:svg="http://www.w3.org/2000/svg">
  <defs
     id="defs4995" />
  <sodipodi:namedview
     id="namedview4993"
     pagecolor="#505050"
     bordercolor="#ffffff"
     borderopacity="1"
     inkscape:showpageshadow="0"
     inkscape:pageopacity="0"
     inkscape:pagecheckerboard="1"
     inkscape:deskcolor="#505050"
     inkscape:document-units="pt"
     showgrid="false"
     inkscape:zoom="0.55625733"
     inkscape:cx="498.86983"
     inkscape:cy="559.09375"
     inkscape:window-width="1920"
     inkscape:window-height="1052"
     inkscape:window-x="1512"
     inkscape:window-y="28"
     inkscape:window-maximized="0"
     inkscape:current-layer="g4989" />
  <metadata
     id="metadata4973">
Created by potrace 1.10, written by Peter Selinger 2001-2011
</metadata>
  <g
     transform="translate(0.000000,900.000000) scale(0.100000,-0.100000)"
     fill="#000000"
     stroke="none"
     id="g4989"
     inkscape:label="manta">
    <path
       d="M3935 7623 c-50 -26 -83 -70 -141 -187 -41 -82 -70 -126 -113 -171 -33 -33 -66 -74 -75 -92 -22 -43 -21 -169 0 -223 51 -128 -44 -297 -241 -428 -158 -106 -259 -150 -495 -217 -30 -9 -68 -21 -85 -27 -16 -5 -46 -14 -65 -18 -19 -4 -48 -13 -65 -19 -16 -6 -77 -26 -135 -46 -194 -64 -213 -72 -419 -173 -117 -57 -221 -121 -326 -201 -174 -132 -385 -356 -490 -521 -67 -105 -84 -172 -50 -200 19 -16 66 3 125 49 50 40 175 108 245 134 211 77 452 109 672 88 163 -15 357 -62 481 -117 17 -8 47 -20 65 -28 41 -18 116 -54 142 -69 20 -12 160 -96 200 -120 43 -27 184 -134 250 -190 114 -99 223 -220 276 -307 29 -48 41 -124 29 -171 -22 -79 -67 -121 -175 -161 -137 -51 -148 -53 -194 -38 -103 34 -157 -96 -61 -145 27 -14 33 -14 59 -1 16 9 31 22 34 29 6 16 88 47 122 47 31 0 147 43 199 74 52 30 114 99 123 136 3 14 14 42 25 63 23 46 54 49 100 8 32 -28 33 -31 32 -108 0 -84 -10 -109 -69 -188 -77 -102 -222 -190 -395 -238 -133 -37 -168 -46 -223 -57 -56 -11 -59 -11 -94 16 -28 21 -47 27 -90 28 -51 0 -58 -2 -89 -37 -29 -31 -34 -44 -34 -87 0 -41 5 -55 30 -84 55 -62 133 -59 205 10 34 33 53 44 77 44 17 0 59 7 92 16 34 8 88 22 121 31 128 32 255 86 348 147 109 70 209 195 241 299 10 32 52 20 88 -25 l33 -42 0 -112 c-1 -65 -5 -118 -12 -125 -6 -8 -14 -25 -18 -39 -15 -48 -99 -162 -170 -228 -67 -62 -276 -192 -310 -192 -7 0 -18 -7 -25 -15 -7 -8 -18 -15 -24 -15 -21 0 -152 -92 -209 -148 -67 -65 -118 -138 -163 -232 -47 -97 -53 -123 -70 -265 -21 -184 -1 -373 51 -490 25 -56 27 -76 10 -130 -15 -46 -16 -59 -5 -87 30 -77 97 -111 173 -90 133 37 126 205 -11 261 -61 26 -119 226 -116 406 4 223 71 396 203 525 72 70 141 116 294 193 289 147 389 248 508 511 19 41 23 46 32 31 19 -35 -10 -331 -41 -405 -5 -14 -20 -50 -32 -80 -13 -30 -38 -78 -56 -107 -70 -110 -243 -258 -373 -317 -40 -19 -53 -20 -69 -4 -7 7 -40 13 -77 13 -60 0 -67 -2 -97 -33 -30 -29 -33 -37 -33 -95 0 -47 5 -69 20 -89 48 -64 118 -76 181 -30 49 36 63 53 73 87 5 20 25 37 81 67 93 50 230 151 291 215 52 55 109 127 109 139 0 4 6 15 13 23 31 36 107 252 107 302 0 13 4 30 9 38 7 11 11 4 16 -25 11 -60 22 -75 30 -39 3 17 14 59 23 95 15 57 17 127 17 580 0 503 0 516 -22 575 -26 73 -39 98 -78 152 -53 74 -165 131 -209 106 -8 -4 -47 -51 -86 -103 -62 -83 -69 -98 -64 -126 7 -38 -14 -84 -50 -108 -66 -43 -155 6 -156 85 0 51 45 99 92 99 40 0 45 3 88 60 19 25 47 58 62 74 15 16 25 33 22 38 -6 10 -236 9 -250 -1 -5 -3 -17 -22 -27 -42 -22 -42 -82 -75 -116 -64 -12 3 -35 18 -51 32 -26 21 -30 32 -30 72 0 39 5 52 28 74 33 31 97 37 136 12 20 -13 40 -14 137 -5 63 6 167 13 232 16 64 3 117 10 117 14 0 5 -17 19 -37 31 -21 13 -40 26 -43 29 -6 7 -59 41 -86 56 -12 7 -42 10 -67 7 -32 -4 -52 0 -71 12 -37 25 -89 18 -351 -45 -52 -13 -73 -23 -81 -40 -28 -54 -118 -78 -159 -42 -58 51 -59 107 -2 170 24 26 97 31 119 9 28 -28 54 -36 89 -27 79 20 137 33 179 41 60 12 100 29 100 43 0 6 -35 37 -78 69 -42 32 -99 76 -127 99 -48 39 -51 40 -105 33 -30 -3 -75 -12 -100 -20 -55 -16 -129 -34 -192 -47 -72 -14 -118 -36 -118 -56 0 -27 -42 -62 -81 -68 -51 -8 -85 10 -109 56 -20 40 -20 41 -2 83 15 35 27 45 60 56 37 12 44 12 84 -8 34 -16 50 -19 73 -11 17 5 57 15 90 23 33 8 80 20 105 27 25 6 64 15 88 20 52 12 62 17 62 35 0 14 -114 128 -158 157 -33 22 -119 23 -146 3 -31 -23 -85 -18 -123 11 -30 23 -33 30 -33 76 0 43 5 57 27 80 22 23 35 28 75 28 46 0 50 -2 80 -45 26 -37 42 -48 82 -60 27 -8 57 -15 66 -15 8 0 67 -52 130 -115 63 -63 144 -137 180 -164 36 -28 88 -69 115 -91 28 -22 66 -51 86 -65 l36 -25 46 20 c45 20 49 20 82 4 47 -22 75 -59 75 -100 0 -26 8 -38 38 -61 42 -32 70 -50 92 -60 8 -3 31 -19 51 -35 20 -15 40 -28 44 -28 4 0 18 -9 32 -20 14 -11 29 -17 34 -14 16 10 9 137 -11 201 -32 103 -78 167 -171 239 -55 42 -67 47 -137 55 -53 6 -85 15 -107 31 -27 20 -118 116 -284 300 -40 44 -47 48 -91 48 -36 0 -53 6 -74 25 -41 38 -49 69 -29 114 32 74 100 91 158 40 29 -26 35 -38 35 -71 0 -45 4 -51 140 -198 195 -211 205 -219 240 -200 18 10 20 21 20 127 0 114 0 116 -30 149 -39 45 -47 78 -27 119 l16 33 -103 100 c-126 122 -146 136 -188 129 -40 -6 -105 18 -118 44 -18 33 -11 102 13 131 26 32 81 44 117 26 32 -18 70 -74 70 -107 0 -15 10 -35 23 -46 12 -10 70 -63 129 -117 94 -86 111 -98 143 -98 28 0 43 7 66 32 l29 32 0 152 0 151 -30 26 c-76 68 -37 187 62 187 92 0 141 -119 75 -180 -21 -21 -22 -27 -19 -181 l3 -160 -45 -61 c-42 -56 -44 -62 -31 -82 33 -46 5 -125 -51 -146 -23 -9 -24 -12 -24 -135 l0 -125 63 -47 c34 -26 101 -87 149 -136 49 -48 92 -85 98 -82 14 9 13 332 -1 340 -19 13 -69 88 -69 105 0 10 18 42 40 71 l40 53 0 107 0 106 -35 44 c-38 48 -43 75 -20 119 32 61 101 78 155 38 58 -42 60 -113 5 -164 -24 -22 -25 -29 -25 -139 l0 -117 35 -41 c50 -58 46 -111 -12 -161 -25 -21 -25 -23 -24 -191 0 -103 4 -171 10 -173 6 -2 36 24 67 58 32 33 92 86 133 117 116 86 111 77 111 210 l0 115 -46 45 -47 45 6 58 c6 56 5 60 -28 100 l-35 42 0 178 c0 140 -3 181 -14 187 -20 12 -36 48 -36 82 0 20 11 41 34 65 44 47 91 49 138 7 29 -26 33 -35 33 -80 0 -46 -3 -54 -32 -77 l-33 -25 0 -157 c0 -154 0 -158 25 -185 20 -21 35 -27 68 -27 40 0 48 6 170 123 115 110 127 125 128 157 0 22 9 46 24 64 20 25 31 30 75 30 46 1 55 -2 81 -32 48 -54 35 -129 -28 -161 -12 -6 -44 -11 -71 -11 -49 0 -49 0 -168 -114 l-118 -113 13 -40 c16 -48 9 -73 -30 -118 l-30 -33 3 -119 3 -118 40 -3 c37 -2 43 1 83 50 24 29 84 96 134 150 125 135 138 154 138 204 0 35 5 47 31 68 42 36 88 35 127 -2 78 -73 36 -182 -68 -182 -52 0 -63 -9 -237 -210 -50 -58 -101 -115 -114 -127 -27 -24 -87 -43 -138 -43 -51 0 -118 -38 -186 -105 -60 -59 -86 -102 -118 -200 -18 -51 -23 -180 -9 -189 5 -3 41 17 81 45 40 27 74 49 76 49 2 0 27 16 56 35 60 39 78 65 79 112 0 24 8 38 33 56 48 36 63 38 115 18 29 -11 55 -16 67 -11 11 4 65 45 120 91 56 46 122 101 149 123 26 21 93 82 148 136 97 93 103 97 165 110 47 9 66 18 74 34 27 52 61 76 107 76 36 0 49 -5 73 -31 65 -69 18 -179 -77 -179 -25 0 -47 6 -54 15 -9 10 -31 15 -72 15 l-60 0 -82 -77 c-44 -43 -84 -82 -88 -88 -12 -16 11 -33 55 -40 23 -4 62 -13 87 -20 25 -8 72 -21 105 -30 33 -9 73 -20 89 -25 22 -7 38 -4 67 10 46 24 70 25 110 4 42 -21 64 -75 49 -119 -15 -44 -41 -66 -89 -72 -50 -7 -87 14 -106 61 -14 34 -25 38 -190 82 -27 7 -75 20 -105 28 -30 8 -80 18 -110 21 l-55 6 -90 -68 c-134 -101 -165 -127 -165 -139 0 -13 149 -55 268 -76 46 -7 58 -6 87 12 65 40 136 15 165 -57 25 -64 -32 -133 -109 -133 -32 0 -44 6 -65 31 -14 17 -26 34 -26 39 0 15 -179 61 -317 80 -65 9 -78 8 -116 -9 -37 -17 -50 -18 -79 -9 -34 10 -40 8 -132 -53 -53 -35 -93 -66 -88 -70 4 -4 99 -12 212 -19 113 -6 213 -13 223 -16 10 -3 29 1 42 10 13 9 44 16 69 16 38 0 48 -5 75 -35 50 -58 38 -125 -29 -160 -46 -24 -76 -19 -115 20 -19 20 -35 44 -35 54 0 10 -7 22 -16 25 -23 9 -242 7 -248 -2 -2 -4 26 -44 62 -90 65 -79 68 -82 109 -82 36 0 46 -5 67 -33 43 -56 32 -123 -24 -152 -76 -39 -150 10 -150 100 0 33 -14 73 -29 85 -4 3 -28 33 -54 67 -72 94 -74 95 -121 88 -73 -12 -159 -83 -202 -168 -56 -112 -56 -110 -65 -592 -5 -247 -13 -477 -18 -510 -24 -161 -53 -271 -103 -395 -6 -14 -14 -38 -18 -55 -5 -16 -20 -61 -34 -99 -18 -47 -26 -89 -26 -132 0 -68 -4 -79 -88 -252 -63 -132 -90 -167 -132 -175 -31 -7 -70 -56 -70 -90 0 -86 126 -128 180 -60 15 20 20 39 18 78 -2 44 2 58 27 91 46 60 57 80 70 119 2 8 8 15 13 15 11 0 42 -66 42 -90 0 -11 6 -37 14 -57 7 -21 21 -65 31 -98 9 -33 23 -78 30 -100 64 -209 75 -277 75 -473 0 -126 -4 -192 -16 -240 -19 -75 -71 -209 -91 -233 -7 -8 -13 -19 -13 -23 0 -4 -23 -37 -50 -73 -56 -74 -61 -106 -20 -111 40 -5 112 81 183 218 33 63 50 112 79 219 17 63 21 107 21 261 1 202 -10 272 -78 510 -48 168 -64 231 -75 295 -4 28 -13 69 -19 92 -15 55 -17 221 -2 236 7 7 11 6 14 -4 2 -8 10 -34 16 -59 7 -25 16 -59 20 -76 14 -54 91 -203 152 -294 52 -78 59 -94 59 -137 0 -66 31 -98 96 -98 60 0 87 28 87 90 0 53 -22 82 -74 99 -18 6 -40 23 -48 37 -9 14 -40 65 -68 113 -29 48 -53 91 -53 97 0 6 -6 23 -14 37 -25 50 -46 103 -46 118 0 9 -6 37 -14 63 -53 169 -63 250 -41 312 9 24 20 61 24 81 8 38 27 68 42 68 4 0 10 -21 14 -47 9 -74 35 -150 82 -242 102 -195 230 -316 475 -445 30 -15 44 -30 46 -47 9 -58 85 -119 150 -119 43 0 112 55 128 102 35 101 -68 210 -167 177 -19 -7 -38 -16 -43 -20 -16 -14 -48 -9 -81 12 -16 10 -37 22 -45 26 -91 43 -257 195 -325 298 -81 124 -124 284 -125 465 0 126 8 146 39 95 11 -20 21 -41 21 -46 0 -42 144 -244 222 -309 90 -77 118 -96 262 -170 179 -93 171 -88 237 -137 130 -97 206 -227 250 -427 32 -146 23 -262 -33 -446 -23 -78 -42 -110 -66 -110 -30 0 -87 -56 -102 -99 -31 -95 57 -186 163 -166 45 9 84 46 98 95 10 34 9 48 -6 93 -17 51 -17 54 3 102 95 237 97 491 5 740 -58 156 -178 292 -345 390 -10 5 -74 38 -142 73 -231 117 -341 219 -428 395 -34 68 -48 194 -29 263 13 50 70 118 91 110 9 -4 27 -32 42 -64 46 -99 160 -221 257 -276 85 -48 166 -86 181 -86 10 0 21 -4 25 -9 3 -5 20 -12 38 -16 17 -4 55 -13 82 -20 121 -33 173 -45 202 -45 23 0 41 -11 76 -47 45 -46 48 -47 108 -48 59 0 62 1 95 39 109 126 -58 281 -193 179 -31 -24 -35 -24 -85 -13 -319 72 -453 131 -579 259 -75 77 -102 135 -102 221 0 55 4 73 24 99 25 34 63 50 87 35 8 -5 23 -32 34 -58 52 -133 156 -207 356 -251 43 -10 75 -24 98 -45 21 -18 46 -30 63 -30 37 0 81 44 81 79 0 52 -66 95 -108 72 -28 -15 -72 -13 -102 4 -14 8 -33 14 -42 15 -35 0 -153 64 -185 99 -56 62 -57 170 -1 264 119 203 458 489 743 626 100 48 109 51 253 105 39 15 114 35 222 60 36 9 126 20 202 27 261 21 512 -20 728 -120 39 -18 182 -101 190 -110 3 -3 20 -17 39 -30 27 -19 37 -21 57 -12 20 9 24 18 24 51 0 125 -292 474 -570 682 -280 210 -552 329 -1090 475 -144 39 -167 46 -198 59 -18 8 -37 14 -43 14 -31 0 -230 119 -306 183 -164 139 -226 277 -177 393 10 24 17 68 17 114 0 64 -3 81 -25 115 -14 22 -38 51 -53 65 -48 44 -135 174 -135 201 0 23 -80 136 -113 160 -48 34 -66 36 -101 8 -31 -25 -36 -83 -10 -132 35 -66 42 -84 59 -148 16 -63 16 -70 1 -117 -28 -84 -99 -138 -251 -191 -71 -25 -179 -28 -251 -6 -65 20 -228 20 -284 0 -56 -20 -174 -19 -236 1 -66 21 -161 70 -206 105 -37 30 -68 97 -68 148 0 36 24 112 55 172 35 71 35 140 -1 168 -32 25 -39 25 -79 4z m-191 -458 c11 -45 -20 -134 -48 -135 -20 0 -46 34 -46 61 0 82 77 143 94 74z m1809 -10 c24 -51 22 -101 -4 -116 -28 -15 -57 13 -69 67 -13 57 -4 84 29 84 21 0 31 -8 44 -35z"
       id="path4975" />
  </g>
</svg>
