<?xml version="1.0" encoding="UTF-8" standalone="no"?>
<!-- Uploaded to: SVG Repo, www.svgrepo.com, Generator: SVG Repo Mixer Tools -->

<svg
   fill="#000000"
   width="49.999783"
   height="50"
   viewBox="0 0 1.9999913 2"
   id="icon"
   version="1.1"
   sodipodi:docname="neural-network.svg"
   inkscape:version="1.3.2 (091e20e, 2023-11-25)"
   xmlns:inkscape="http://www.inkscape.org/namespaces/inkscape"
   xmlns:sodipodi="http://sodipodi.sourceforge.net/DTD/sodipodi-0.dtd"
   xmlns="http://www.w3.org/2000/svg"
   xmlns:svg="http://www.w3.org/2000/svg">
  <sodipodi:namedview
     id="namedview4"
     pagecolor="#2e3030"
     bordercolor="#999999"
     borderopacity="1"
     inkscape:showpageshadow="0"
     inkscape:pageopacity="0"
     inkscape:pagecheckerboard="0"
     inkscape:deskcolor="#d1d1d1"
     inkscape:zoom="1.46125"
     inkscape:cx="349.7006"
     inkscape:cy="350.04277"
     inkscape:window-width="2560"
     inkscape:window-height="1373"
     inkscape:window-x="0"
     inkscape:window-y="0"
     inkscape:window-maximized="1"
     inkscape:current-layer="icon" />
  <defs
     id="defs1">
    <style
       id="style1">
      .cls-1 {
        fill: none;
      }
    </style>
  </defs>
  <path
     d="M 0.42856954,1.7857064 A 0.21149191,0.21149191 0 0 0 0.40708392,1.6938925 L 0.71428251,1.3867152 V 1.142852 H 0.57142601 V 1.3275584 L 0.30608436,1.5928858 a 0.21189191,0.21189191 0 0 0 -0.0917996,-0.021464 0.21428477,0.21428477 0 1 0 0.21428478,0.2142846 z m -0.28571303,0 a 0.07142826,0.07142826 0 1 1 0.0714284,0.071428 0.07149255,0.07149255 0 0 1 -0.0714284,-0.071428 z"
     id="path1"
     style="fill:#e1e1e1;fill-opacity:1;stroke-width:0.0714283" />
  <path
     d="M 1.2142804,1.7857064 A 0.21391334,0.21391334 0 0 0 1.0714238,1.5845859 V 1.142852 H 0.92856731 V 1.5845859 A 0.2139062,0.2139062 0 1 0 1.2142804,1.7857064 Z m -0.28571309,0 a 0.07142826,0.07142826 0 1 1 0.0714283,0.071428 0.07149255,0.07149255 0 0 1 -0.0714283,-0.071428 z"
     id="path2"
     style="fill:#e1e1e1;fill-opacity:1;stroke-width:0.0714283" />
  <path
     d="M 1.9999912,1.7857064 A 0.21452048,0.21452048 0 0 0 1.7857064,1.5714216 0.21183478,0.21183478 0 0 0 1.6876354,1.5962858 L 1.4285651,1.3282584 V 1.142852 H 1.2857085 V 1.3860152 L 1.5894501,1.700221 a 0.2141919,0.2141919 0 1 0 0.4105411,0.085485 z m -0.285713,0 a 0.07142826,0.07142826 0 1 1 0.071428,0.071428 0.07149255,0.07149255 0 0 1 -0.071428,-0.071428 z"
     id="path3"
     style="fill:#e1e1e1;fill-opacity:1;stroke-width:0.0714283" />
  <path
     d="M 1.7142782,1.142852 V 1.2857085 H 1.8571347 V 1.142852 A 0.28397017,0.28397017 0 0 0 1.7583993,0.92856731 0.28397017,0.28397017 0 0 0 1.8571347,0.71428254 V 0.64285429 A 0.64356859,0.64356859 0 0 0 1.2142804,0 H 0.78571081 a 0.64356859,0.64356859 0 0 0 -0.6428543,0.64285429 v 0.0714281 A 0.28397017,0.28397017 0 0 0 0.24159179,0.92856731 0.28397017,0.28397017 0 0 0 0.14285651,1.142852 V 1.2857085 H 0.28571302 V 1.142852 A 0.14302079,0.14302079 0 0 1 0.42856954,0.99999555 H 1.5714216 A 0.14302079,0.14302079 0 0 1 1.7142782,1.142852 Z M 0.28571302,0.71428254 V 0.64285429 A 0.5003335,0.5003335 0 0 1 0.71428251,0.14857077 V 0.28571302 H 0.85713906 V 0.14285651 H 1.142852 V 0.35714127 A 0.21452048,0.21452048 0 0 0 1.3571369,0.57142604 H 1.4999934 V 0.42856954 H 1.3571369 a 0.07149255,0.07149255 0 0 1 -0.071428,-0.0714283 v -0.2085705 a 0.5003335,0.5003335 0 0 1 0.4285697,0.49428352 v 0.0714281 a 0.14302079,0.14302079 0 0 1 -0.142857,0.1428567 H 1.2857085 V 0.71428254 H 1.142852 V 0.85713906 H 0.85713906 V 0.71428254 A 0.21452048,0.21452048 0 0 0 0.64285427,0.49999779 H 0.49999779 v 0.1428565 h 0.14285648 a 0.07149255,0.07149255 0 0 1 0.0714281,0.0714281 V 0.85713906 H 0.42856954 A 0.14302079,0.14302079 0 0 1 0.28571302,0.71428254 Z"
     id="path4"
     style="fill:#e1e1e1;fill-opacity:1;stroke-width:0.0714283" />
</svg>
