<?xml version="1.0" encoding="UTF-8" standalone="no"?>
<!-- Created with Inkscape (http://www.inkscape.org/) -->

<svg
   width="157.87091mm"
   height="132.29167mm"
   viewBox="0 0 157.87092 132.29167"
   version="1.1"
   id="svg1"
   xml:space="preserve"
   inkscape:version="1.2 (dc2aeda, 2022-05-15)"
   sodipodi:docname="silos.svg"
   xmlns:inkscape="http://www.inkscape.org/namespaces/inkscape"
   xmlns:sodipodi="http://sodipodi.sourceforge.net/DTD/sodipodi-0.dtd"
   xmlns="http://www.w3.org/2000/svg"
   xmlns:svg="http://www.w3.org/2000/svg"><sodipodi:namedview
     id="namedview1"
     pagecolor="#2b2b2b"
     bordercolor="#999999"
     borderopacity="1"
     inkscape:showpageshadow="0"
     inkscape:pageopacity="0"
     inkscape:pagecheckerboard="0"
     inkscape:deskcolor="#d1d1d1"
     inkscape:document-units="mm"
     inkscape:zoom="1.4727721"
     inkscape:cx="100.83026"
     inkscape:cy="262.09079"
     inkscape:window-width="1920"
     inkscape:window-height="1052"
     inkscape:window-x="1512"
     inkscape:window-y="28"
     inkscape:window-maximized="0"
     inkscape:current-layer="layer1"
     showgrid="false" /><defs
     id="defs1"><style
       id="style1">.cls-1{fill:none;}</style></defs><g
     inkscape:label="Calque 1"
     inkscape:groupmode="layer"
     id="layer1"
     transform="translate(-48.661316,-35.151463)"><g
       id="g1"
       transform="matrix(0.13053914,0,0,0.13053914,52.54717,88.400422)"
       inkscape:label="autonomous-car"><circle
         cx="52"
         cy="156"
         r="16"
         fill="none"
         stroke="#220728"
         stroke-miterlimit="10"
         stroke-width="8"
         id="circle1"
         style="stroke:#5801ff;stroke-opacity:1" /><circle
         cx="158"
         cy="156"
         r="16"
         fill="none"
         stroke="#220728"
         stroke-miterlimit="10"
         stroke-width="8"
         id="circle2"
         style="stroke:#5801ff;stroke-opacity:1" /><path
         d="M 34,157 H 16 A 10,10 0 0 1 6,147 v -14 a 4,4 0 0 1 4,-4 h 16"
         fill="none"
         stroke="#220728"
         stroke-miterlimit="10"
         stroke-width="8"
         id="path2"
         style="stroke:#5801ff;stroke-opacity:1" /><line
         x1="144"
         y1="157"
         x2="64"
         y2="157"
         fill="none"
         stroke="#220728"
         stroke-miterlimit="10"
         stroke-width="8"
         id="line2"
         style="stroke:#5801ff;stroke-opacity:1" /><path
         d="m 171,157 h 24 v -16 l -4.67,-4 v -9 c -5.68,-2 -47,-13.33 -47,-13.33 L 116,97 H 60 L 28,116 H 11 a 2,2 0 0 0 -2,2 v 13"
         fill="none"
         stroke="#220728"
         stroke-miterlimit="10"
         stroke-width="8"
         id="path3"
         style="stroke:#5801ff;stroke-opacity:1" /><path
         d="m 62.13,56.13 a 38,38 0 0 1 53.74,0"
         fill="none"
         stroke="#ffc548"
         stroke-miterlimit="10"
         stroke-width="8"
         id="path4"
         style="stroke:#ffd600;stroke-opacity:1" /><path
         d="m 48,40 a 58,58 0 0 1 82,0"
         fill="none"
         stroke="#ffc548"
         stroke-miterlimit="10"
         stroke-width="8"
         id="path5"
         style="stroke:#ffd600;stroke-opacity:1" /><path
         d="m 76.27,72.27 a 18,18 0 0 1 25.46,0"
         fill="none"
         stroke="#ffc548"
         stroke-miterlimit="10"
         stroke-width="8"
         id="path6"
         style="stroke:#ffd600;stroke-opacity:1" /></g><g
       style="fill:#000000"
       id="g2"
       transform="matrix(1.0245206,0,0,1.0245206,146.08504,39.86234)"
       inkscape:label="connected-device"><path
         d="m 6.34999,6.34893 -1.42,-1.42 C 6.80527,3.05422 9.34835,2.00107 12,2.00107 c 2.6516,0 5.1947,1.05315 7.07,2.92786 l -1.42,1.42 C 16.1503,4.85283 14.1184,4.01263 12,4.01263 c -2.11838,0 -4.15028,0.8402 -5.65001,2.3363 z"
         id="path1"
         style="fill:#ffd600;fill-opacity:1" /><path
         d="m 9.17001,9.16893 -1.41,-1.41 C 8.88501,6.63533 10.41,6.00421 12,6.00421 c 1.59,0 3.115,0.63112 4.24,1.75472 l -1.42,1.42 C 14.0733,8.42776 13.0592,8.0034 12,7.99893 11.4746,7.99852 10.9542,8.10163 10.4686,8.30239 9.98303,8.50314 9.54176,8.79759 9.17001,9.16893 Z"
         id="path2-3"
         style="fill:#ffd600;fill-opacity:1" /><path
         fill-rule="evenodd"
         clip-rule="evenodd"
         d="m 18,10.9989 h -4 c 0,0.5305 -0.2107,1.0392 -0.5858,1.4142 -0.3751,0.3751 -0.8838,0.5858 -1.4142,0.5858 -0.5304,0 -1.0391,-0.2107 -1.4142,-0.5858 C 10.2107,12.0381 10,11.5294 10,10.9989 H 6 c -0.53043,0 -1.03914,0.2107 -1.41421,0.5858 C 4.21071,11.9598 4,12.4685 4,12.9989 v 9 h 16 v -9 C 20,12.4685 19.7893,11.9598 19.4142,11.5847 19.0391,11.2096 18.5304,10.9989 18,10.9989 Z m -12,7 v -3 h 12 v 3 z"
         id="path3-6"
         style="fill:#5801ff;fill-opacity:1" /><path
         d="m 13,10.9989 c 0,0.5523 -0.4477,1 -1,1 -0.5523,0 -1,-0.4477 -1,-1 0,-0.5523 0.4477,-0.99997 1,-0.99997 0.5523,0 1,0.44767 1,0.99997 z"
         id="path4-7"
         style="fill:#ffd600;fill-opacity:1" /></g><g
       style="fill:#000000"
       id="g3"
       transform="matrix(0.04130683,0,0,0.04130683,83.31657,140.19395)"
       inkscape:label="drone"><path
         d="m 312,432 h -56 v -32 h 40 c 17.648,0 32,-14.352 32,-32 0,-17.648 -14.352,-32 -32,-32 h -96 c -8.824,0 -16,-7.176 -16,-16 0,-8.824 7.176,-16 16,-16 h 56 v -57.136 c 13.768,-3.576 24,-15.992 24,-30.864 0,-17.648 -14.352,-32 -32,-32 -17.648,0 -32,14.352 -32,32 0,14.872 10.232,27.288 24,30.864 V 288 h -40 c -17.648,0 -32,14.352 -32,32 0,17.648 14.352,32 32,32 h 96 c 8.824,0 16,7.176 16,16 0,8.824 -7.176,16 -16,16 h -56 v 48 h -56 c -13.232,0 -24,10.768 -24,24 v 40 h 176 v -40 c 0,-13.232 -10.768,-24 -24,-24 z M 232,216 c 0,-8.824 7.176,-16 16,-16 8.824,0 16,7.176 16,16 0,8.824 -7.176,16 -16,16 -8.824,0 -16,-7.176 -16,-16 z m 88,264 h -16 v -16 h -16 v 16 h -16 v -16 h -16 v 16 h -16 v -16 h -16 v 16 h -16 v -16 h -16 v 16 h -16 v -24 c 0,-4.416 3.584,-8 8,-8 h 128 c 4.416,0 8,3.584 8,8 z"
         id="path1-5"
         style="fill:#e1e1e1;fill-opacity:1" /><path
         d="m 328,190.856 c -13.232,0 -24,10.768 -24,24 0,13.232 10.768,24 24,24 13.232,0 24,-10.768 24,-24 0,-13.232 -10.768,-24 -24,-24 z m 0,32 c -4.416,0 -8,-3.584 -8,-8 0,-4.416 3.584,-8 8,-8 4.416,0 8,3.584 8,8 0,4.416 -3.584,8 -8,8 z"
         id="path2-35"
         style="fill:#e1e1e1;fill-opacity:1" /><path
         d="m 367.6,175.264 c 21.832,21.832 21.832,57.36 0,79.192 l 11.312,11.312 c 28.072,-28.072 28.072,-73.752 0,-101.824 z"
         id="path3-62"
         style="fill:#ffd600;fill-opacity:1" /><path
         d="m 412.848,130.008 -11.312,11.312 c 40.552,40.552 40.552,106.528 0,147.088 l 11.312,11.312 c 46.792,-46.792 46.792,-122.92 0,-169.712 z"
         id="path4-9"
         style="fill:#ffd600;fill-opacity:1" /><path
         d="m 435.488,107.384 c 59.256,59.264 59.256,155.696 0,214.96 l 11.312,11.312 c 65.496,-65.504 65.496,-172.088 0,-237.584 z"
         id="path5-1"
         style="fill:#ffd600;fill-opacity:1" /><path
         d="m 320,0 v 16 h 80 V 32 H 384 V 48 H 336 V 32 H 160 V 48 H 112 V 32 H 96 V 16 h 80 V 0 H 0 V 16 H 80 V 32 H 64 v 24 c 0,13.232 10.768,24 24,24 10.416,0 19.216,-6.712 22.528,-16 H 160 V 83.312 L 180.688,104 H 315.312 L 336,83.312 V 64 h 49.472 c 3.312,9.288 12.112,16 22.528,16 13.232,0 24,-10.768 24,-24 V 32 H 416 V 16 h 80 V 0 Z M 96,56 c 0,4.416 -3.584,8 -8,8 -4.416,0 -8,-3.584 -8,-8 V 48 H 96 Z M 320,76.688 308.688,88 H 187.312 L 176,76.688 V 48 h 16 v 16 h 16 V 48 h 16 v 16 h 16 V 48 h 16 v 16 h 16 V 48 h 16 v 16 h 16 V 48 h 16 z M 416,56 c 0,4.416 -3.584,8 -8,8 -4.416,0 -8,-3.584 -8,-8 v -8 h 16 z"
         id="path6-2"
         style="fill:#5801ff;fill-opacity:1" /><path
         d="m 192,214.856 c 0,-13.232 -10.768,-24 -24,-24 -13.232,0 -24,10.768 -24,24 0,13.232 10.768,24 24,24 13.232,0 24,-10.76 24,-24 z m -32,0 c 0,-4.416 3.584,-8 8,-8 4.416,0 8,3.584 8,8 0,4.416 -3.584,8 -8,8 -4.416,0 -8,-3.584 -8,-8 z"
         id="path7"
         style="fill:#e1e1e1;fill-opacity:1" /><path
         d="m 117.088,163.952 c -28.072,28.072 -28.072,73.752 0,101.824 L 128.4,254.464 c -21.832,-21.832 -21.832,-57.36 0,-79.192 z"
         id="path8"
         style="fill:#ffd600;fill-opacity:1" /><path
         d="M 83.152,130.008 C 36.36,176.8 36.36,252.928 83.152,299.72 L 94.464,288.408 C 53.912,247.856 53.912,181.88 94.464,141.32 Z"
         id="path9"
         style="fill:#ffd600;fill-opacity:1" /><path
         d="M 60.512,107.384 49.2,96.072 c -65.496,65.504 -65.496,172.088 0,237.584 L 60.512,322.344 C 1.256,263.08 1.256,166.648 60.512,107.384 Z"
         id="path10"
         style="fill:#ffd600;fill-opacity:1" /></g><g
       style="fill:#000000"
       id="g4"
       transform="matrix(0.64025587,0,0,0.64025587,179.28294,90.08129)"
       inkscape:label="connected-chip"><path
         d="m 30,19 h -4 v -4 h -2 v 9 H 8 V 8 l 9,-9e-4 V 6 H 13 V 2 H 11 V 6 H 8 A 2.002,2.002 0 0 0 6,8 v 3 H 2 v 2 h 4 v 6 H 2 v 2 h 4 v 3 a 2.0023,2.0023 0 0 0 2,2 h 3 v 4 h 2 v -4 h 6 v 4 h 2 v -4 h 3 a 2.0027,2.0027 0 0 0 2,-2 v -3 h 4 z"
         id="path1-0"
         style="fill:#e1e1e1;fill-opacity:1" /><path
         d="M 21,21 H 11 V 11 h 10 z m -8,-2 h 6 v -6 h -6 z"
         id="path2-9"
         style="fill:#5801ff;fill-opacity:1" /><path
         d="M 31,13 H 29 A 10.0117,10.0117 0 0 0 19,3 V 1 a 12.0131,12.0131 0 0 1 12,12 z"
         id="path3-3"
         style="fill:#ffd600;fill-opacity:1" /><path
         d="M 26,13 H 24 A 5.0059,5.0059 0 0 0 19,8 V 6 a 7.0085,7.0085 0 0 1 7,7 z"
         id="path4-6"
         style="fill:#ffd600;fill-opacity:1" /><rect
         id="_Transparent_Rectangle_"
         data-name="&lt;Transparent Rectangle&gt;"
         class="cls-1"
         width="32"
         height="32"
         x="0"
         y="0" /></g><circle
       style="fill:none;fill-opacity:1;fill-rule:evenodd;stroke:#e1e1e1;stroke-width:0.990592;stroke-miterlimit:5;stroke-dasharray:7.92473, 1.98117, 0.990592, 1.98117;stroke-dashoffset:0;stroke-opacity:1;paint-order:stroke fill markers"
       id="path14-9-0-6"
       cx="189.52707"
       cy="100.32538"
       r="16.509859" /><circle
       style="fill:none;fill-opacity:1;fill-rule:evenodd;stroke:#e1e1e1;stroke-width:0.990592;stroke-miterlimit:5;stroke-dasharray:7.92473, 1.98117, 0.990592, 1.98117;stroke-dashoffset:0;stroke-opacity:1;paint-order:stroke fill markers"
       id="path14"
       cx="127.55309"
       cy="101.31336"
       r="16.509859"
       inkscape:label="path14" /><circle
       style="fill:none;fill-opacity:1;fill-rule:evenodd;stroke:#e1e1e1;stroke-width:0.990592;stroke-miterlimit:5;stroke-dasharray:7.92473, 1.98117, 0.990592, 1.98117;stroke-dashoffset:0;stroke-opacity:1;paint-order:stroke fill markers"
       id="path14-9"
       cx="158.37933"
       cy="52.15657"
       r="16.509859" /><circle
       style="fill:none;fill-opacity:1;fill-rule:evenodd;stroke:#e1e1e1;stroke-width:0.990592;stroke-miterlimit:5;stroke-dasharray:7.92473, 1.98117, 0.990592, 1.98117;stroke-dashoffset:0;stroke-opacity:1;paint-order:stroke fill markers"
       id="path14-9-2-5-6"
       cx="65.666389"
       cy="101.13122"
       r="16.509859" /><circle
       style="fill:none;fill-opacity:1;fill-rule:evenodd;stroke:#e1e1e1;stroke-width:0.990592;stroke-miterlimit:5;stroke-dasharray:7.92473, 1.98117, 0.990592, 1.98117;stroke-dashoffset:0;stroke-opacity:1;paint-order:stroke fill markers"
       id="path14-9-2-5-6-5"
       cx="93.560707"
       cy="150.43805"
       r="16.509859" /><path
       style="fill:none;stroke:#e1e1e1;stroke-width:1.22929;stroke-linecap:butt;stroke-linejoin:miter;stroke-dasharray:none;stroke-dashoffset:0;stroke-opacity:1"
       d="M 86.601634,101.31335 H 106.61777"
       id="path31-2" /><path
       style="fill:none;stroke:#e1e1e1;stroke-width:1.22929;stroke-linecap:butt;stroke-linejoin:miter;stroke-dasharray:none;stroke-dashoffset:0;stroke-opacity:1"
       d="m 148.53197,101.31335 h 20.01616"
       id="path31-2-7" /><path
       style="fill:none;stroke:#e1e1e1;stroke-width:1.22929;stroke-linecap:butt;stroke-linejoin:miter;stroke-dasharray:none;stroke-dashoffset:0;stroke-opacity:1"
       d="m 116.21981,117.62691 -11.3259,16.49759"
       id="path32-3-4-0-7" /><path
       style="fill:none;stroke:#e1e1e1;stroke-width:1.22929;stroke-linecap:butt;stroke-linejoin:miter;stroke-dasharray:none;stroke-dashoffset:0;stroke-opacity:1"
       d="M 148.62911,68.486165 137.30324,84.983764"
       id="path32-3-4-0-7-0" /><path
       d="m 125.47702,91.212266 c -0.1565,0.08142 -0.2598,0.21911 -0.44134,0.585334 -0.12834,0.256675 -0.21912,0.394404 -0.35372,0.535258 -0.10332,0.10332 -0.20659,0.231631 -0.23475,0.287979 -0.0689,0.134593 -0.0657,0.528986 0,0.698008 0.15963,0.400665 -0.13773,0.929651 -0.75437,1.339712 -0.49456,0.331794 -0.81071,0.469512 -1.54941,0.679236 -0.0939,0.02817 -0.21286,0.06569 -0.26608,0.08451 -0.0501,0.01563 -0.14397,0.0439 -0.20345,0.05634 -0.0594,0.01254 -0.15024,0.04071 -0.20346,0.05942 -0.0501,0.01882 -0.24102,0.08142 -0.42256,0.14399 -0.60725,0.200327 -0.66673,0.22537 -1.31153,0.541507 -0.36623,0.178419 -0.69176,0.378746 -1.02043,0.62916 -0.54465,0.413186 -1.2051,1.114331 -1.53377,1.630805 -0.20972,0.328659 -0.26293,0.538383 -0.15651,0.626025 0.0594,0.05006 0.20659,-0.0096 0.39127,-0.153376 0.15651,-0.125207 0.54778,-0.338056 0.76689,-0.419436 0.66046,-0.241018 1.41482,-0.341181 2.10345,-0.275458 0.51021,0.04698 1.11746,0.194077 1.5056,0.366235 0.0532,0.02509 0.14711,0.06261 0.20346,0.0877 0.12833,0.05634 0.36309,0.169022 0.44448,0.215974 0.0626,0.03763 0.50082,0.300501 0.62602,0.375621 0.1346,0.0845 0.57595,0.41944 0.78254,0.59473 0.35684,0.30987 0.69802,0.68863 0.86392,0.96094 0.0908,0.15025 0.12833,0.38814 0.0908,0.53526 -0.0689,0.24727 -0.20972,0.37874 -0.54777,0.50395 -0.42884,0.15963 -0.46327,0.1659 -0.60725,0.11894 -0.32241,-0.10642 -0.49143,0.30049 -0.19094,0.45387 0.0845,0.0439 0.10332,0.0439 0.18468,0.003 0.0501,-0.0282 0.097,-0.0689 0.10643,-0.0908 0.0188,-0.0501 0.27544,-0.14711 0.38187,-0.14711 0.0971,0 0.46014,-0.1346 0.6229,-0.23163 0.16277,-0.0939 0.35684,-0.30989 0.385,-0.42571 0.01,-0.0438 0.0438,-0.13146 0.0782,-0.19719 0.072,-0.14399 0.16902,-0.15338 0.31301,-0.0251 0.10013,0.0877 0.10332,0.097 0.10013,0.33806 0,0.26293 -0.0314,0.34118 -0.21597,0.58847 -0.24103,0.31927 -0.6949,0.59472 -1.23641,0.74497 -0.4163,0.11581 -0.52586,0.14399 -0.69802,0.17842 -0.17529,0.0344 -0.18468,0.0344 -0.29423,-0.0501 -0.0876,-0.0657 -0.14713,-0.0845 -0.28172,-0.0876 -0.15964,0 -0.18154,0.006 -0.27857,0.11581 -0.0908,0.097 -0.10644,0.13773 -0.10644,0.27232 0,0.12834 0.0156,0.17216 0.0939,0.26294 0.17215,0.19406 0.4163,0.18468 0.64167,-0.0314 0.10643,-0.10332 0.1659,-0.13773 0.24102,-0.13773 0.0533,0 0.18468,-0.0219 0.28798,-0.0501 0.10642,-0.0251 0.27545,-0.0689 0.37875,-0.097 0.40066,-0.10013 0.79818,-0.26919 1.08928,-0.46013 0.34119,-0.21911 0.65421,-0.61038 0.75437,-0.93591 0.0314,-0.10013 0.16276,-0.0626 0.27545,0.0782 l 0.10332,0.13147 v 0.35057 c -0.003,0.20346 -0.0156,0.36936 -0.0376,0.39127 -0.0188,0.0251 -0.0438,0.0782 -0.0563,0.12208 -0.047,0.15024 -0.30989,0.50708 -0.53212,0.71366 -0.20972,0.19408 -0.86392,0.601 -0.97035,0.601 -0.0219,0 -0.0563,0.0219 -0.0782,0.047 -0.0219,0.0251 -0.0563,0.047 -0.0751,0.047 -0.0657,0 -0.47578,0.28798 -0.6542,0.46326 -0.20973,0.20347 -0.36936,0.43196 -0.51022,0.7262 -0.14712,0.30362 -0.16589,0.38501 -0.21911,0.82949 -0.0657,0.57594 -0.003,1.16753 0.15964,1.53377 0.0782,0.17528 0.0845,0.23789 0.0314,0.40691 -0.0469,0.14399 -0.0501,0.18468 -0.0156,0.27232 0.0939,0.24103 0.30363,0.34746 0.54152,0.28172 0.4163,-0.11582 0.39439,-0.64168 -0.0344,-0.81696 -0.19094,-0.0814 -0.37248,-0.70742 -0.3631,-1.27085 0.0126,-0.69801 0.22225,-1.23953 0.63542,-1.64332 0.22537,-0.21911 0.44135,-0.3631 0.92026,-0.60412 0.90461,-0.46013 1.21763,-0.77627 1.59011,-1.5995 0.0594,-0.12833 0.072,-0.14398 0.10013,-0.097 0.0594,0.10956 -0.0313,1.03609 -0.12833,1.26772 -0.0156,0.0438 -0.0626,0.1565 -0.10013,0.2504 -0.0407,0.094 -0.11895,0.24415 -0.17528,0.33493 -0.21912,0.34432 -0.76063,0.80758 -1.16756,0.99225 -0.12519,0.0595 -0.16588,0.0626 -0.21597,0.0125 -0.0219,-0.0219 -0.12521,-0.0407 -0.24103,-0.0407 -0.1878,0 -0.20971,0.006 -0.30361,0.10332 -0.0939,0.0908 -0.10332,0.11581 -0.10332,0.29737 0,0.14711 0.0156,0.21598 0.0626,0.27858 0.15024,0.20033 0.36935,0.23789 0.56656,0.0939 0.15337,-0.11269 0.1972,-0.1659 0.2285,-0.27232 0.0156,-0.0626 0.0782,-0.11581 0.25354,-0.20973 0.2911,-0.1565 0.71993,-0.47264 0.91087,-0.67297 0.16276,-0.17216 0.34119,-0.39753 0.34119,-0.43509 0,-0.0125 0.0188,-0.047 0.0407,-0.072 0.097,-0.11268 0.33492,-0.78879 0.33492,-0.94531 0,-0.0407 0.0125,-0.0939 0.0282,-0.11894 0.0219,-0.0344 0.0344,-0.0125 0.0501,0.0782 0.0344,0.18781 0.0689,0.23477 0.0939,0.12208 0.01,-0.0533 0.0438,-0.18468 0.072,-0.29736 0.0469,-0.17842 0.0533,-0.39753 0.0533,-1.81549 0,-1.57445 0,-1.61514 -0.0689,-1.79982 -0.0814,-0.2285 -0.12207,-0.30675 -0.24414,-0.47578 -0.16591,-0.23163 -0.51647,-0.410052 -0.6542,-0.331796 -0.0251,0.01254 -0.14712,0.159636 -0.2692,0.322406 -0.19407,0.2598 -0.21597,0.30675 -0.20033,0.3944 0.0219,0.11894 -0.0439,0.26293 -0.1565,0.33805 -0.2066,0.13459 -0.48517,-0.0188 -0.4883,-0.26606 0,-0.15964 0.14085,-0.30989 0.28798,-0.30989 0.12519,0 0.14085,-0.01 0.27544,-0.1878 0.0594,-0.0782 0.14712,-0.18156 0.19407,-0.231633 0.047,-0.05007 0.0782,-0.103321 0.0689,-0.118946 -0.0188,-0.03136 -0.73871,-0.02817 -0.78253,0.0032 -0.0156,0.0096 -0.0532,0.06888 -0.0845,0.131468 -0.0689,0.131461 -0.25668,0.234761 -0.3631,0.200331 -0.0375,-0.01 -0.10955,-0.0563 -0.15964,-0.10014 -0.0814,-0.0657 -0.0939,-0.100128 -0.0939,-0.225367 0,-0.122071 0.0156,-0.162761 0.0876,-0.231631 0.10332,-0.09705 0.30363,-0.11581 0.4257,-0.03752 0.0626,0.04071 0.12521,0.0438 0.42883,0.01563 0.19719,-0.01881 0.52274,-0.04071 0.72619,-0.05007 0.20034,-0.0096 0.36623,-0.03136 0.36623,-0.04379 0,-0.01563 -0.0533,-0.05942 -0.11582,-0.09705 -0.0657,-0.04071 -0.1252,-0.08142 -0.13459,-0.09078 -0.0188,-0.0219 -0.18468,-0.128333 -0.2692,-0.175284 -0.0375,-0.0219 -0.13146,-0.03136 -0.20971,-0.0219 -0.10013,0.01254 -0.16277,0 -0.22224,-0.03752 -0.11582,-0.07823 -0.27859,-0.05634 -1.09868,0.140854 -0.16277,0.04071 -0.2285,0.07196 -0.25355,0.125207 -0.0876,0.169023 -0.36936,0.244153 -0.49769,0.131468 -0.18154,-0.159637 -0.18468,-0.334931 -0.006,-0.532122 0.0751,-0.08142 0.30363,-0.09705 0.37249,-0.02817 0.0876,0.08769 0.16902,0.112685 0.27858,0.08451 0.24728,-0.06261 0.42883,-0.103321 0.5603,-0.128333 0.18781,-0.03763 0.31301,-0.09078 0.31301,-0.134603 0,-0.01882 -0.10956,-0.11581 -0.24415,-0.215974 -0.13147,-0.100131 -0.30989,-0.237892 -0.39753,-0.309887 -0.15025,-0.122071 -0.15963,-0.125207 -0.32867,-0.10332 -0.0939,0.0096 -0.23475,0.03763 -0.31301,0.06261 -0.17216,0.05007 -0.40379,0.106425 -0.60099,0.147115 -0.22536,0.04379 -0.36935,0.112685 -0.36935,0.175294 0,0.08451 -0.13147,0.194066 -0.25354,0.212849 -0.15964,0.02509 -0.26606,-0.03136 -0.34119,-0.175294 -0.0626,-0.125207 -0.0626,-0.128332 -0.006,-0.2598 0.047,-0.10955 0.0845,-0.140854 0.18782,-0.175283 0.11581,-0.03763 0.13771,-0.03763 0.26292,0.02509 0.10643,0.05007 0.15651,0.05953 0.22851,0.03444 0.0532,-0.01563 0.17841,-0.04698 0.28171,-0.07196 0.10332,-0.02509 0.25041,-0.06261 0.32865,-0.08451 0.0782,-0.01881 0.20034,-0.04698 0.27546,-0.06261 0.16277,-0.03763 0.19407,-0.05326 0.19407,-0.109549 0,-0.0439 -0.35684,-0.400654 -0.49456,-0.491432 -0.10332,-0.06888 -0.37248,-0.07196 -0.457,-0.0096 -0.097,0.07196 -0.26606,0.05634 -0.38501,-0.03444 -0.0939,-0.07196 -0.10332,-0.09386 -0.10332,-0.237893 0,-0.134593 0.0156,-0.178419 0.0845,-0.250403 0.0689,-0.07196 0.10955,-0.08769 0.23477,-0.08769 0.14397,0 0.1565,0.0064 0.2504,0.140854 0.0814,0.11581 0.13147,0.15024 0.25667,0.187805 0.0845,0.02509 0.17842,0.04698 0.20659,0.04698 0.0251,0 0.20971,0.162762 0.40692,0.359964 0.1972,0.197202 0.45074,0.428833 0.56342,0.513349 0.11269,0.08759 0.27546,0.215974 0.35998,0.284844 0.0876,0.06888 0.20658,0.159636 0.26918,0.203452 l 0.11269,0.07823 0.14399,-0.06261 c 0.14085,-0.06261 0.15337,-0.06261 0.25666,-0.01254 0.14712,0.06888 0.23477,0.18468 0.23477,0.313023 0,0.08142 0.0251,0.118936 0.11894,0.19093 0.13147,0.100132 0.21911,0.156512 0.28797,0.187816 0.0251,0.0096 0.097,0.05953 0.15964,0.10955 0.0626,0.04698 0.12521,0.08769 0.13773,0.08769 0.0125,0 0.0563,0.02817 0.10013,0.06261 0.0438,0.03444 0.0908,0.05325 0.10642,0.0439 0.0501,-0.03136 0.0282,-0.428833 -0.0344,-0.62916 -0.10013,-0.322398 -0.24415,-0.522736 -0.53525,-0.748106 -0.17216,-0.131457 -0.20973,-0.147115 -0.42884,-0.172158 -0.16589,-0.01881 -0.26606,-0.04688 -0.33493,-0.09705 -0.0845,-0.06261 -0.36935,-0.363099 -0.88896,-0.939047 -0.12519,-0.137729 -0.14711,-0.15024 -0.28483,-0.15024 -0.11268,0 -0.1659,-0.01882 -0.23163,-0.07823 -0.12834,-0.118946 -0.15338,-0.215984 -0.0908,-0.356838 0.10013,-0.231631 0.31302,-0.284843 0.49457,-0.125207 0.0908,0.08142 0.10955,0.118946 0.10955,0.222246 0,0.140853 0.0125,0.159636 0.43822,0.619763 0.61037,0.660464 0.64168,0.685508 0.75123,0.626035 0.0563,-0.03136 0.0626,-0.06569 0.0626,-0.397529 0,-0.356838 0,-0.363099 -0.0939,-0.466398 -0.12208,-0.140854 -0.14713,-0.244143 -0.0845,-0.372485 l 0.0501,-0.103321 -0.32241,-0.313012 c -0.39439,-0.381871 -0.45699,-0.425697 -0.58846,-0.403779 -0.12521,0.01882 -0.32867,-0.05634 -0.36936,-0.137729 -0.0563,-0.10332 -0.0344,-0.319273 0.0407,-0.41005 0.0814,-0.100132 0.25354,-0.137729 0.36623,-0.08142 0.10013,0.05634 0.2191,0.231631 0.2191,0.334919 0,0.04698 0.0314,0.10956 0.072,0.14399 0.0376,0.03136 0.21911,0.197202 0.40379,0.366224 0.29424,0.269197 0.34745,0.306762 0.44761,0.306762 0.0877,0 0.1346,-0.0219 0.20659,-0.100131 l 0.0908,-0.100132 v -0.475784 -0.472649 l -0.0939,-0.08142 c -0.23789,-0.212849 -0.11581,-0.585334 0.19406,-0.585334 0.28798,0 0.44136,0.372485 0.23477,0.563426 -0.0657,0.06569 -0.0689,0.08451 -0.0594,0.566551 l 0.01,0.500828 -0.14086,0.19093 c -0.13146,0.175294 -0.13772,0.194077 -0.097,0.256675 0.10332,0.14399 0.0156,0.391268 -0.15964,0.457002 -0.072,0.02817 -0.0751,0.03763 -0.0751,0.422561 v 0.391279 l 0.19719,0.147115 c 0.10642,0.08142 0.31615,0.272321 0.4664,0.425697 0.15337,0.15024 0.28796,0.266061 0.30675,0.256675 0.0438,-0.02817 0.0407,-1.039211 -0.003,-1.064254 -0.0594,-0.04071 -0.21599,-0.275458 -0.21599,-0.32867 0,-0.03136 0.0563,-0.131468 0.12521,-0.222235 l 0.12521,-0.165897 v -0.33492 -0.331795 l -0.10955,-0.137728 c -0.11895,-0.150251 -0.13459,-0.234757 -0.0626,-0.372485 0.10013,-0.190941 0.31615,-0.244153 0.48517,-0.118946 0.18156,0.131467 0.18782,0.353702 0.0156,0.513339 -0.0752,0.06888 -0.0782,0.09078 -0.0782,0.435093 v 0.366225 l 0.10955,0.128332 c 0.15651,0.181544 0.14399,0.347452 -0.0376,0.503953 -0.0782,0.06569 -0.0782,0.07196 -0.0751,0.597855 0,0.322409 0.0125,0.535258 0.0314,0.541519 0.0188,0.0064 0.11268,-0.07515 0.20971,-0.181545 0.10013,-0.10332 0.28798,-0.269196 0.41631,-0.366234 0.3631,-0.269186 0.34745,-0.241018 0.34745,-0.657329 v -0.359963 l -0.14399,-0.140854 -0.14712,-0.140865 0.0188,-0.181544 c 0.0188,-0.175283 0.0156,-0.187805 -0.0877,-0.313012 l -0.10955,-0.131468 v -0.557155 c 0,-0.438229 -0.01,-0.566561 -0.0438,-0.585344 -0.0626,-0.03752 -0.11269,-0.150251 -0.11269,-0.256675 0,-0.06261 0.0344,-0.128332 0.10642,-0.203452 0.13773,-0.147115 0.28485,-0.153375 0.43196,-0.0219 0.0908,0.08142 0.10332,0.10956 0.10332,0.250414 0,0.14399 -0.01,0.169033 -0.10013,0.241028 l -0.10332,0.07823 v 0.491432 c 0,0.482045 0,0.494567 0.0782,0.579083 0.0626,0.06569 0.10954,0.08451 0.21284,0.08451 0.12521,0 0.15025,-0.01881 0.53213,-0.385007 0.35996,-0.344316 0.39752,-0.391278 0.40065,-0.491442 0,-0.06888 0.0282,-0.143979 0.0752,-0.200327 0.0626,-0.07823 0.097,-0.09386 0.23476,-0.09386 0.14399,-0.0032 0.17216,0.0064 0.25355,0.100132 0.15024,0.169033 0.10955,0.403789 -0.0877,0.503953 -0.0375,0.01881 -0.13773,0.03444 -0.22224,0.03444 -0.15338,0 -0.15338,0 -0.52586,0.356838 l -0.36935,0.353703 0.0407,0.125207 c 0.0501,0.15025 0.0282,0.228506 -0.0939,0.36936 l -0.0939,0.10332 0.01,0.372485 0.01,0.36936 0.12521,0.0096 c 0.11582,0.0064 0.13459,-0.0032 0.2598,-0.156511 0.0751,-0.09078 0.26293,-0.300491 0.41945,-0.469524 0.39125,-0.422561 0.43195,-0.482034 0.43195,-0.638546 0,-0.109549 0.0156,-0.147114 0.097,-0.212848 0.13147,-0.112686 0.27546,-0.10955 0.39753,0.0064 0.24415,0.228507 0.11269,0.569687 -0.21285,0.569687 -0.16277,0 -0.1972,0.02817 -0.74184,0.657329 -0.1565,0.181544 -0.31614,0.359963 -0.35684,0.397529 -0.0845,0.07515 -0.27232,0.134593 -0.43196,0.134593 -0.15964,0 -0.36935,0.118946 -0.5822,0.328669 -0.18781,0.18467 -0.26919,0.319273 -0.36936,0.626024 -0.0563,0.159637 -0.072,0.563427 -0.0282,0.591595 0.0156,0.0096 0.12835,-0.05326 0.25355,-0.140854 0.12521,-0.08451 0.23163,-0.153375 0.2379,-0.153375 0.006,0 0.0845,-0.05007 0.17528,-0.10956 0.18781,-0.122072 0.24415,-0.203452 0.24728,-0.350567 0,-0.07515 0.0251,-0.118957 0.10332,-0.175294 0.15025,-0.112685 0.19719,-0.118946 0.35996,-0.05634 0.0908,0.03444 0.17216,0.05006 0.20973,0.03444 0.0344,-0.01254 0.20345,-0.140854 0.37561,-0.284854 0.17528,-0.143979 0.38188,-0.316138 0.46639,-0.384997 0.0814,-0.06569 0.2911,-0.256674 0.46326,-0.425697 0.30362,-0.291104 0.3224,-0.303626 0.51647,-0.344316 0.14712,-0.02817 0.20659,-0.05634 0.23163,-0.106435 0.0845,-0.162762 0.19094,-0.237882 0.33493,-0.237882 0.11269,0 0.15337,0.01563 0.2285,0.09705 0.20346,0.215984 0.0563,0.560301 -0.24102,0.560301 -0.0782,0 -0.14712,-0.01882 -0.16903,-0.04698 -0.0282,-0.03125 -0.097,-0.04698 -0.22537,-0.04698 h -0.18781 l -0.25667,0.241027 c -0.13772,0.134593 -0.26293,0.256665 -0.27545,0.275447 -0.0376,0.05007 0.0344,0.103321 0.17216,0.125207 0.072,0.01254 0.19406,0.04071 0.27232,0.06261 0.0782,0.02509 0.22537,0.06569 0.32866,0.09386 0.10332,0.02817 0.22851,0.06261 0.27858,0.07824 0.0689,0.0219 0.11895,0.01254 0.20973,-0.03136 0.14399,-0.07515 0.21911,-0.07823 0.34431,-0.01254 0.13146,0.06569 0.20033,0.234767 0.15338,0.372485 -0.047,0.137729 -0.12833,0.206599 -0.27858,0.225381 -0.15652,0.0219 -0.27233,-0.0439 -0.3318,-0.190941 -0.0438,-0.106424 -0.0782,-0.118946 -0.59473,-0.256675 -0.0845,-0.0219 -0.23476,-0.06261 -0.32866,-0.08759 -0.0939,-0.02509 -0.25041,-0.05634 -0.34432,-0.06569 l -0.17215,-0.01882 -0.28172,0.212849 c -0.41944,0.316148 -0.51647,0.397528 -0.51647,0.435094 0,0.04071 0.46639,0.172158 0.83888,0.237881 0.14399,0.0219 0.18154,0.01882 0.27232,-0.03752 0.20346,-0.125207 0.4257,-0.04698 0.51647,0.17842 0.0782,0.200326 -0.10013,0.4163 -0.34118,0.4163 -0.10013,0 -0.13773,-0.01881 -0.20346,-0.09705 -0.0439,-0.05325 -0.0814,-0.106424 -0.0814,-0.122071 0,-0.04698 -0.5603,-0.190941 -0.99226,-0.250414 -0.20347,-0.02817 -0.24416,-0.02509 -0.3631,0.02817 -0.11581,0.05325 -0.1565,0.05634 -0.24728,0.02817 -0.10642,-0.03136 -0.12521,-0.02509 -0.41318,0.165898 -0.16589,0.10956 -0.2911,0.206588 -0.27545,0.219109 0.0125,0.01254 0.30988,0.03763 0.66359,0.05953 0.35371,0.01882 0.66672,0.04071 0.69802,0.05007 0.0314,0.0096 0.0908,-0.0032 0.13146,-0.03136 0.0407,-0.02817 0.13773,-0.05007 0.21599,-0.05007 0.11894,0 0.15025,0.01563 0.23475,0.109549 0.15652,0.181555 0.11895,0.391284 -0.0908,0.500824 -0.14398,0.0751 -0.23788,0.0594 -0.35997,-0.0626 -0.0594,-0.0626 -0.10955,-0.137724 -0.10955,-0.169018 0,-0.03136 -0.0219,-0.06888 -0.0501,-0.07823 -0.072,-0.02817 -0.75749,-0.0219 -0.77628,0.0064 -0.006,0.01254 0.0814,0.137729 0.19407,0.281718 0.20345,0.24728 0.21285,0.25667 0.34118,0.25667 0.11269,0 0.14399,0.0156 0.20972,0.10331 0.1346,0.17529 0.10014,0.385 -0.0752,0.47577 -0.23788,0.12208 -0.46951,-0.0314 -0.46951,-0.313 0,-0.10332 -0.0439,-0.2285 -0.0908,-0.26606 -0.0125,-0.01 -0.0877,-0.10332 -0.16903,-0.20972 -0.22536,-0.294226 -0.23162,-0.297362 -0.37874,-0.275454 -0.2285,0.03763 -0.4977,0.259804 -0.63229,0.525864 -0.17529,0.35057 -0.17529,0.34432 -0.20345,1.85304 -0.0156,0.77314 -0.0407,1.49308 -0.0563,1.59636 -0.0751,0.50396 -0.1659,0.84827 -0.32241,1.23641 -0.0188,0.0438 -0.0438,0.11895 -0.0563,0.17216 -0.0156,0.0501 -0.0626,0.19095 -0.10642,0.30988 -0.0563,0.14712 -0.0814,0.27858 -0.0814,0.41319 0,0.21285 -0.0125,0.24727 -0.27544,0.78879 -0.1972,0.41318 -0.28171,0.52273 -0.41318,0.54777 -0.097,0.0219 -0.21911,0.17529 -0.21911,0.28172 0,0.26919 0.3944,0.40065 0.56343,0.18781 0.047,-0.0626 0.0626,-0.12209 0.0563,-0.24416 -0.006,-0.13773 0.006,-0.18154 0.0845,-0.28484 0.14399,-0.18781 0.17842,-0.25042 0.21911,-0.37249 0.006,-0.0251 0.0251,-0.047 0.0407,-0.047 0.0344,0 0.13147,0.2066 0.13147,0.28172 0,0.0344 0.0188,0.11582 0.0439,0.17842 0.0219,0.0657 0.0657,0.20345 0.097,0.30675 0.0282,0.10332 0.072,0.24415 0.0939,0.31301 0.20034,0.6542 0.23477,0.86705 0.23477,1.48057 0,0.39439 -0.0126,0.60098 -0.0501,0.75123 -0.0595,0.23475 -0.22224,0.65419 -0.28484,0.72932 -0.0219,0.0251 -0.0407,0.0594 -0.0407,0.072 0,0.0126 -0.072,0.11582 -0.15651,0.22851 -0.17529,0.23163 -0.19095,0.33179 -0.0626,0.34744 0.1252,0.0156 0.35058,-0.25354 0.57282,-0.68237 0.10332,-0.19719 0.1565,-0.35058 0.24728,-0.6855 0.0533,-0.1972 0.0657,-0.33493 0.0657,-0.81696 0.003,-0.63229 -0.0314,-0.8514 -0.24415,-1.59638 -0.15024,-0.52586 -0.20033,-0.72306 -0.23476,-0.92339 -0.0125,-0.0877 -0.0407,-0.21597 -0.0594,-0.28797 -0.047,-0.17215 -0.0533,-0.69175 -0.006,-0.73872 0.0219,-0.0219 0.0344,-0.0188 0.0438,0.0126 0.006,0.0251 0.0314,0.10642 0.0501,0.18468 0.0219,0.0782 0.0501,0.18467 0.0626,0.23788 0.0439,0.16903 0.28484,0.63542 0.47578,0.92026 0.16277,0.24416 0.18468,0.29423 0.18468,0.42882 0,0.2066 0.097,0.30677 0.30049,0.30677 0.18781,0 0.27233,-0.0877 0.27233,-0.28172 0,-0.1659 -0.0689,-0.25667 -0.23163,-0.30988 -0.0563,-0.0188 -0.12521,-0.072 -0.15024,-0.11582 -0.0282,-0.0438 -0.12522,-0.20346 -0.21286,-0.3537 -0.0908,-0.15025 -0.1659,-0.28484 -0.1659,-0.30363 0,-0.0188 -0.0188,-0.072 -0.0438,-0.11581 -0.0782,-0.15651 -0.14397,-0.32241 -0.14397,-0.36936 0,-0.0282 -0.0188,-0.11581 -0.0439,-0.1972 -0.16589,-0.52899 -0.1972,-0.78254 -0.12833,-0.9766 0.0282,-0.0751 0.0626,-0.19094 0.0751,-0.25354 0.0251,-0.11895 0.0845,-0.21285 0.13147,-0.21285 0.0126,0 0.0314,0.0657 0.0439,0.14712 0.0282,0.23163 0.10955,0.46952 0.25667,0.75749 0.31928,0.61038 0.71993,0.98912 1.48681,1.39291 0.094,0.047 0.13773,0.0939 0.14399,0.14713 0.0282,0.18153 0.26606,0.37248 0.46953,0.37248 0.13459,0 0.35057,-0.17216 0.40065,-0.31928 0.10956,-0.31615 -0.21285,-0.65733 -0.52274,-0.55403 -0.0595,0.0219 -0.11894,0.0501 -0.13459,0.0626 -0.0501,0.0438 -0.15024,0.0282 -0.25354,-0.0375 -0.0501,-0.0314 -0.11582,-0.0689 -0.14085,-0.0814 -0.28485,-0.1346 -0.80446,-0.61039 -1.0173,-0.93279 -0.25354,-0.38813 -0.38814,-0.88895 -0.39127,-1.45552 0,-0.39439 0.0251,-0.45699 0.12208,-0.29735 0.0344,0.0626 0.0657,0.12833 0.0657,0.14398 0,0.13147 0.45074,0.76376 0.69489,0.96721 0.28171,0.24103 0.36935,0.30049 0.8201,0.53212 0.56029,0.29111 0.53525,0.27546 0.74184,0.42884 0.40691,0.30362 0.64481,0.71054 0.78254,1.33656 0.10013,0.457 0.072,0.8201 -0.10332,1.39605 -0.072,0.24415 -0.13146,0.34432 -0.20659,0.34432 -0.0939,0 -0.27232,0.17528 -0.31928,0.30987 -0.097,0.29737 0.17842,0.58221 0.51022,0.51961 0.14085,-0.0282 0.26292,-0.14398 0.30675,-0.29736 0.0314,-0.10642 0.0282,-0.15025 -0.0188,-0.2911 -0.0533,-0.15964 -0.0533,-0.16903 0.01,-0.31928 0.29737,-0.74184 0.30363,-1.5369 0.0156,-2.3163 -0.18155,-0.48831 -0.55717,-0.914 -1.07989,-1.22075 -0.0314,-0.0156 -0.23163,-0.11895 -0.44448,-0.22851 -0.72307,-0.36623 -1.06738,-0.6855 -1.3397,-1.2364 -0.10643,-0.21285 -0.15025,-0.60724 -0.0908,-0.82323 0.0407,-0.15651 0.21911,-0.36936 0.28484,-0.34431 0.0282,0.0125 0.0845,0.10013 0.13147,0.20032 0.14398,0.30989 0.50082,0.69176 0.80444,0.86392 0.26606,0.15025 0.5196,0.2692 0.56657,0.2692 0.0314,0 0.0657,0.0125 0.0782,0.0282 0.01,0.0156 0.0626,0.0376 0.11895,0.0501 0.0532,0.0125 0.17215,0.0407 0.25667,0.0626 0.37875,0.10332 0.54151,0.14085 0.63229,0.14085 0.072,0 0.12834,0.0344 0.23789,0.14712 0.14085,0.14399 0.15025,0.14711 0.33805,0.15025 0.18468,0 0.19407,-0.003 0.29737,-0.12208 0.34118,-0.3944 -0.18155,-0.87957 -0.60412,-0.56029 -0.097,0.0752 -0.10955,0.0752 -0.26606,0.0407 -0.99852,-0.22537 -1.41795,-0.41005 -1.81236,-0.81071 -0.23475,-0.24101 -0.31927,-0.42257 -0.31927,-0.69177 0,-0.17215 0.0125,-0.22849 0.0752,-0.30987 0.0782,-0.10643 0.19719,-0.1565 0.27232,-0.10956 0.0251,0.0156 0.072,0.10013 0.10643,0.18155 0.16276,0.41631 0.4883,0.64794 1.11433,0.78566 0.13459,0.0314 0.23475,0.0752 0.30675,0.14086 0.0657,0.0563 0.14399,0.094 0.1972,0.094 0.11581,0 0.25354,-0.13773 0.25354,-0.24729 0,-0.16276 -0.20659,-0.29735 -0.33806,-0.22537 -0.0876,0.0469 -0.22537,0.0407 -0.31927,-0.0125 -0.0439,-0.0251 -0.10332,-0.0439 -0.13147,-0.047 -0.10955,0 -0.47891,-0.20034 -0.57907,-0.30989 -0.17529,-0.19407 -0.17842,-0.53212 -0.003,-0.82636 0.37249,-0.63541 1.4336,-1.530624 2.3257,-1.959457 0.31301,-0.15025 0.34118,-0.159636 0.79192,-0.328659 0.12207,-0.04698 0.35684,-0.10956 0.6949,-0.187816 0.11268,-0.02817 0.39439,-0.06261 0.63228,-0.08451 0.81697,-0.06569 1.60263,0.06261 2.27875,0.375621 0.12207,0.05634 0.56967,0.316137 0.59472,0.344317 0.01,0.0096 0.0626,0.05325 0.12208,0.09386 0.0845,0.05942 0.11581,0.06569 0.17841,0.03752 0.0626,-0.02817 0.0752,-0.05634 0.0752,-0.159635 0,-0.391268 -0.91399,-1.48369 -1.78417,-2.134747 -0.87644,-0.65735 -1.72784,-1.029835 -3.41185,-1.486837 -0.45074,-0.122061 -0.52274,-0.143979 -0.61977,-0.184669 -0.0563,-0.02509 -0.11581,-0.0439 -0.1346,-0.0439 -0.097,0 -0.71993,-0.372485 -0.95782,-0.572812 -0.51335,-0.435094 -0.70741,-0.867052 -0.55404,-1.230141 0.0314,-0.07515 0.0533,-0.212848 0.0533,-0.356838 0,-0.200327 -0.01,-0.253539 -0.0782,-0.359963 -0.0438,-0.06888 -0.11894,-0.159647 -0.16589,-0.203463 -0.15025,-0.137729 -0.42258,-0.544643 -0.42258,-0.62916 0,-0.07196 -0.2504,-0.425697 -0.3537,-0.500817 -0.15024,-0.106435 -0.20659,-0.112685 -0.31614,-0.02509 -0.097,0.07823 -0.11268,0.2598 -0.0314,0.413175 0.10955,0.206588 0.13145,0.262936 0.18467,0.463263 0.0501,0.197202 0.0501,0.21911 0.003,0.366224 -0.0877,0.262936 -0.30989,0.431958 -0.78567,0.597856 -0.22224,0.07823 -0.5603,0.08759 -0.78567,0.01881 -0.20346,-0.06261 -0.71367,-0.06261 -0.88896,0 -0.17528,0.06261 -0.54464,0.05942 -0.73871,-0.0032 -0.20658,-0.06569 -0.50395,-0.219109 -0.6448,-0.328669 -0.11582,-0.09386 -0.21285,-0.303616 -0.21285,-0.463252 0,-0.112685 0.0752,-0.350578 0.17216,-0.538383 0.10955,-0.222245 0.10955,-0.438219 -0.003,-0.52586 -0.10013,-0.07824 -0.12208,-0.07824 -0.24729,-0.01254 z m -0.59786,1.433604 c 0.0344,0.140854 -0.0626,0.419447 -0.15025,0.422572 -0.0626,0 -0.14399,-0.106424 -0.14399,-0.190941 0,-0.256664 0.24103,-0.447605 0.29424,-0.231631 z m 5.66243,0.03136 c 0.0752,0.159637 0.0689,0.316148 -0.0125,0.363099 -0.0876,0.04698 -0.17842,-0.04071 -0.21598,-0.209712 -0.0407,-0.17842 -0.0125,-0.262936 0.0908,-0.262936 0.0657,0 0.097,0.02509 0.13773,0.109549 z"
       id="path4975"
       style="fill:#adddcf;stroke:none;stroke-width:0.00313014;fill-opacity:1" /></g></svg>
