<?xml version="1.0" encoding="UTF-8" standalone="no"?>
<!-- Created with Inkscape (http://www.inkscape.org/) -->

<svg
   width="157.87091mm"
   height="132.29167mm"
   viewBox="0 0 157.87092 132.29167"
   version="1.1"
   id="svg1"
   xml:space="preserve"
   inkscape:version="1.3.2 (091e20e, 2023-11-25)"
   sodipodi:docname="silos.svg"
   xmlns:inkscape="http://www.inkscape.org/namespaces/inkscape"
   xmlns:sodipodi="http://sodipodi.sourceforge.net/DTD/sodipodi-0.dtd"
   xmlns="http://www.w3.org/2000/svg"
   xmlns:svg="http://www.w3.org/2000/svg"><sodipodi:namedview
     id="namedview1"
     pagecolor="#2b2b2b"
     bordercolor="#999999"
     borderopacity="1"
     inkscape:showpageshadow="0"
     inkscape:pageopacity="0"
     inkscape:pagecheckerboard="0"
     inkscape:deskcolor="#d1d1d1"
     inkscape:document-units="mm"
     inkscape:zoom="1.4727721"
     inkscape:cx="208.45045"
     inkscape:cy="207.43196"
     inkscape:window-width="2560"
     inkscape:window-height="1373"
     inkscape:window-x="0"
     inkscape:window-y="0"
     inkscape:window-maximized="1"
     inkscape:current-layer="layer1" /><defs
     id="defs1"><style
       id="style1">.cls-1{fill:none;}</style></defs><g
     inkscape:label="Calque 1"
     inkscape:groupmode="layer"
     id="layer1"
     transform="translate(-48.661316,-35.151463)"><g
       id="g1"
       transform="matrix(0.13053914,0,0,0.13053914,52.54717,88.400422)"
       inkscape:label="autonomous-car"><circle
         cx="52"
         cy="156"
         r="16"
         fill="none"
         stroke="#220728"
         stroke-miterlimit="10"
         stroke-width="8"
         id="circle1"
         style="stroke:#5801ff;stroke-opacity:1" /><circle
         cx="158"
         cy="156"
         r="16"
         fill="none"
         stroke="#220728"
         stroke-miterlimit="10"
         stroke-width="8"
         id="circle2"
         style="stroke:#5801ff;stroke-opacity:1" /><path
         d="M 34,157 H 16 A 10,10 0 0 1 6,147 v -14 a 4,4 0 0 1 4,-4 h 16"
         fill="none"
         stroke="#220728"
         stroke-miterlimit="10"
         stroke-width="8"
         id="path2"
         style="stroke:#5801ff;stroke-opacity:1" /><line
         x1="144"
         y1="157"
         x2="64"
         y2="157"
         fill="none"
         stroke="#220728"
         stroke-miterlimit="10"
         stroke-width="8"
         id="line2"
         style="stroke:#5801ff;stroke-opacity:1" /><path
         d="m 171,157 h 24 v -16 l -4.67,-4 v -9 c -5.68,-2 -47,-13.33 -47,-13.33 L 116,97 H 60 L 28,116 H 11 a 2,2 0 0 0 -2,2 v 13"
         fill="none"
         stroke="#220728"
         stroke-miterlimit="10"
         stroke-width="8"
         id="path3"
         style="stroke:#5801ff;stroke-opacity:1" /><path
         d="m 62.13,56.13 a 38,38 0 0 1 53.74,0"
         fill="none"
         stroke="#ffc548"
         stroke-miterlimit="10"
         stroke-width="8"
         id="path4"
         style="stroke:#ffd600;stroke-opacity:1" /><path
         d="m 48,40 a 58,58 0 0 1 82,0"
         fill="none"
         stroke="#ffc548"
         stroke-miterlimit="10"
         stroke-width="8"
         id="path5"
         style="stroke:#ffd600;stroke-opacity:1" /><path
         d="m 76.27,72.27 a 18,18 0 0 1 25.46,0"
         fill="none"
         stroke="#ffc548"
         stroke-miterlimit="10"
         stroke-width="8"
         id="path6"
         style="stroke:#ffd600;stroke-opacity:1" /></g><g
       style="fill:#000000"
       id="g2"
       transform="matrix(1.0245206,0,0,1.0245206,146.08504,39.86234)"
       inkscape:label="connected-device"><path
         d="m 6.34999,6.34893 -1.42,-1.42 C 6.80527,3.05422 9.34835,2.00107 12,2.00107 c 2.6516,0 5.1947,1.05315 7.07,2.92786 l -1.42,1.42 C 16.1503,4.85283 14.1184,4.01263 12,4.01263 c -2.11838,0 -4.15028,0.8402 -5.65001,2.3363 z"
         id="path1"
         style="fill:#ffd600;fill-opacity:1" /><path
         d="m 9.17001,9.16893 -1.41,-1.41 C 8.88501,6.63533 10.41,6.00421 12,6.00421 c 1.59,0 3.115,0.63112 4.24,1.75472 l -1.42,1.42 C 14.0733,8.42776 13.0592,8.0034 12,7.99893 11.4746,7.99852 10.9542,8.10163 10.4686,8.30239 9.98303,8.50314 9.54176,8.79759 9.17001,9.16893 Z"
         id="path2-3"
         style="fill:#ffd600;fill-opacity:1" /><path
         fill-rule="evenodd"
         clip-rule="evenodd"
         d="m 18,10.9989 h -4 c 0,0.5305 -0.2107,1.0392 -0.5858,1.4142 -0.3751,0.3751 -0.8838,0.5858 -1.4142,0.5858 -0.5304,0 -1.0391,-0.2107 -1.4142,-0.5858 C 10.2107,12.0381 10,11.5294 10,10.9989 H 6 c -0.53043,0 -1.03914,0.2107 -1.41421,0.5858 C 4.21071,11.9598 4,12.4685 4,12.9989 v 9 h 16 v -9 C 20,12.4685 19.7893,11.9598 19.4142,11.5847 19.0391,11.2096 18.5304,10.9989 18,10.9989 Z m -12,7 v -3 h 12 v 3 z"
         id="path3-6"
         style="fill:#5801ff;fill-opacity:1" /><path
         d="m 13,10.9989 c 0,0.5523 -0.4477,1 -1,1 -0.5523,0 -1,-0.4477 -1,-1 0,-0.5523 0.4477,-0.99997 1,-0.99997 0.5523,0 1,0.44767 1,0.99997 z"
         id="path4-7"
         style="fill:#ffd600;fill-opacity:1" /></g><g
       style="fill:#000000"
       id="g3"
       transform="matrix(0.04130683,0,0,0.04130683,83.31657,140.19395)"
       inkscape:label="drone"><path
         d="m 312,432 h -56 v -32 h 40 c 17.648,0 32,-14.352 32,-32 0,-17.648 -14.352,-32 -32,-32 h -96 c -8.824,0 -16,-7.176 -16,-16 0,-8.824 7.176,-16 16,-16 h 56 v -57.136 c 13.768,-3.576 24,-15.992 24,-30.864 0,-17.648 -14.352,-32 -32,-32 -17.648,0 -32,14.352 -32,32 0,14.872 10.232,27.288 24,30.864 V 288 h -40 c -17.648,0 -32,14.352 -32,32 0,17.648 14.352,32 32,32 h 96 c 8.824,0 16,7.176 16,16 0,8.824 -7.176,16 -16,16 h -56 v 48 h -56 c -13.232,0 -24,10.768 -24,24 v 40 h 176 v -40 c 0,-13.232 -10.768,-24 -24,-24 z M 232,216 c 0,-8.824 7.176,-16 16,-16 8.824,0 16,7.176 16,16 0,8.824 -7.176,16 -16,16 -8.824,0 -16,-7.176 -16,-16 z m 88,264 h -16 v -16 h -16 v 16 h -16 v -16 h -16 v 16 h -16 v -16 h -16 v 16 h -16 v -16 h -16 v 16 h -16 v -24 c 0,-4.416 3.584,-8 8,-8 h 128 c 4.416,0 8,3.584 8,8 z"
         id="path1-5"
         style="fill:#e1e1e1;fill-opacity:1" /><path
         d="m 328,190.856 c -13.232,0 -24,10.768 -24,24 0,13.232 10.768,24 24,24 13.232,0 24,-10.768 24,-24 0,-13.232 -10.768,-24 -24,-24 z m 0,32 c -4.416,0 -8,-3.584 -8,-8 0,-4.416 3.584,-8 8,-8 4.416,0 8,3.584 8,8 0,4.416 -3.584,8 -8,8 z"
         id="path2-35"
         style="fill:#e1e1e1;fill-opacity:1" /><path
         d="m 367.6,175.264 c 21.832,21.832 21.832,57.36 0,79.192 l 11.312,11.312 c 28.072,-28.072 28.072,-73.752 0,-101.824 z"
         id="path3-62"
         style="fill:#ffd600;fill-opacity:1" /><path
         d="m 412.848,130.008 -11.312,11.312 c 40.552,40.552 40.552,106.528 0,147.088 l 11.312,11.312 c 46.792,-46.792 46.792,-122.92 0,-169.712 z"
         id="path4-9"
         style="fill:#ffd600;fill-opacity:1" /><path
         d="m 435.488,107.384 c 59.256,59.264 59.256,155.696 0,214.96 l 11.312,11.312 c 65.496,-65.504 65.496,-172.088 0,-237.584 z"
         id="path5-1"
         style="fill:#ffd600;fill-opacity:1" /><path
         d="m 320,0 v 16 h 80 V 32 H 384 V 48 H 336 V 32 H 160 V 48 H 112 V 32 H 96 V 16 h 80 V 0 H 0 V 16 H 80 V 32 H 64 v 24 c 0,13.232 10.768,24 24,24 10.416,0 19.216,-6.712 22.528,-16 H 160 V 83.312 L 180.688,104 H 315.312 L 336,83.312 V 64 h 49.472 c 3.312,9.288 12.112,16 22.528,16 13.232,0 24,-10.768 24,-24 V 32 H 416 V 16 h 80 V 0 Z M 96,56 c 0,4.416 -3.584,8 -8,8 -4.416,0 -8,-3.584 -8,-8 V 48 H 96 Z M 320,76.688 308.688,88 H 187.312 L 176,76.688 V 48 h 16 v 16 h 16 V 48 h 16 v 16 h 16 V 48 h 16 v 16 h 16 V 48 h 16 v 16 h 16 V 48 h 16 z M 416,56 c 0,4.416 -3.584,8 -8,8 -4.416,0 -8,-3.584 -8,-8 v -8 h 16 z"
         id="path6-2"
         style="fill:#5801ff;fill-opacity:1" /><path
         d="m 192,214.856 c 0,-13.232 -10.768,-24 -24,-24 -13.232,0 -24,10.768 -24,24 0,13.232 10.768,24 24,24 13.232,0 24,-10.76 24,-24 z m -32,0 c 0,-4.416 3.584,-8 8,-8 4.416,0 8,3.584 8,8 0,4.416 -3.584,8 -8,8 -4.416,0 -8,-3.584 -8,-8 z"
         id="path7"
         style="fill:#e1e1e1;fill-opacity:1" /><path
         d="m 117.088,163.952 c -28.072,28.072 -28.072,73.752 0,101.824 L 128.4,254.464 c -21.832,-21.832 -21.832,-57.36 0,-79.192 z"
         id="path8"
         style="fill:#ffd600;fill-opacity:1" /><path
         d="M 83.152,130.008 C 36.36,176.8 36.36,252.928 83.152,299.72 L 94.464,288.408 C 53.912,247.856 53.912,181.88 94.464,141.32 Z"
         id="path9"
         style="fill:#ffd600;fill-opacity:1" /><path
         d="M 60.512,107.384 49.2,96.072 c -65.496,65.504 -65.496,172.088 0,237.584 L 60.512,322.344 C 1.256,263.08 1.256,166.648 60.512,107.384 Z"
         id="path10"
         style="fill:#ffd600;fill-opacity:1" /></g><g
       style="fill:#000000"
       id="g4"
       transform="matrix(0.64025587,0,0,0.64025587,179.28294,90.08129)"
       inkscape:label="connected-chip"><path
         d="m 30,19 h -4 v -4 h -2 v 9 H 8 V 8 l 9,-9e-4 V 6 H 13 V 2 H 11 V 6 H 8 A 2.002,2.002 0 0 0 6,8 v 3 H 2 v 2 h 4 v 6 H 2 v 2 h 4 v 3 a 2.0023,2.0023 0 0 0 2,2 h 3 v 4 h 2 v -4 h 6 v 4 h 2 v -4 h 3 a 2.0027,2.0027 0 0 0 2,-2 v -3 h 4 z"
         id="path1-0"
         style="fill:#e1e1e1;fill-opacity:1" /><path
         d="M 21,21 H 11 V 11 h 10 z m -8,-2 h 6 v -6 h -6 z"
         id="path2-9"
         style="fill:#5801ff;fill-opacity:1" /><path
         d="M 31,13 H 29 A 10.0117,10.0117 0 0 0 19,3 V 1 a 12.0131,12.0131 0 0 1 12,12 z"
         id="path3-3"
         style="fill:#ffd600;fill-opacity:1" /><path
         d="M 26,13 H 24 A 5.0059,5.0059 0 0 0 19,8 V 6 a 7.0085,7.0085 0 0 1 7,7 z"
         id="path4-6"
         style="fill:#ffd600;fill-opacity:1" /><rect
         id="_Transparent_Rectangle_"
         data-name="&lt;Transparent Rectangle&gt;"
         class="cls-1"
         width="32"
         height="32"
         x="0"
         y="0" /></g><g
       style="fill:none"
       id="g8"
       transform="matrix(1.3658791,0,0,1.3658791,111.16251,84.922799)"
       inkscape:label="server"><path
         d="m 20.5,8.5 v -3 C 20.5,5.23478 20.3946,4.98043 20.2071,4.79289 20.0196,4.60536 19.7652,4.5 19.5,4.5 H 4.5 C 4.23478,4.5 3.98043,4.60536 3.79289,4.79289 3.60536,4.98043 3.5,5.23478 3.5,5.5 v 3 C 3.5,8.76522 3.60536,9.01957 3.79289,9.20711 3.98043,9.39464 4.23478,9.5 4.5,9.5 4.23478,9.5 3.98043,9.60536 3.79289,9.79289 3.60536,9.98043 3.5,10.2348 3.5,10.5 v 3 c 0,0.2652 0.10536,0.5196 0.29289,0.7071 C 3.98043,14.3946 4.23478,14.5 4.5,14.5 4.23478,14.5 3.98043,14.6054 3.79289,14.7929 3.60536,14.9804 3.5,15.2348 3.5,15.5 v 3 c 0,0.2652 0.10536,0.5196 0.29289,0.7071 C 3.98043,19.3946 4.23478,19.5 4.5,19.5 h 15 c 0.2652,0 0.5196,-0.1054 0.7071,-0.2929 C 20.3946,19.0196 20.5,18.7652 20.5,18.5 v -3 c 0,-0.2652 -0.1054,-0.5196 -0.2929,-0.7071 C 20.0196,14.6054 19.7652,14.5 19.5,14.5 c 0.2652,0 0.5196,-0.1054 0.7071,-0.2929 C 20.3946,14.0196 20.5,13.7652 20.5,13.5 v -3 C 20.5,10.2348 20.3946,9.98043 20.2071,9.79289 20.0196,9.60536 19.7652,9.5 19.5,9.5 19.7652,9.5 20.0196,9.39464 20.2071,9.20711 20.3946,9.01957 20.5,8.76522 20.5,8.5 Z m -1,10 h -15 v -3 h 15 z m 0,-5 h -15 v -3 h 15 z m 0,-5 h -15 v -3 h 15 z"
         fill="#000000"
         id="path1-7"
         style="fill:#e1e1e1;fill-opacity:1" /><path
         d="M 6.25,7.75 C 6.66421,7.75 7,7.41421 7,7 7,6.58579 6.66421,6.25 6.25,6.25 5.83579,6.25 5.5,6.58579 5.5,7 c 0,0.41421 0.33579,0.75 0.75,0.75 z"
         fill="#000000"
         id="path2-5"
         style="fill:#5801ff;fill-opacity:1" /><path
         d="M 8.75,7.75 C 9.16421,7.75 9.5,7.41421 9.5,7 9.5,6.58579 9.16421,6.25 8.75,6.25 8.33579,6.25 8,6.58579 8,7 8,7.41421 8.33579,7.75 8.75,7.75 Z"
         fill="#000000"
         id="path3-3-3"
         style="fill:#ffd600;fill-opacity:1" /><path
         d="M 6.25,12.75 C 6.66421,12.75 7,12.4142 7,12 7,11.5858 6.66421,11.25 6.25,11.25 5.83579,11.25 5.5,11.5858 5.5,12 c 0,0.4142 0.33579,0.75 0.75,0.75 z"
         fill="#000000"
         id="path4-5"
         style="fill:#5801ff;fill-opacity:1" /><path
         d="M 8.75,12.75 C 9.16421,12.75 9.5,12.4142 9.5,12 9.5,11.5858 9.16421,11.25 8.75,11.25 8.33579,11.25 8,11.5858 8,12 c 0,0.4142 0.33579,0.75 0.75,0.75 z"
         fill="#000000"
         id="path5-6"
         style="fill:#ffd600;fill-opacity:1" /><path
         d="M 6.25,17.75 C 6.66421,17.75 7,17.4142 7,17 7,16.5858 6.66421,16.25 6.25,16.25 5.83579,16.25 5.5,16.5858 5.5,17 c 0,0.4142 0.33579,0.75 0.75,0.75 z"
         fill="#000000"
         id="path6-2-6"
         style="fill:#5801ff;fill-opacity:1" /><path
         d="M 8.75,17.75 C 9.16421,17.75 9.5,17.4142 9.5,17 9.5,16.5858 9.16421,16.25 8.75,16.25 8.33579,16.25 8,16.5858 8,17 c 0,0.4142 0.33579,0.75 0.75,0.75 z"
         fill="#000000"
         id="path7-9"
         style="fill:#ffd600;fill-opacity:1" /></g><circle
       style="fill:none;fill-opacity:1;fill-rule:evenodd;stroke:#e1e1e1;stroke-width:0.990592;stroke-miterlimit:5;stroke-dasharray:7.92473, 1.98117, 0.990592, 1.98117;stroke-dashoffset:0;stroke-opacity:1;paint-order:stroke fill markers"
       id="path14-9-0-6"
       cx="189.52707"
       cy="100.32538"
       r="16.509859" /><circle
       style="fill:none;fill-opacity:1;fill-rule:evenodd;stroke:#e1e1e1;stroke-width:0.990592;stroke-miterlimit:5;stroke-dasharray:7.92473, 1.98117, 0.990592, 1.98117;stroke-dashoffset:0;stroke-opacity:1;paint-order:stroke fill markers"
       id="path14"
       cx="127.55309"
       cy="101.31336"
       r="16.509859"
       inkscape:label="path14" /><circle
       style="fill:none;fill-opacity:1;fill-rule:evenodd;stroke:#e1e1e1;stroke-width:0.990592;stroke-miterlimit:5;stroke-dasharray:7.92473, 1.98117, 0.990592, 1.98117;stroke-dashoffset:0;stroke-opacity:1;paint-order:stroke fill markers"
       id="path14-9"
       cx="158.37933"
       cy="52.15657"
       r="16.509859" /><circle
       style="fill:none;fill-opacity:1;fill-rule:evenodd;stroke:#e1e1e1;stroke-width:0.990592;stroke-miterlimit:5;stroke-dasharray:7.92473, 1.98117, 0.990592, 1.98117;stroke-dashoffset:0;stroke-opacity:1;paint-order:stroke fill markers"
       id="path14-9-2-5-6"
       cx="65.666389"
       cy="101.13122"
       r="16.509859" /><circle
       style="fill:none;fill-opacity:1;fill-rule:evenodd;stroke:#e1e1e1;stroke-width:0.990592;stroke-miterlimit:5;stroke-dasharray:7.92473, 1.98117, 0.990592, 1.98117;stroke-dashoffset:0;stroke-opacity:1;paint-order:stroke fill markers"
       id="path14-9-2-5-6-5"
       cx="93.560707"
       cy="150.43805"
       r="16.509859" /><path
       style="fill:none;stroke:#e1e1e1;stroke-width:1.22929;stroke-linecap:butt;stroke-linejoin:miter;stroke-dasharray:none;stroke-dashoffset:0;stroke-opacity:1"
       d="M 86.601634,101.31335 H 106.61777"
       id="path31-2" /><path
       style="fill:none;stroke:#e1e1e1;stroke-width:1.22929;stroke-linecap:butt;stroke-linejoin:miter;stroke-dasharray:none;stroke-dashoffset:0;stroke-opacity:1"
       d="m 148.53197,101.31335 h 20.01616"
       id="path31-2-7" /><path
       style="fill:none;stroke:#e1e1e1;stroke-width:1.22929;stroke-linecap:butt;stroke-linejoin:miter;stroke-dasharray:none;stroke-dashoffset:0;stroke-opacity:1"
       d="m 116.21981,117.62691 -11.3259,16.49759"
       id="path32-3-4-0-7" /><path
       style="fill:none;stroke:#e1e1e1;stroke-width:1.22929;stroke-linecap:butt;stroke-linejoin:miter;stroke-dasharray:none;stroke-dashoffset:0;stroke-opacity:1"
       d="M 148.62911,68.486165 137.30324,84.983764"
       id="path32-3-4-0-7-0" /></g></svg>
