<?xml version="1.0" encoding="UTF-8" standalone="no"?>
<!-- Created with Inkscape (http://www.inkscape.org/) -->

<svg
   width="183.10977mm"
   height="39.687489mm"
   viewBox="0 0 183.10977 39.687488"
   version="1.1"
   id="svg1"
   inkscape:version="1.3.2 (091e20e, 2023-11-25)"
   sodipodi:docname="communications.svg"
   xmlns:inkscape="http://www.inkscape.org/namespaces/inkscape"
   xmlns:sodipodi="http://sodipodi.sourceforge.net/DTD/sodipodi-0.dtd"
   xmlns="http://www.w3.org/2000/svg"
   xmlns:svg="http://www.w3.org/2000/svg">
  <sodipodi:namedview
     id="namedview1"
     pagecolor="#2d2e2a"
     bordercolor="#999999"
     borderopacity="1"
     inkscape:showpageshadow="0"
     inkscape:pageopacity="0"
     inkscape:pagecheckerboard="0"
     inkscape:deskcolor="#d1d1d1"
     inkscape:document-units="mm"
     inkscape:zoom="2.0828143"
     inkscape:cx="242.70047"
     inkscape:cy="15.123768"
     inkscape:window-width="2560"
     inkscape:window-height="1373"
     inkscape:window-x="0"
     inkscape:window-y="0"
     inkscape:window-maximized="1"
     inkscape:current-layer="layer1" />
  <defs
     id="defs1" />
  <g
     inkscape:label="Calque 1"
     inkscape:groupmode="layer"
     id="layer1"
     transform="translate(-16.827833,-14.550726)">
    <g
       style="fill:#e1e1e1;fill-opacity:1"
       id="g16"
       transform="matrix(0.04636643,0,0,0.04636643,24.66173,22.664657)"
       inkscape:label="robot-arm-3">
      <g
         id="g7"
         style="fill:#e1e1e1;fill-opacity:1">
        <g
           id="g6"
           style="fill:#e1e1e1;fill-opacity:1">
          <g
             id="g5"
             style="fill:#e1e1e1;fill-opacity:1">
            <path
               d="m 119.467,341.333 h 51.2 c 4.713,0 8.533,-3.821 8.533,-8.533 0,-4.713 -3.82,-8.533 -8.533,-8.533 h -51.2 c -4.713,0 -8.533,3.821 -8.533,8.533 -10e-4,4.713 3.82,8.533 8.533,8.533 z"
               id="path1-2"
               style="fill:#e1e1e1;fill-opacity:1" />
            <path
               d="M 187.733,358.4 H 102.4 c -4.713,0 -8.533,3.82 -8.533,8.533 0,4.713 3.82,8.533 8.533,8.533 h 85.333 c 4.713,0 8.533,-3.82 8.533,-8.533 0,-4.713 -3.82,-8.533 -8.533,-8.533 z"
               id="path2-0"
               style="fill:#e1e1e1;fill-opacity:1" />
            <path
               d="m 145.067,264.533 c 4.713,0 8.533,-3.82 8.533,-8.533 V 51.2 c 0,-4.713 -3.821,-8.533 -8.533,-8.533 -4.712,0 -8.533,3.82 -8.533,8.533 V 256 c -0.001,4.713 3.82,8.533 8.533,8.533 z"
               id="path3-2"
               style="fill:#e1e1e1;fill-opacity:1" />
            <path
               d="m 385.925,192.8 c 6.065,9.354 17.193,13.437 27.446,10.987 l 14.708,22.718 c 2.561,3.956 7.845,5.087 11.801,2.526 3.956,-2.561 5.087,-7.845 2.526,-11.801 l -14.708,-22.718 c 6.433,-8.354 7.264,-20.183 1.209,-29.537 l -9.28,-14.327 7.163,-4.638 c 3.955,-2.561 5.086,-7.843 2.526,-11.799 l -18.543,-28.655 c -2.561,-3.957 -7.845,-5.089 -11.802,-2.527 l -7.332,4.747 -27.748,-40.756 c 1.956,-4.893 3.042,-10.228 3.042,-15.819 0,-23.563 -19.104,-42.667 -42.667,-42.667 -13.957,0 -26.349,6.704 -34.133,17.067 H 194.006 C 183.185,10.152 165.267,0 145.067,0 112.194,0 85.334,26.861 85.334,59.733 V 222.722 C 65.859,226.676 51.2,243.893 51.2,264.533 v 128 h -8.533 c -4.713,0 -8.533,3.821 -8.533,8.533 v 25.6 H 25.6 c -4.713,0 -8.533,3.82 -8.533,8.533 v 25.6 H 8.533 C 3.82,460.8 0,464.621 0,469.333 v 34.133 C 0,508.18 3.82,512 8.533,512 H 281.6 c 4.713,0 8.533,-3.82 8.533,-8.533 v -34.133 c 0,-4.713 -3.82,-8.533 -8.533,-8.533 h -8.533 v -25.6 c 0,-4.713 -3.821,-8.533 -8.533,-8.533 H 256 v -25.6 c 0,-4.713 -3.82,-8.533 -8.533,-8.533 h -8.533 v -128 c 0,-20.64 -14.659,-37.858 -34.133,-41.811 V 76.8 h 85.334 c 7,9.318 17.725,15.674 29.964,16.861 l 28.562,41.94 -6.998,4.53 c -3.956,2.561 -5.087,7.845 -2.526,11.801 l 18.552,28.655 c 2.561,3.956 7.845,5.087 11.801,2.525 l 7.163,-4.638 z m 14.323,-9.28 -9.27,-14.32 14.323,-9.276 9.279,14.325 c 2.554,3.945 1.43,9.222 -2.506,11.785 -0.007,0.005 -0.015,0.008 -0.022,0.013 -0.007,0.005 -0.013,0.01 -0.021,0.015 -3.951,2.543 -9.221,1.41 -11.783,-2.542 z M 102.4,59.733 c 0,-23.447 19.219,-42.667 42.667,-42.667 15.496,0 29.139,8.397 36.615,20.859 0.083,0.167 0.152,0.336 0.247,0.5 2.807,4.823 4.637,10.072 5.399,15.531 0.021,0.154 0.04,0.31 0.06,0.465 0.088,0.685 0.155,1.375 0.209,2.066 0.017,0.226 0.038,0.451 0.052,0.678 0.05,0.817 0.08,1.637 0.082,2.46 0,0.036 0.003,0.071 0.003,0.107 V 230.4 245.547 c 0,19.249 -11.904,36.201 -28.732,42.219 -0.376,0.131 -0.751,0.265 -1.132,0.386 -0.101,0.033 -0.203,0.064 -0.304,0.096 -2.512,0.777 -5.121,1.322 -7.802,1.62 -0.221,0.024 -0.441,0.049 -0.661,0.069 -0.442,0.042 -0.888,0.074 -1.334,0.102 -0.38,0.023 -0.759,0.042 -1.137,0.055 -0.336,0.012 -0.673,0.021 -1.011,0.026 -0.49,0.005 -0.978,0.002 -1.464,-0.009 -0.24,-0.005 -0.479,-0.009 -0.718,-0.018 -0.612,-0.024 -1.221,-0.062 -1.827,-0.112 -0.116,-0.009 -0.232,-0.016 -0.347,-0.027 -6.888,-0.628 -13.345,-2.909 -18.942,-6.456 -0.027,-0.017 -0.055,-0.035 -0.082,-0.053 -0.564,-0.359 -1.119,-0.734 -1.665,-1.119 -0.092,-0.065 -0.184,-0.131 -0.276,-0.197 -0.471,-0.338 -0.934,-0.686 -1.391,-1.042 -0.147,-0.115 -0.294,-0.229 -0.439,-0.346 -0.387,-0.31 -0.767,-0.629 -1.143,-0.952 -0.195,-0.168 -0.391,-0.334 -0.583,-0.505 -0.307,-0.273 -0.606,-0.554 -0.905,-0.835 -0.242,-0.229 -0.486,-0.455 -0.723,-0.69 -0.22,-0.217 -0.432,-0.441 -0.648,-0.663 -0.297,-0.307 -0.596,-0.612 -0.884,-0.927 -0.108,-0.117 -0.21,-0.24 -0.316,-0.359 -3.081,-3.45 -5.617,-7.395 -7.459,-11.702 -0.019,-0.043 -0.038,-0.086 -0.056,-0.13 -0.241,-0.568 -0.467,-1.144 -0.684,-1.724 -0.037,-0.099 -0.074,-0.197 -0.11,-0.297 -0.197,-0.54 -0.382,-1.086 -0.557,-1.636 -0.048,-0.15 -0.095,-0.301 -0.141,-0.452 -0.157,-0.512 -0.305,-1.028 -0.443,-1.548 -0.053,-0.202 -0.103,-0.405 -0.154,-0.608 -0.12,-0.482 -0.235,-0.966 -0.338,-1.454 -0.054,-0.258 -0.102,-0.518 -0.152,-0.777 -0.086,-0.445 -0.17,-0.89 -0.241,-1.34 -0.052,-0.328 -0.093,-0.66 -0.138,-0.991 -0.053,-0.393 -0.109,-0.785 -0.152,-1.182 -0.046,-0.432 -0.076,-0.868 -0.108,-1.304 -0.023,-0.307 -0.054,-0.613 -0.071,-0.922 -0.04,-0.754 -0.063,-1.514 -0.063,-2.278 V 230.4 59.733 Z m 170.667,435.2 h -256 v -17.067 h 8.533 238.933 8.533 v 17.067 z M 34.133,460.8 v -17.067 h 8.533 204.8 H 256 V 460.8 Z M 51.2,426.667 V 409.6 h 8.533 170.667 8.533 v 17.067 H 51.2 Z M 221.867,264.533 v 128 h -153.6 v -128 c 0,-11.145 7.124,-20.628 17.067,-24.143 v 7.076 c 0,1.072 0.032,2.137 0.088,3.195 0.022,0.422 0.065,0.837 0.096,1.257 0.047,0.625 0.089,1.25 0.155,1.869 0.056,0.533 0.133,1.06 0.203,1.589 0.066,0.49 0.126,0.982 0.204,1.468 0.095,0.596 0.207,1.186 0.319,1.776 0.077,0.403 0.151,0.807 0.236,1.207 0.136,0.642 0.287,1.277 0.443,1.91 0.083,0.334 0.164,0.668 0.253,1 0.179,0.676 0.372,1.346 0.574,2.013 0.083,0.274 0.168,0.548 0.255,0.82 0.226,0.706 0.463,1.407 0.714,2.102 0.078,0.216 0.159,0.43 0.239,0.645 0.276,0.736 0.562,1.465 0.866,2.187 0.065,0.155 0.134,0.307 0.2,0.461 0.331,0.769 0.674,1.531 1.036,2.283 0.039,0.08 0.08,0.159 0.119,0.239 2.393,4.909 5.437,9.433 9.017,13.472 0.219,0.248 0.433,0.501 0.657,0.745 0.365,0.399 0.743,0.784 1.119,1.173 0.334,0.347 0.667,0.695 1.009,1.034 0.318,0.314 0.644,0.618 0.969,0.924 0.424,0.401 0.85,0.799 1.285,1.188 0.276,0.246 0.558,0.486 0.839,0.727 0.506,0.435 1.018,0.864 1.539,1.282 0.236,0.189 0.474,0.376 0.714,0.561 0.588,0.458 1.183,0.904 1.788,1.34 0.192,0.138 0.385,0.276 0.579,0.412 0.674,0.474 1.358,0.932 2.051,1.379 0.141,0.091 0.281,0.182 0.422,0.271 0.769,0.486 1.551,0.954 2.343,1.405 0.078,0.044 0.154,0.09 0.232,0.134 5.394,3.041 11.297,5.272 17.549,6.516 0.015,0.003 0.03,0.005 0.045,0.008 0.98,0.194 1.969,0.364 2.966,0.509 0.248,0.036 0.498,0.062 0.747,0.096 0.763,0.101 1.528,0.195 2.3,0.267 0.381,0.036 0.766,0.059 1.149,0.088 0.644,0.048 1.288,0.092 1.937,0.118 0.467,0.02 0.936,0.027 1.406,0.036 0.358,0.006 0.713,0.027 1.073,0.027 0.219,0 0.434,-0.014 0.652,-0.017 0.516,-0.005 1.034,-0.021 1.553,-0.04 0.529,-0.019 1.056,-0.044 1.581,-0.077 0.57,-0.035 1.141,-0.079 1.714,-0.131 0.427,-0.039 0.853,-0.085 1.278,-0.133 0.409,-0.046 0.816,-0.074 1.227,-0.128 0.33,-0.044 0.654,-0.105 0.982,-0.154 0.065,-0.01 0.13,-0.021 0.195,-0.031 1.919,-0.295 3.804,-0.684 5.652,-1.164 0.038,-0.01 0.076,-0.02 0.114,-0.03 0.817,-0.214 1.627,-0.445 2.429,-0.693 0.218,-0.067 0.435,-0.134 0.651,-0.203 0.532,-0.172 1.06,-0.352 1.586,-0.539 0.525,-0.184 1.048,-0.373 1.566,-0.571 0.106,-0.041 0.21,-0.083 0.316,-0.125 22.319,-8.672 38.238,-30.397 38.238,-55.698 v -1.92 -5.156 c 9.939,3.516 17.064,12.999 17.064,24.144 z m -17.066,-204.8 c 0,-0.911 -0.029,-1.818 -0.07,-2.723 -0.013,-0.277 -0.03,-0.552 -0.046,-0.828 -0.038,-0.624 -0.086,-1.246 -0.143,-1.867 -0.03,-0.326 -0.056,-0.652 -0.09,-0.976 -0.081,-0.746 -0.176,-1.489 -0.285,-2.229 -0.088,-0.6 -0.193,-1.193 -0.298,-1.787 -0.034,-0.188 -0.066,-0.376 -0.101,-0.563 -0.388,-2.07 -0.879,-4.104 -1.476,-6.094 h 80.164 c -0.56,2.757 -0.855,5.611 -0.855,8.533 0,2.922 0.295,5.776 0.855,8.533 h -77.655 z m 98.016,5.434 c -0.16,-0.404 -0.346,-0.805 -0.575,-1.198 -2.042,-3.502 -3.242,-7.241 -3.514,-11.086 -0.001,-0.014 -0.002,-0.027 -0.003,-0.041 -0.038,-0.545 -0.057,-1.092 -0.057,-1.641 0,-0.549 0.019,-1.096 0.057,-1.641 10e-4,-0.014 0.002,-0.028 0.003,-0.041 0.272,-3.845 1.473,-7.585 3.514,-11.086 0.229,-0.393 0.415,-0.794 0.575,-1.198 4.569,-7.002 12.466,-11.633 21.449,-11.633 14.137,0 25.6,11.463 25.6,25.6 0,3.501 -0.705,6.837 -1.977,9.876 l -1.352,2.437 c -4.457,8.034 -12.713,13.121 -21.931,13.245 l -1.279,0.017 c -8.592,-0.311 -16.101,-4.854 -20.51,-11.61 z m 36.266,26.053 c 5.442,-2.016 10.355,-5.115 14.491,-9.029 l 23.734,34.86 -9.849,6.378 -4.47,2.894 z m 28.293,72.928 -9.276,-14.328 0.169,-0.109 0.002,0.003 18.602,-12.047 24.21,-15.674 9.271,14.327 z"
               id="path4-3"
               style="fill:#e1e1e1;fill-opacity:1" />
            <path
               d="m 503.467,324.267 c 4.713,0 8.533,-3.82 8.533,-8.533 v -51.2 c 0,-4.713 -3.82,-8.533 -8.533,-8.533 H 384 c -4.713,0 -8.533,3.82 -8.533,8.533 v 51.2 c 0,4.713 3.82,8.533 8.533,8.533 h 8.533 V 443.734 H 384 c -4.713,0 -8.533,3.821 -8.533,8.533 v 51.2 c 0,4.713 3.82,8.533 8.533,8.533 h 119.467 c 4.713,0 8.533,-3.82 8.533,-8.533 v -51.2 c 0,-4.713 -3.82,-8.533 -8.533,-8.533 h -8.533 V 324.267 Z m -110.934,-51.2 h 102.4 V 307.2 h -8.533 -85.333 -8.533 v -34.133 z m 102.4,221.866 h -102.4 V 460.8 h 8.533 85.334 8.533 z m -17.066,-51.2 H 409.6 V 324.267 h 68.267 z"
               id="path5-7"
               style="fill:#e1e1e1;fill-opacity:1" />
          </g>
        </g>
      </g>
    </g>
    <g
       style="fill:none"
       id="g8-9-6"
       transform="matrix(0.86314832,0,0,0.86314832,75.098776,14.93907)"
       inkscape:label="server">
      <path
         d="m 137.39017,15.960395 v -5.500704 c 0,-0.4862987 -0.19326,-0.9526667 -0.53705,-1.2965339 -0.3438,-0.343849 -0.81027,-0.5370338 -1.29653,-0.5370338 H 108.0529 c -0.48631,0 -0.95268,0.1931848 -1.29655,0.5370338 -0.34385,0.3438672 -0.53703,0.8102352 -0.53703,1.2965339 v 5.500704 c 0,0.486299 0.19318,0.952666 0.53703,1.296533 0.34387,0.343849 0.81024,0.537034 1.29655,0.537034 -0.48631,0 -0.95268,0.193185 -1.29655,0.537034 -0.34385,0.343867 -0.53703,0.810272 -0.53703,1.296535 v 5.500703 c 0,0.486261 0.19318,0.952721 0.53703,1.296515 0.34387,0.343795 0.81024,0.537052 1.29655,0.537052 -0.48631,0 -0.95268,0.193259 -1.29655,0.537052 -0.34385,0.343794 -0.53703,0.810254 -0.53703,1.296517 v 5.500703 c 0,0.486262 0.19318,0.952721 0.53703,1.296515 0.34387,0.343795 0.81024,0.537052 1.29655,0.537052 h 27.50369 c 0.48626,0 0.95273,-0.193257 1.29653,-0.537052 0.34379,-0.343794 0.53705,-0.810253 0.53705,-1.296515 V 28.79537 c 0,-0.486263 -0.19326,-0.952723 -0.53705,-1.296517 -0.3438,-0.343793 -0.81027,-0.537052 -1.29653,-0.537052 0.48626,0 0.95273,-0.193257 1.29653,-0.537052 0.34379,-0.343794 0.53705,-0.810254 0.53705,-1.296515 v -5.500703 c 0,-0.486263 -0.19326,-0.952668 -0.53705,-1.296535 -0.3438,-0.343849 -0.81027,-0.537034 -1.29653,-0.537034 0.48626,0 0.95273,-0.193185 1.29653,-0.537034 0.34379,-0.343867 0.53705,-0.810234 0.53705,-1.296533 z m -1.83358,18.335678 H 108.0529 V 28.79537 h 27.50369 z m 0,-9.167839 H 108.0529 v -5.500703 h 27.50369 z m 0,-9.167839 H 108.0529 v -5.500704 h 27.50369 z"
         fill="#000000"
         id="path1-7-1-4"
         style="fill:#e1e1e1;fill-opacity:1;stroke-width:1.83357" />
      <path
         d="m 111.26166,14.585219 c 0.75948,0 1.37518,-0.615693 1.37518,-1.375176 0,-0.759482 -0.6157,-1.375176 -1.37518,-1.375176 -0.75949,0 -1.37519,0.615694 -1.37519,1.375176 0,0.759483 0.6157,1.375176 1.37519,1.375176 z"
         fill="#000000"
         id="path2-5-9-0"
         style="fill:#5801ff;fill-opacity:1;stroke-width:1.83357" />
      <path
         d="m 115.84561,14.585219 c 0.75949,0 1.37518,-0.615693 1.37518,-1.375176 0,-0.759482 -0.61569,-1.375176 -1.37518,-1.375176 -0.75949,0 -1.37519,0.615694 -1.37519,1.375176 0,0.759483 0.6157,1.375176 1.37519,1.375176 z"
         fill="#000000"
         id="path3-3-6-0"
         style="fill:#ffd600;fill-opacity:1;stroke-width:1.83357" />
      <path
         d="m 111.26166,23.753058 c 0.75948,0 1.37518,-0.615712 1.37518,-1.375176 0,-0.759464 -0.6157,-1.375176 -1.37518,-1.375176 -0.75949,0 -1.37519,0.615712 -1.37519,1.375176 0,0.759464 0.6157,1.375176 1.37519,1.375176 z"
         fill="#000000"
         id="path4-5-9-4"
         style="fill:#5801ff;fill-opacity:1;stroke-width:1.83357" />
      <path
         d="m 115.84561,23.753058 c 0.75949,0 1.37518,-0.615712 1.37518,-1.375176 0,-0.759464 -0.61569,-1.375176 -1.37518,-1.375176 -0.75949,0 -1.37519,0.615712 -1.37519,1.375176 0,0.759464 0.6157,1.375176 1.37519,1.375176 z"
         fill="#000000"
         id="path5-6-3-6"
         style="fill:#ffd600;fill-opacity:1;stroke-width:1.83357" />
      <path
         d="m 111.26166,32.920897 c 0.75948,0 1.37518,-0.615712 1.37518,-1.375176 0,-0.759464 -0.6157,-1.375177 -1.37518,-1.375177 -0.75949,0 -1.37519,0.615713 -1.37519,1.375177 0,0.759464 0.6157,1.375176 1.37519,1.375176 z"
         fill="#000000"
         id="path6-2-3-2"
         style="fill:#5801ff;fill-opacity:1;stroke-width:1.83357" />
      <path
         d="m 115.84561,32.920897 c 0.75949,0 1.37518,-0.615712 1.37518,-1.375176 0,-0.759464 -0.61569,-1.375177 -1.37518,-1.375177 -0.75949,0 -1.37519,0.615713 -1.37519,1.375177 0,0.759464 0.6157,1.375176 1.37519,1.375176 z"
         fill="#000000"
         id="path7-9-8-6"
         style="fill:#ffd600;fill-opacity:1;stroke-width:1.83357" />
    </g>
    <circle
       style="fill:none;fill-opacity:1;fill-rule:evenodd;stroke:#e1e1e1;stroke-width:1.1478;stroke-miterlimit:5;stroke-dasharray:9.18234, 2.29559, 1.1478, 2.29559;stroke-dashoffset:0;stroke-opacity:1;paint-order:stroke fill markers"
       id="path14-9-0"
       cx="36.531578"
       cy="34.534458"
       r="19.129938" />
    <circle
       style="fill:none;fill-opacity:1;fill-rule:evenodd;stroke:#e1e1e1;stroke-width:1.1478;stroke-miterlimit:5;stroke-dasharray:9.18234, 2.29559, 1.1478, 2.29559;stroke-dashoffset:0;stroke-opacity:1;paint-order:stroke fill markers"
       id="path14-9-2-9"
       cx="180.23376"
       cy="34.254509"
       r="19.129938" />
    <path
       style="fill:none;stroke:#e1e1e1;stroke-width:1.42438;stroke-linecap:butt;stroke-linejoin:miter;stroke-dasharray:none;stroke-dashoffset:0;stroke-opacity:1"
       d="m 59.11803,34.534458 h 98.52938"
       id="path31"
       sodipodi:nodetypes="cc" />
  </g>
</svg>
