<?xml version="1.0" encoding="UTF-8" standalone="no"?>
<!-- Uploaded to: SVG Repo, www.svgrepo.com, Generator: SVG Repo Mixer Tools -->

<svg
   width="157.65729"
   height="150"
   viewBox="0 0 4.7297186 4.5"
   fill="none"
   version="1.1"
   id="svg3"
   sodipodi:docname="hand.svg"
   inkscape:version="1.3.2 (091e20e, 2023-11-25)"
   xmlns:inkscape="http://www.inkscape.org/namespaces/inkscape"
   xmlns:sodipodi="http://sodipodi.sourceforge.net/DTD/sodipodi-0.dtd"
   xmlns="http://www.w3.org/2000/svg"
   xmlns:svg="http://www.w3.org/2000/svg">
  <defs
     id="defs3" />
  <sodipodi:namedview
     id="namedview3"
     pagecolor="#ffffff"
     bordercolor="#999999"
     borderopacity="1"
     inkscape:showpageshadow="0"
     inkscape:pageopacity="0"
     inkscape:pagecheckerboard="0"
     inkscape:deskcolor="#d1d1d1"
     inkscape:zoom="2.9225"
     inkscape:cx="61.76219"
     inkscape:cy="91.873396"
     inkscape:window-width="2560"
     inkscape:window-height="1373"
     inkscape:window-x="0"
     inkscape:window-y="0"
     inkscape:window-maximized="1"
     inkscape:current-layer="svg3" />
  <path
     d="M 0.82548812,3.9801415 H 1.322967 c 0.2225214,0 0.4474368,0.023153 0.6639932,0.067805 0.3830943,0.078923 0.7864159,0.088463 1.1734275,0.025849 C 3.3512077,4.0428843 3.5388133,3.9956628 3.7086432,3.913686 3.8619349,3.839699 4.0497136,3.7354098 4.1758476,3.6185799 4.3018142,3.5019261 4.4329828,3.3110146 4.5260746,3.1617658 4.605917,3.0338159 4.5672925,2.8768062 4.4410185,2.7814474 4.3007539,2.6755553 4.0925978,2.6755553 3.9523528,2.7815136 L 3.5545321,3.0820134 C 3.40035,3.1984897 3.2319537,3.3056792 3.0313261,3.3376937 c -0.024167,0.00382 -0.049412,0.00738 -0.075764,0.010437 m 0,0 c -0.00785,9.225e-4 -0.016029,0.00182 -0.024167,0.00253 m 0.024167,-0.00253 c 0.032105,-0.00687 0.063936,-0.02669 0.093857,-0.052768 C 3.1910062,3.1717878 3.1999375,2.9635149 3.0770956,2.8255143 3.0486054,2.7935068 3.0152404,2.7667917 2.9781751,2.7446835 2.3623823,2.3773902 1.4043142,2.6571291 0.82550042,3.0676095 M 2.9555683,3.3481191 c -0.00814,0.00172 -0.016029,0.00253 -0.024167,0.00253 m 0,0 c -0.1152286,0.011699 -0.2499733,0.014757 -0.3995368,7.48e-4"
     stroke="#1C274C"
     stroke-width="0.330196"
     stroke-linecap="round"
     id="path3"
     style="stroke:#5801ff;stroke-opacity:1" />
  <rect
     x="0.165098"
     y="2.5738602"
     width="0.66039068"
     height="1.7610419"
     rx="0.33019534"
     stroke="#1C274C"
     stroke-width="0.330196"
     id="rect3"
     style="stroke:#5801ff;stroke-opacity:1" />
  <path
     id="path3797"
     style="fill:#ffd600;fill-opacity:1;fill-rule:evenodd;stroke:#000000;stroke-width:0;stroke-miterlimit:5;stroke-dasharray:none;paint-order:stroke fill markers"
     d="M 3.0455479,0.77358374 A 0.64303007,0.64303007 0 0 0 2.4025299,1.4166022 0.64303007,0.64303007 0 0 0 3.0455479,2.0596486 0.64303007,0.64303007 0 0 0 3.6885945,1.4166022 0.64303007,0.64303007 0 0 0 3.0455479,0.77358374 Z m -0.03132,0.0924616 h 0.055573 v 0.12300457 c 0.1289195,0.009463 0.2152449,0.0792352 0.2152449,0.17503629 0,0.050858 -0.027204,0.081634 -0.073323,0.081634 -0.042581,0 -0.070949,-0.027215 -0.070949,-0.067428 0,-0.028386 0.00823,-0.0414 0.042561,-0.066238 0.00473,-0.00355 0.0071,-0.00828 0.0071,-0.011825 0,-0.024838 -0.056783,-0.052052 -0.1206504,-0.059149 v 0.2933335 c 0.0071,0.00236 0.010642,0.00355 0.027194,0.00828 0.1644003,0.047309 0.2235519,0.108799 0.2235519,0.2318034 0,0.1490246 -0.09344,0.2424652 -0.2507446,0.2507443 V 1.9671877 H 3.0141995 V 1.8264329 c -0.048494,-0.00236 -0.070977,-0.00591 -0.1040916,-0.016559 -0.086343,-0.028386 -0.139563,-0.093431 -0.139563,-0.171492 0,-0.059136 0.035465,-0.1017099 0.083959,-0.1017099 0.040215,0 0.07216,0.031931 0.07216,0.073326 0,0.034298 -0.013022,0.053216 -0.054417,0.076871 -0.0071,0.00355 -0.00948,0.00711 -0.00948,0.013022 0,0.036664 0.066256,0.069767 0.1514156,0.07568 V 1.4455948 C 2.9538657,1.4278539 2.9171899,1.4124588 2.8852564,1.3935352 2.8213862,1.355688 2.7859007,1.291824 2.7859007,1.2137635 c 0,-0.1230044 0.086362,-0.2069655 0.2282868,-0.22352374 z m 0,0.17860846 c -0.083978,0.00709 -0.143137,0.06032 -0.143137,0.1312843 0,0.068599 0.03906,0.1064276 0.143137,0.1407269 z m 0.055573,0.4163103 v 0.3134373 c 0.030752,-0.00355 0.044937,-0.00711 0.065043,-0.015403 0.059139,-0.024838 0.098165,-0.081597 0.098165,-0.1419183 0,-0.063868 -0.039022,-0.112369 -0.1135354,-0.1407547 -0.015371,-0.00592 -0.015371,-0.0059 -0.049678,-0.015368 z" />
  <path
     id="path3797-3"
     style="fill:#ffd600;fill-opacity:1;fill-rule:evenodd;stroke:#000000;stroke-width:0;stroke-miterlimit:5;stroke-dasharray:none;paint-order:stroke fill markers"
     d="M 4.017768,0 A 0.42868532,0.42868532 0 0 0 3.5890912,0.42867751 0.42868532,0.42868532 0 0 0 4.017768,0.85737367 0.42868532,0.42868532 0 0 0 4.4464648,0.42867751 0.42868532,0.42868532 0 0 0 4.017768,0 Z M 3.996885,0.06164008 h 0.037054 v 0.08200288 c 0.085945,0.006311 0.1434949,0.0528231 0.1434949,0.11669053 0,0.0339052 -0.018131,0.0544222 -0.048882,0.0544222 -0.028386,0 -0.047293,-0.018144 -0.047293,-0.0449514 0,-0.0189236 0.00549,-0.0275995 0.028377,-0.0441586 0.00312,-0.002365 0.00473,-0.005516 0.00473,-0.007881 0,-0.016558 -0.037858,-0.034701 -0.080429,-0.0394322 v 0.19555497 c 0.00473,0.001579 0.0071,0.002365 0.018129,0.005516 0.1095986,0.0315397 0.1490334,0.0725321 0.1490334,0.15453504 0,0.0993495 -0.062291,0.16164295 -0.1671624,0.16716239 v 0.0946301 h -0.037057 v -0.0938363 c -0.032323,-0.00158 -0.047321,-0.003947 -0.069396,-0.0110392 -0.057559,-0.0189236 -0.093043,-0.0622872 -0.093043,-0.11432754 0,-0.0394246 0.023645,-0.0678067 0.05597,-0.0678067 0.026806,0 0.048106,0.0212872 0.048106,0.048884 0,0.0228664 -0.0087,0.0354778 -0.036278,0.0512467 -0.00473,0.002365 -0.00634,0.004731 -0.00634,0.008677 0,0.0244429 0.044169,0.0465108 0.1009431,0.0504538 V 0.4480059 c -0.040209,-0.0118274 -0.064659,-0.0220906 -0.085949,-0.0347067 -0.04258,-0.0252321 -0.066236,-0.0678067 -0.066236,-0.11984728 0,-0.0820029 0.057568,-0.13797657 0.1521897,-0.14901535 z m 0,0.11907198 c -0.055979,0.004731 -0.095424,0.0402136 -0.095424,0.0875222 0,0.0457321 0.02604,0.0709519 0.095424,0.0938174 z M 4.033939,0.45825128 V 0.6672088 C 4.054444,0.6648438 4.063897,0.6624588 4.077304,0.6569437 4.116732,0.6403857 4.142745,0.6025451 4.142745,0.5623323 4.142745,0.519754 4.116733,0.4874195 4.067057,0.4684959 4.056809,0.4645489 4.056793,0.4645589 4.03394,0.4582512 Z" />
</svg>
