<?xml version="1.0" encoding="UTF-8" standalone="no"?>
<!-- Created with Inkscape (http://www.inkscape.org/) -->

<svg
   width="41.935966mm"
   height="39.6875mm"
   viewBox="0 0 41.935967 39.6875"
   version="1.1"
   id="svg5"
   inkscape:version="1.3.2 (091e20e, 2023-11-25)"
   sodipodi:docname="data-privacy.svg"
   inkscape:export-filename="data-privacy.svg"
   inkscape:export-xdpi="96"
   inkscape:export-ydpi="96"
   xmlns:inkscape="http://www.inkscape.org/namespaces/inkscape"
   xmlns:sodipodi="http://sodipodi.sourceforge.net/DTD/sodipodi-0.dtd"
   xmlns="http://www.w3.org/2000/svg"
   xmlns:svg="http://www.w3.org/2000/svg">
  <sodipodi:namedview
     id="namedview7"
     pagecolor="#313131"
     bordercolor="#999999"
     borderopacity="1"
     inkscape:showpageshadow="0"
     inkscape:pageopacity="0"
     inkscape:pagecheckerboard="0"
     inkscape:deskcolor="#d1d1d1"
     inkscape:document-units="mm"
     showgrid="false"
     inkscape:zoom="3.7522727"
     inkscape:cx="49.1702"
     inkscape:cy="86.214415"
     inkscape:window-width="2560"
     inkscape:window-height="1373"
     inkscape:window-x="0"
     inkscape:window-y="0"
     inkscape:window-maximized="1"
     inkscape:current-layer="g1339" />
  <defs
     id="defs2">
    <rect
       x="119.21531"
       y="77.68576"
       width="157.68456"
       height="145.55193"
       id="rect288-5" />
  </defs>
  <g
     inkscape:label="Calque 1"
     inkscape:groupmode="layer"
     id="layer1"
     transform="translate(-20.509384,-11.555231)">
    <g
       aria-label="1 0 0 0 1 1 0 1 0 1 0 0 1 0 0 1 0 0 1 0 1 1 1 1 1 0 0 1 1 0 0 1 0 0 1 0 1 1 1 0 0 1 0 1 1 0 1 1 0 0 0 1 1 1 0 1 0 1 0 1 0 1 0 1 0 0 0 0 1 1 0 0 0 1 0 1 0 0 1 1 0 1 1 0 1 0 1 1"
       transform="matrix(0.28464769,0,0,0.28464769,-13.700042,-11.153022)"
       id="text286"
       style="font-size:14.6667px;line-height:1.25;letter-spacing:0px;word-spacing:0px;white-space:pre;shape-inside:url(#rect288-5);display:inline;fill:#ffffff;fill-opacity:0.30404">
      <path
         d="m 121.03386,89.444688 h 2.36329 v -8.156919 l -2.57097,0.515626 v -1.317711 l 2.55664,-0.515627 h 1.44662 v 9.474631 h 2.36329 v 1.217451 h -6.15887 z"
         id="path2001" />
      <path
         d="m 137.87049,80.922533 q -1.11719,0 -1.68295,1.102868 -0.5586,1.095705 -0.5586,3.301439 0,2.198573 0.5586,3.30144 0.56576,1.095706 1.68295,1.095706 1.12435,0 1.68294,-1.095706 0.56576,-1.102867 0.56576,-3.30144 0,-2.205734 -0.56576,-3.301439 -0.55859,-1.102868 -1.68294,-1.102868 z m 0,-1.145835 q 1.79753,0 2.74284,1.425133 0.95248,1.417972 0.95248,4.125009 0,2.699876 -0.95248,4.12501 -0.94531,1.417972 -2.74284,1.417972 -1.79753,0 -2.75001,-1.417972 -0.94532,-1.425134 -0.94532,-4.12501 0,-2.707037 0.94532,-4.125009 0.95248,-1.425133 2.75001,-1.425133 z"
         id="path2003" />
      <path
         d="m 151.86401,80.922533 q -1.11719,0 -1.68295,1.102868 -0.55859,1.095705 -0.55859,3.301439 0,2.198573 0.55859,3.30144 0.56576,1.095706 1.68295,1.095706 1.12435,0 1.68294,-1.095706 0.56576,-1.102867 0.56576,-3.30144 0,-2.205734 -0.56576,-3.301439 -0.55859,-1.102868 -1.68294,-1.102868 z m 0,-1.145835 q 1.79753,0 2.74284,1.425133 0.95248,1.417972 0.95248,4.125009 0,2.699876 -0.95248,4.12501 -0.94531,1.417972 -2.74284,1.417972 -1.79753,0 -2.75001,-1.417972 -0.94531,-1.425134 -0.94531,-4.12501 0,-2.707037 0.94531,-4.125009 0.95248,-1.425133 2.75001,-1.425133 z"
         id="path2005" />
      <path
         d="m 165.85753,80.922533 q -1.11719,0 -1.68295,1.102868 -0.55859,1.095705 -0.55859,3.301439 0,2.198573 0.55859,3.30144 0.56576,1.095706 1.68295,1.095706 1.12435,0 1.68294,-1.095706 0.56576,-1.102867 0.56576,-3.30144 0,-2.205734 -0.56576,-3.301439 -0.55859,-1.102868 -1.68294,-1.102868 z m 0,-1.145835 q 1.79753,0 2.74284,1.425133 0.95248,1.417972 0.95248,4.125009 0,2.699876 -0.95248,4.12501 -0.94531,1.417972 -2.74284,1.417972 -1.79753,0 -2.75001,-1.417972 -0.94531,-1.425134 -0.94531,-4.12501 0,-2.707037 0.94531,-4.125009 0.95248,-1.425133 2.75001,-1.425133 z"
         id="path2007" />
      <path
         d="m 177.00795,89.444688 h 2.36328 v -8.156919 l -2.57097,0.515626 v -1.317711 l 2.55665,-0.515627 h 1.44662 v 9.474631 h 2.36328 v 1.217451 h -6.15886 z"
         id="path2009" />
      <path
         d="m 191.00146,89.444688 h 2.36329 v -8.156919 l -2.57097,0.515626 v -1.317711 l 2.55665,-0.515627 h 1.44662 v 9.474631 h 2.36328 v 1.217451 h -6.15887 z"
         id="path2011" />
      <path
         d="m 207.83809,80.922533 q -1.11719,0 -1.68294,1.102868 -0.5586,1.095705 -0.5586,3.301439 0,2.198573 0.5586,3.30144 0.56575,1.095706 1.68294,1.095706 1.12435,0 1.68295,-1.095706 0.56576,-1.102867 0.56576,-3.30144 0,-2.205734 -0.56576,-3.301439 -0.5586,-1.102868 -1.68295,-1.102868 z m 0,-1.145835 q 1.79753,0 2.74285,1.425133 0.95247,1.417972 0.95247,4.125009 0,2.699876 -0.95247,4.12501 -0.94532,1.417972 -2.74285,1.417972 -1.79753,0 -2.75,-1.417972 -0.94532,-1.425134 -0.94532,-4.12501 0,-2.707037 0.94532,-4.125009 0.95247,-1.425133 2.75,-1.425133 z"
         id="path2013" />
      <path
         d="m 218.98851,89.444688 h 2.36329 v -8.156919 l -2.57097,0.515626 v -1.317711 l 2.55664,-0.515627 h 1.44662 v 9.474631 h 2.36329 v 1.217451 h -6.15887 z"
         id="path2015" />
      <path
         d="m 235.82514,80.922533 q -1.11719,0 -1.68295,1.102868 -0.55859,1.095705 -0.55859,3.301439 0,2.198573 0.55859,3.30144 0.56576,1.095706 1.68295,1.095706 1.12435,0 1.68294,-1.095706 0.56576,-1.102867 0.56576,-3.30144 0,-2.205734 -0.56576,-3.301439 -0.55859,-1.102868 -1.68294,-1.102868 z m 0,-1.145835 q 1.79753,0 2.74284,1.425133 0.95248,1.417972 0.95248,4.125009 0,2.699876 -0.95248,4.12501 -0.94531,1.417972 -2.74284,1.417972 -1.79753,0 -2.75001,-1.417972 -0.94531,-1.425134 -0.94531,-4.12501 0,-2.707037 0.94531,-4.125009 0.95248,-1.425133 2.75001,-1.425133 z"
         id="path2017" />
      <path
         d="m 246.97555,89.444688 h 2.36329 v -8.156919 l -2.57097,0.515626 v -1.317711 l 2.55665,-0.515627 h 1.44662 v 9.474631 h 2.36328 v 1.217451 h -6.15887 z"
         id="path2019" />
      <path
         d="m 263.81218,80.922533 q -1.1172,0 -1.68295,1.102868 -0.5586,1.095705 -0.5586,3.301439 0,2.198573 0.5586,3.30144 0.56575,1.095706 1.68295,1.095706 1.12435,0 1.68294,-1.095706 0.56576,-1.102867 0.56576,-3.30144 0,-2.205734 -0.56576,-3.301439 -0.55859,-1.102868 -1.68294,-1.102868 z m 0,-1.145835 q 1.79753,0 2.74284,1.425133 0.95248,1.417972 0.95248,4.125009 0,2.699876 -0.95248,4.12501 -0.94531,1.417972 -2.74284,1.417972 -1.79754,0 -2.75001,-1.417972 -0.94532,-1.425134 -0.94532,-4.12501 0,-2.707037 0.94532,-4.125009 0.95247,-1.425133 2.75001,-1.425133 z"
         id="path2021" />
      <path
         d="m 123.87696,99.255908 q -1.11719,0 -1.68294,1.102862 -0.5586,1.09571 -0.5586,3.30144 0,2.19858 0.5586,3.30144 0.56575,1.09571 1.68294,1.09571 1.12436,0 1.68295,-1.09571 0.56576,-1.10286 0.56576,-3.30144 0,-2.20573 -0.56576,-3.30144 -0.55859,-1.102862 -1.68295,-1.102862 z m 0,-1.145836 q 1.79753,0 2.74285,1.425133 0.95247,1.417975 0.95247,4.125005 0,2.69988 -0.95247,4.12501 -0.94532,1.41798 -2.74285,1.41798 -1.79753,0 -2.75,-1.41798 -0.94532,-1.42513 -0.94532,-4.12501 0,-2.70703 0.94532,-4.125005 0.95247,-1.425133 2.75,-1.425133 z"
         id="path2023" />
      <path
         d="m 135.02738,107.77806 h 2.36329 v -8.156917 l -2.57097,0.515627 v -1.317712 l 2.55664,-0.515627 h 1.44662 v 9.474629 h 2.36329 v 1.21745 h -6.15887 z"
         id="path2025" />
      <path
         d="m 151.86401,99.255908 q -1.11719,0 -1.68295,1.102862 -0.55859,1.09571 -0.55859,3.30144 0,2.19858 0.55859,3.30144 0.56576,1.09571 1.68295,1.09571 1.12435,0 1.68294,-1.09571 0.56576,-1.10286 0.56576,-3.30144 0,-2.20573 -0.56576,-3.30144 -0.55859,-1.102862 -1.68294,-1.102862 z m 0,-1.145836 q 1.79753,0 2.74284,1.425133 0.95248,1.417975 0.95248,4.125005 0,2.69988 -0.95248,4.12501 -0.94531,1.41798 -2.74284,1.41798 -1.79753,0 -2.75001,-1.41798 -0.94531,-1.42513 -0.94531,-4.12501 0,-2.70703 0.94531,-4.125005 0.95248,-1.425133 2.75001,-1.425133 z"
         id="path2027" />
      <path
         d="m 165.85753,99.255908 q -1.11719,0 -1.68295,1.102862 -0.55859,1.09571 -0.55859,3.30144 0,2.19858 0.55859,3.30144 0.56576,1.09571 1.68295,1.09571 1.12435,0 1.68294,-1.09571 0.56576,-1.10286 0.56576,-3.30144 0,-2.20573 -0.56576,-3.30144 -0.55859,-1.102862 -1.68294,-1.102862 z m 0,-1.145836 q 1.79753,0 2.74284,1.425133 0.95248,1.417975 0.95248,4.125005 0,2.69988 -0.95248,4.12501 -0.94531,1.41798 -2.74284,1.41798 -1.79753,0 -2.75001,-1.41798 -0.94531,-1.42513 -0.94531,-4.12501 0,-2.70703 0.94531,-4.125005 0.95248,-1.425133 2.75001,-1.425133 z"
         id="path2029" />
      <path
         d="m 177.00795,107.77806 h 2.36328 v -8.156917 l -2.57097,0.515627 v -1.317712 l 2.55665,-0.515627 h 1.44662 v 9.474629 h 2.36328 v 1.21745 h -6.15886 z"
         id="path2031" />
      <path
         d="m 193.84457,99.255908 q -1.11719,0 -1.68295,1.102862 -0.55859,1.09571 -0.55859,3.30144 0,2.19858 0.55859,3.30144 0.56576,1.09571 1.68295,1.09571 1.12435,0 1.68295,-1.09571 0.56575,-1.10286 0.56575,-3.30144 0,-2.20573 -0.56575,-3.30144 -0.5586,-1.102862 -1.68295,-1.102862 z m 0,-1.145836 q 1.79753,0 2.74284,1.425133 0.95248,1.417975 0.95248,4.125005 0,2.69988 -0.95248,4.12501 -0.94531,1.41798 -2.74284,1.41798 -1.79753,0 -2.75001,-1.41798 -0.94531,-1.42513 -0.94531,-4.12501 0,-2.70703 0.94531,-4.125005 0.95248,-1.425133 2.75001,-1.425133 z"
         id="path2033" />
      <path
         d="m 207.83809,99.255908 q -1.11719,0 -1.68294,1.102862 -0.5586,1.09571 -0.5586,3.30144 0,2.19858 0.5586,3.30144 0.56575,1.09571 1.68294,1.09571 1.12435,0 1.68295,-1.09571 0.56576,-1.10286 0.56576,-3.30144 0,-2.20573 -0.56576,-3.30144 -0.5586,-1.102862 -1.68295,-1.102862 z m 0,-1.145836 q 1.79753,0 2.74285,1.425133 0.95247,1.417975 0.95247,4.125005 0,2.69988 -0.95247,4.12501 -0.94532,1.41798 -2.74285,1.41798 -1.79753,0 -2.75,-1.41798 -0.94532,-1.42513 -0.94532,-4.12501 0,-2.70703 0.94532,-4.125005 0.95247,-1.425133 2.75,-1.425133 z"
         id="path2035" />
      <path
         d="m 218.98851,107.77806 h 2.36329 v -8.156917 l -2.57097,0.515627 v -1.317712 l 2.55664,-0.515627 h 1.44662 v 9.474629 h 2.36329 v 1.21745 h -6.15887 z"
         id="path2037" />
      <path
         d="m 235.82514,99.255908 q -1.11719,0 -1.68295,1.102862 -0.55859,1.09571 -0.55859,3.30144 0,2.19858 0.55859,3.30144 0.56576,1.09571 1.68295,1.09571 1.12435,0 1.68294,-1.09571 0.56576,-1.10286 0.56576,-3.30144 0,-2.20573 -0.56576,-3.30144 -0.55859,-1.102862 -1.68294,-1.102862 z m 0,-1.145836 q 1.79753,0 2.74284,1.425133 0.95248,1.417975 0.95248,4.125005 0,2.69988 -0.95248,4.12501 -0.94531,1.41798 -2.74284,1.41798 -1.79753,0 -2.75001,-1.41798 -0.94531,-1.42513 -0.94531,-4.12501 0,-2.70703 0.94531,-4.125005 0.95248,-1.425133 2.75001,-1.425133 z"
         id="path2039" />
      <path
         d="m 246.97555,107.77806 h 2.36329 v -8.156917 l -2.57097,0.515627 v -1.317712 l 2.55665,-0.515627 h 1.44662 v 9.474629 h 2.36328 v 1.21745 h -6.15887 z"
         id="path2041" />
      <path
         d="m 260.96907,107.77806 h 2.36329 v -8.156917 l -2.57097,0.515627 v -1.317712 l 2.55664,-0.515627 h 1.44662 v 9.474629 h 2.36329 v 1.21745 h -6.15887 z"
         id="path2043" />
      <path
         d="m 121.03386,126.11144 h 2.36329 v -8.15692 l -2.57097,0.51562 v -1.31771 l 2.55664,-0.51562 h 1.44662 v 9.47463 h 2.36329 v 1.21745 h -6.15887 z"
         id="path2045" />
      <path
         d="m 135.02738,126.11144 h 2.36329 v -8.15692 l -2.57097,0.51562 v -1.31771 l 2.55664,-0.51562 h 1.44662 v 9.47463 h 2.36329 v 1.21745 h -6.15887 z"
         id="path2047" />
      <path
         d="m 149.0209,126.11144 h 2.36329 v -8.15692 l -2.57097,0.51562 v -1.31771 l 2.55665,-0.51562 h 1.44661 v 9.47463 h 2.36329 v 1.21745 h -6.15887 z"
         id="path2049" />
      <path
         d="m 165.85753,117.58928 q -1.11719,0 -1.68295,1.10287 -0.55859,1.0957 -0.55859,3.30144 0,2.19857 0.55859,3.30144 0.56576,1.0957 1.68295,1.0957 1.12435,0 1.68294,-1.0957 0.56576,-1.10287 0.56576,-3.30144 0,-2.20574 -0.56576,-3.30144 -0.55859,-1.10287 -1.68294,-1.10287 z m 0,-1.14583 q 1.79753,0 2.74284,1.42513 0.95248,1.41797 0.95248,4.12501 0,2.69987 -0.95248,4.12501 -0.94531,1.41797 -2.74284,1.41797 -1.79753,0 -2.75001,-1.41797 -0.94531,-1.42514 -0.94531,-4.12501 0,-2.70704 0.94531,-4.12501 0.95248,-1.42513 2.75001,-1.42513 z"
         id="path2051" />
      <path
         d="m 179.85105,117.58928 q -1.11719,0 -1.68295,1.10287 -0.55859,1.0957 -0.55859,3.30144 0,2.19857 0.55859,3.30144 0.56576,1.0957 1.68295,1.0957 1.12435,0 1.68295,-1.0957 0.56575,-1.10287 0.56575,-3.30144 0,-2.20574 -0.56575,-3.30144 -0.5586,-1.10287 -1.68295,-1.10287 z m 0,-1.14583 q 1.79753,0 2.74285,1.42513 0.95247,1.41797 0.95247,4.12501 0,2.69987 -0.95247,4.12501 -0.94532,1.41797 -2.74285,1.41797 -1.79753,0 -2.75001,-1.41797 -0.94531,-1.42514 -0.94531,-4.12501 0,-2.70704 0.94531,-4.12501 0.95248,-1.42513 2.75001,-1.42513 z"
         id="path2053" />
      <path
         d="m 191.00146,126.11144 h 2.36329 v -8.15692 l -2.57097,0.51562 v -1.31771 l 2.55665,-0.51562 h 1.44662 v 9.47463 h 2.36328 v 1.21745 h -6.15887 z"
         id="path2055" />
      <path
         d="m 204.99499,126.11144 h 2.36328 v -8.15692 l -2.57097,0.51562 v -1.31771 l 2.55665,-0.51562 h 1.44662 v 9.47463 h 2.36328 v 1.21745 h -6.15886 z"
         id="path2057" />
      <path
         d="m 221.83161,117.58928 q -1.11719,0 -1.68294,1.10287 -0.5586,1.0957 -0.5586,3.30144 0,2.19857 0.5586,3.30144 0.56575,1.0957 1.68294,1.0957 1.12436,0 1.68295,-1.0957 0.56576,-1.10287 0.56576,-3.30144 0,-2.20574 -0.56576,-3.30144 -0.55859,-1.10287 -1.68295,-1.10287 z m 0,-1.14583 q 1.79753,0 2.74285,1.42513 0.95248,1.41797 0.95248,4.12501 0,2.69987 -0.95248,4.12501 -0.94532,1.41797 -2.74285,1.41797 -1.79753,0 -2.75,-1.41797 -0.94532,-1.42514 -0.94532,-4.12501 0,-2.70704 0.94532,-4.12501 0.95247,-1.42513 2.75,-1.42513 z"
         id="path2059" />
      <path
         d="m 235.82514,117.58928 q -1.11719,0 -1.68295,1.10287 -0.55859,1.0957 -0.55859,3.30144 0,2.19857 0.55859,3.30144 0.56576,1.0957 1.68295,1.0957 1.12435,0 1.68294,-1.0957 0.56576,-1.10287 0.56576,-3.30144 0,-2.20574 -0.56576,-3.30144 -0.55859,-1.10287 -1.68294,-1.10287 z m 0,-1.14583 q 1.79753,0 2.74284,1.42513 0.95248,1.41797 0.95248,4.12501 0,2.69987 -0.95248,4.12501 -0.94531,1.41797 -2.74284,1.41797 -1.79753,0 -2.75001,-1.41797 -0.94531,-1.42514 -0.94531,-4.12501 0,-2.70704 0.94531,-4.12501 0.95248,-1.42513 2.75001,-1.42513 z"
         id="path2061" />
      <path
         d="m 246.97555,126.11144 h 2.36329 v -8.15692 l -2.57097,0.51562 v -1.31771 l 2.55665,-0.51562 h 1.44662 v 9.47463 h 2.36328 v 1.21745 h -6.15887 z"
         id="path2063" />
      <path
         d="m 263.81218,117.58928 q -1.1172,0 -1.68295,1.10287 -0.5586,1.0957 -0.5586,3.30144 0,2.19857 0.5586,3.30144 0.56575,1.0957 1.68295,1.0957 1.12435,0 1.68294,-1.0957 0.56576,-1.10287 0.56576,-3.30144 0,-2.20574 -0.56576,-3.30144 -0.55859,-1.10287 -1.68294,-1.10287 z m 0,-1.14583 q 1.79753,0 2.74284,1.42513 0.95248,1.41797 0.95248,4.12501 0,2.69987 -0.95248,4.12501 -0.94531,1.41797 -2.74284,1.41797 -1.79754,0 -2.75001,-1.41797 -0.94532,-1.42514 -0.94532,-4.12501 0,-2.70704 0.94532,-4.12501 0.95247,-1.42513 2.75001,-1.42513 z"
         id="path2065" />
      <path
         d="m 123.87696,135.92266 q -1.11719,0 -1.68294,1.10286 -0.5586,1.09571 -0.5586,3.30144 0,2.19858 0.5586,3.30144 0.56575,1.09571 1.68294,1.09571 1.12436,0 1.68295,-1.09571 0.56576,-1.10286 0.56576,-3.30144 0,-2.20573 -0.56576,-3.30144 -0.55859,-1.10286 -1.68295,-1.10286 z m 0,-1.14584 q 1.79753,0 2.74285,1.42513 0.95247,1.41798 0.95247,4.12501 0,2.69988 -0.95247,4.12501 -0.94532,1.41797 -2.74285,1.41797 -1.79753,0 -2.75,-1.41797 -0.94532,-1.42513 -0.94532,-4.12501 0,-2.70703 0.94532,-4.12501 0.95247,-1.42513 2.75,-1.42513 z"
         id="path2067" />
      <path
         d="m 135.02738,144.44481 h 2.36329 v -8.15692 l -2.57097,0.51563 v -1.31771 l 2.55664,-0.51563 h 1.44662 v 9.47463 h 2.36329 v 1.21745 h -6.15887 z"
         id="path2069" />
      <path
         d="m 151.86401,135.92266 q -1.11719,0 -1.68295,1.10286 -0.55859,1.09571 -0.55859,3.30144 0,2.19858 0.55859,3.30144 0.56576,1.09571 1.68295,1.09571 1.12435,0 1.68294,-1.09571 0.56576,-1.10286 0.56576,-3.30144 0,-2.20573 -0.56576,-3.30144 -0.55859,-1.10286 -1.68294,-1.10286 z m 0,-1.14584 q 1.79753,0 2.74284,1.42513 0.95248,1.41798 0.95248,4.12501 0,2.69988 -0.95248,4.12501 -0.94531,1.41797 -2.74284,1.41797 -1.79753,0 -2.75001,-1.41797 -0.94531,-1.42513 -0.94531,-4.12501 0,-2.70703 0.94531,-4.12501 0.95248,-1.42513 2.75001,-1.42513 z"
         id="path2071" />
      <path
         d="m 163.01442,144.44481 h 2.36329 v -8.15692 l -2.57097,0.51563 v -1.31771 l 2.55665,-0.51563 H 166.81 v 9.47463 h 2.36329 v 1.21745 h -6.15887 z"
         id="path2073" />
      <path
         d="m 177.00795,144.44481 h 2.36328 v -8.15692 l -2.57097,0.51563 v -1.31771 l 2.55665,-0.51563 h 1.44662 v 9.47463 h 2.36328 v 1.21745 h -6.15886 z"
         id="path2075" />
      <path
         d="m 191.00146,144.44481 h 2.36329 v -8.15692 l -2.57097,0.51563 v -1.31771 l 2.55665,-0.51563 h 1.44662 v 9.47463 h 2.36328 v 1.21745 h -6.15887 z"
         id="path2077" />
      <path
         d="m 207.83809,135.92266 q -1.11719,0 -1.68294,1.10286 -0.5586,1.09571 -0.5586,3.30144 0,2.19858 0.5586,3.30144 0.56575,1.09571 1.68294,1.09571 1.12435,0 1.68295,-1.09571 0.56576,-1.10286 0.56576,-3.30144 0,-2.20573 -0.56576,-3.30144 -0.5586,-1.10286 -1.68295,-1.10286 z m 0,-1.14584 q 1.79753,0 2.74285,1.42513 0.95247,1.41798 0.95247,4.12501 0,2.69988 -0.95247,4.12501 -0.94532,1.41797 -2.74285,1.41797 -1.79753,0 -2.75,-1.41797 -0.94532,-1.42513 -0.94532,-4.12501 0,-2.70703 0.94532,-4.12501 0.95247,-1.42513 2.75,-1.42513 z"
         id="path2079" />
      <path
         d="m 221.83161,135.92266 q -1.11719,0 -1.68294,1.10286 -0.5586,1.09571 -0.5586,3.30144 0,2.19858 0.5586,3.30144 0.56575,1.09571 1.68294,1.09571 1.12436,0 1.68295,-1.09571 0.56576,-1.10286 0.56576,-3.30144 0,-2.20573 -0.56576,-3.30144 -0.55859,-1.10286 -1.68295,-1.10286 z m 0,-1.14584 q 1.79753,0 2.74285,1.42513 0.95248,1.41798 0.95248,4.12501 0,2.69988 -0.95248,4.12501 -0.94532,1.41797 -2.74285,1.41797 -1.79753,0 -2.75,-1.41797 -0.94532,-1.42513 -0.94532,-4.12501 0,-2.70703 0.94532,-4.12501 0.95247,-1.42513 2.75,-1.42513 z"
         id="path2081" />
      <path
         d="m 232.98203,144.44481 h 2.36329 v -8.15692 l -2.57097,0.51563 v -1.31771 l 2.55665,-0.51563 h 1.44661 v 9.47463 h 2.36329 v 1.21745 h -6.15887 z"
         id="path2083" />
      <path
         d="m 249.81866,135.92266 q -1.11719,0 -1.68295,1.10286 -0.55859,1.09571 -0.55859,3.30144 0,2.19858 0.55859,3.30144 0.56576,1.09571 1.68295,1.09571 1.12435,0 1.68295,-1.09571 0.56575,-1.10286 0.56575,-3.30144 0,-2.20573 -0.56575,-3.30144 -0.5586,-1.10286 -1.68295,-1.10286 z m 0,-1.14584 q 1.79753,0 2.74284,1.42513 0.95248,1.41798 0.95248,4.12501 0,2.69988 -0.95248,4.12501 -0.94531,1.41797 -2.74284,1.41797 -1.79753,0 -2.75001,-1.41797 -0.94531,-1.42513 -0.94531,-4.12501 0,-2.70703 0.94531,-4.12501 0.95248,-1.42513 2.75001,-1.42513 z"
         id="path2085" />
      <path
         d="m 260.96907,144.44481 h 2.36329 v -8.15692 l -2.57097,0.51563 v -1.31771 l 2.55664,-0.51563 h 1.44662 v 9.47463 h 2.36329 v 1.21745 h -6.15887 z"
         id="path2087" />
      <path
         d="m 121.03386,162.77818 h 2.36329 v -8.15692 l -2.57097,0.51563 v -1.31771 l 2.55664,-0.51563 h 1.44662 v 9.47463 h 2.36329 v 1.21746 h -6.15887 z"
         id="path2089" />
      <path
         d="m 137.87049,154.25603 q -1.11719,0 -1.68295,1.10287 -0.5586,1.0957 -0.5586,3.30144 0,2.19857 0.5586,3.30144 0.56576,1.0957 1.68295,1.0957 1.12435,0 1.68294,-1.0957 0.56576,-1.10287 0.56576,-3.30144 0,-2.20574 -0.56576,-3.30144 -0.55859,-1.10287 -1.68294,-1.10287 z m 0,-1.14584 q 1.79753,0 2.74284,1.42514 0.95248,1.41797 0.95248,4.12501 0,2.69987 -0.95248,4.12501 -0.94531,1.41797 -2.74284,1.41797 -1.79753,0 -2.75001,-1.41797 -0.94532,-1.42514 -0.94532,-4.12501 0,-2.70704 0.94532,-4.12501 0.95248,-1.42514 2.75001,-1.42514 z"
         id="path2091" />
      <path
         d="m 149.0209,162.77818 h 2.36329 v -8.15692 l -2.57097,0.51563 v -1.31771 l 2.55665,-0.51563 h 1.44661 v 9.47463 h 2.36329 v 1.21746 h -6.15887 z"
         id="path2093" />
      <path
         d="m 163.01442,162.77818 h 2.36329 v -8.15692 l -2.57097,0.51563 v -1.31771 l 2.55665,-0.51563 H 166.81 v 9.47463 h 2.36329 v 1.21746 h -6.15887 z"
         id="path2095" />
      <path
         d="m 179.85105,154.25603 q -1.11719,0 -1.68295,1.10287 -0.55859,1.0957 -0.55859,3.30144 0,2.19857 0.55859,3.30144 0.56576,1.0957 1.68295,1.0957 1.12435,0 1.68295,-1.0957 0.56575,-1.10287 0.56575,-3.30144 0,-2.20574 -0.56575,-3.30144 -0.5586,-1.10287 -1.68295,-1.10287 z m 0,-1.14584 q 1.79753,0 2.74285,1.42514 0.95247,1.41797 0.95247,4.12501 0,2.69987 -0.95247,4.12501 -0.94532,1.41797 -2.74285,1.41797 -1.79753,0 -2.75001,-1.41797 -0.94531,-1.42514 -0.94531,-4.12501 0,-2.70704 0.94531,-4.12501 0.95248,-1.42514 2.75001,-1.42514 z"
         id="path2097" />
      <path
         d="m 193.84457,154.25603 q -1.11719,0 -1.68295,1.10287 -0.55859,1.0957 -0.55859,3.30144 0,2.19857 0.55859,3.30144 0.56576,1.0957 1.68295,1.0957 1.12435,0 1.68295,-1.0957 0.56575,-1.10287 0.56575,-3.30144 0,-2.20574 -0.56575,-3.30144 -0.5586,-1.10287 -1.68295,-1.10287 z m 0,-1.14584 q 1.79753,0 2.74284,1.42514 0.95248,1.41797 0.95248,4.12501 0,2.69987 -0.95248,4.12501 -0.94531,1.41797 -2.74284,1.41797 -1.79753,0 -2.75001,-1.41797 -0.94531,-1.42514 -0.94531,-4.12501 0,-2.70704 0.94531,-4.12501 0.95248,-1.42514 2.75001,-1.42514 z"
         id="path2099" />
      <path
         d="m 207.83809,154.25603 q -1.11719,0 -1.68294,1.10287 -0.5586,1.0957 -0.5586,3.30144 0,2.19857 0.5586,3.30144 0.56575,1.0957 1.68294,1.0957 1.12435,0 1.68295,-1.0957 0.56576,-1.10287 0.56576,-3.30144 0,-2.20574 -0.56576,-3.30144 -0.5586,-1.10287 -1.68295,-1.10287 z m 0,-1.14584 q 1.79753,0 2.74285,1.42514 0.95247,1.41797 0.95247,4.12501 0,2.69987 -0.95247,4.12501 -0.94532,1.41797 -2.74285,1.41797 -1.79753,0 -2.75,-1.41797 -0.94532,-1.42514 -0.94532,-4.12501 0,-2.70704 0.94532,-4.12501 0.95247,-1.42514 2.75,-1.42514 z"
         id="path2101" />
      <path
         d="m 218.98851,162.77818 h 2.36329 v -8.15692 l -2.57097,0.51563 v -1.31771 l 2.55664,-0.51563 h 1.44662 v 9.47463 h 2.36329 v 1.21746 h -6.15887 z"
         id="path2103" />
      <path
         d="m 232.98203,162.77818 h 2.36329 v -8.15692 l -2.57097,0.51563 v -1.31771 l 2.55665,-0.51563 h 1.44661 v 9.47463 h 2.36329 v 1.21746 h -6.15887 z"
         id="path2105" />
      <path
         d="m 246.97555,162.77818 h 2.36329 v -8.15692 l -2.57097,0.51563 v -1.31771 l 2.55665,-0.51563 h 1.44662 v 9.47463 h 2.36328 v 1.21746 h -6.15887 z"
         id="path2107" />
      <path
         d="m 263.81218,154.25603 q -1.1172,0 -1.68295,1.10287 -0.5586,1.0957 -0.5586,3.30144 0,2.19857 0.5586,3.30144 0.56575,1.0957 1.68295,1.0957 1.12435,0 1.68294,-1.0957 0.56576,-1.10287 0.56576,-3.30144 0,-2.20574 -0.56576,-3.30144 -0.55859,-1.10287 -1.68294,-1.10287 z m 0,-1.14584 q 1.79753,0 2.74284,1.42514 0.95248,1.41797 0.95248,4.12501 0,2.69987 -0.95248,4.12501 -0.94531,1.41797 -2.74284,1.41797 -1.79754,0 -2.75001,-1.41797 -0.94532,-1.42514 -0.94532,-4.12501 0,-2.70704 0.94532,-4.12501 0.95247,-1.42514 2.75001,-1.42514 z"
         id="path2109" />
      <path
         d="m 121.03386,181.11156 h 2.36329 v -8.15692 l -2.57097,0.51562 v -1.31771 l 2.55664,-0.51562 h 1.44662 v 9.47463 h 2.36329 v 1.21745 h -6.15887 z"
         id="path2111" />
      <path
         d="m 137.87049,172.5894 q -1.11719,0 -1.68295,1.10287 -0.5586,1.09571 -0.5586,3.30144 0,2.19857 0.5586,3.30144 0.56576,1.09571 1.68295,1.09571 1.12435,0 1.68294,-1.09571 0.56576,-1.10287 0.56576,-3.30144 0,-2.20573 -0.56576,-3.30144 -0.55859,-1.10287 -1.68294,-1.10287 z m 0,-1.14583 q 1.79753,0 2.74284,1.42513 0.95248,1.41797 0.95248,4.12501 0,2.69988 -0.95248,4.12501 -0.94531,1.41797 -2.74284,1.41797 -1.79753,0 -2.75001,-1.41797 -0.94532,-1.42513 -0.94532,-4.12501 0,-2.70704 0.94532,-4.12501 0.95248,-1.42513 2.75001,-1.42513 z"
         id="path2113" />
      <path
         d="m 149.0209,181.11156 h 2.36329 v -8.15692 l -2.57097,0.51562 v -1.31771 l 2.55665,-0.51562 h 1.44661 v 9.47463 h 2.36329 v 1.21745 h -6.15887 z"
         id="path2115" />
      <path
         d="m 165.85753,172.5894 q -1.11719,0 -1.68295,1.10287 -0.55859,1.09571 -0.55859,3.30144 0,2.19857 0.55859,3.30144 0.56576,1.09571 1.68295,1.09571 1.12435,0 1.68294,-1.09571 0.56576,-1.10287 0.56576,-3.30144 0,-2.20573 -0.56576,-3.30144 -0.55859,-1.10287 -1.68294,-1.10287 z m 0,-1.14583 q 1.79753,0 2.74284,1.42513 0.95248,1.41797 0.95248,4.12501 0,2.69988 -0.95248,4.12501 -0.94531,1.41797 -2.74284,1.41797 -1.79753,0 -2.75001,-1.41797 -0.94531,-1.42513 -0.94531,-4.12501 0,-2.70704 0.94531,-4.12501 0.95248,-1.42513 2.75001,-1.42513 z"
         id="path2117" />
      <path
         d="m 177.00795,181.11156 h 2.36328 v -8.15692 l -2.57097,0.51562 v -1.31771 l 2.55665,-0.51562 h 1.44662 v 9.47463 h 2.36328 v 1.21745 h -6.15886 z"
         id="path2119" />
      <path
         d="m 193.84457,172.5894 q -1.11719,0 -1.68295,1.10287 -0.55859,1.09571 -0.55859,3.30144 0,2.19857 0.55859,3.30144 0.56576,1.09571 1.68295,1.09571 1.12435,0 1.68295,-1.09571 0.56575,-1.10287 0.56575,-3.30144 0,-2.20573 -0.56575,-3.30144 -0.5586,-1.10287 -1.68295,-1.10287 z m 0,-1.14583 q 1.79753,0 2.74284,1.42513 0.95248,1.41797 0.95248,4.12501 0,2.69988 -0.95248,4.12501 -0.94531,1.41797 -2.74284,1.41797 -1.79753,0 -2.75001,-1.41797 -0.94531,-1.42513 -0.94531,-4.12501 0,-2.70704 0.94531,-4.12501 0.95248,-1.42513 2.75001,-1.42513 z"
         id="path2121" />
      <path
         d="m 204.99499,181.11156 h 2.36328 v -8.15692 l -2.57097,0.51562 v -1.31771 l 2.55665,-0.51562 h 1.44662 v 9.47463 h 2.36328 v 1.21745 h -6.15886 z"
         id="path2123" />
      <path
         d="m 221.83161,172.5894 q -1.11719,0 -1.68294,1.10287 -0.5586,1.09571 -0.5586,3.30144 0,2.19857 0.5586,3.30144 0.56575,1.09571 1.68294,1.09571 1.12436,0 1.68295,-1.09571 0.56576,-1.10287 0.56576,-3.30144 0,-2.20573 -0.56576,-3.30144 -0.55859,-1.10287 -1.68295,-1.10287 z m 0,-1.14583 q 1.79753,0 2.74285,1.42513 0.95248,1.41797 0.95248,4.12501 0,2.69988 -0.95248,4.12501 -0.94532,1.41797 -2.74285,1.41797 -1.79753,0 -2.75,-1.41797 -0.94532,-1.42513 -0.94532,-4.12501 0,-2.70704 0.94532,-4.12501 0.95247,-1.42513 2.75,-1.42513 z"
         id="path2125" />
      <path
         d="m 232.98203,181.11156 h 2.36329 v -8.15692 l -2.57097,0.51562 v -1.31771 l 2.55665,-0.51562 h 1.44661 v 9.47463 h 2.36329 v 1.21745 h -6.15887 z"
         id="path2127" />
      <path
         d="m 249.81866,172.5894 q -1.11719,0 -1.68295,1.10287 -0.55859,1.09571 -0.55859,3.30144 0,2.19857 0.55859,3.30144 0.56576,1.09571 1.68295,1.09571 1.12435,0 1.68295,-1.09571 0.56575,-1.10287 0.56575,-3.30144 0,-2.20573 -0.56575,-3.30144 -0.5586,-1.10287 -1.68295,-1.10287 z m 0,-1.14583 q 1.79753,0 2.74284,1.42513 0.95248,1.41797 0.95248,4.12501 0,2.69988 -0.95248,4.12501 -0.94531,1.41797 -2.74284,1.41797 -1.79753,0 -2.75001,-1.41797 -0.94531,-1.42513 -0.94531,-4.12501 0,-2.70704 0.94531,-4.12501 0.95248,-1.42513 2.75001,-1.42513 z"
         id="path2129" />
      <path
         d="m 263.81218,172.5894 q -1.1172,0 -1.68295,1.10287 -0.5586,1.09571 -0.5586,3.30144 0,2.19857 0.5586,3.30144 0.56575,1.09571 1.68295,1.09571 1.12435,0 1.68294,-1.09571 0.56576,-1.10287 0.56576,-3.30144 0,-2.20573 -0.56576,-3.30144 -0.55859,-1.10287 -1.68294,-1.10287 z m 0,-1.14583 q 1.79753,0 2.74284,1.42513 0.95248,1.41797 0.95248,4.12501 0,2.69988 -0.95248,4.12501 -0.94531,1.41797 -2.74284,1.41797 -1.79754,0 -2.75001,-1.41797 -0.94532,-1.42513 -0.94532,-4.12501 0,-2.70704 0.94532,-4.12501 0.95247,-1.42513 2.75001,-1.42513 z"
         id="path2131" />
      <path
         d="m 123.87696,190.92278 q -1.11719,0 -1.68294,1.10286 -0.5586,1.09571 -0.5586,3.30144 0,2.19858 0.5586,3.30144 0.56575,1.09571 1.68294,1.09571 1.12436,0 1.68295,-1.09571 0.56576,-1.10286 0.56576,-3.30144 0,-2.20573 -0.56576,-3.30144 -0.55859,-1.10286 -1.68295,-1.10286 z m 0,-1.14584 q 1.79753,0 2.74285,1.42514 0.95247,1.41797 0.95247,4.125 0,2.69988 -0.95247,4.12501 -0.94532,1.41798 -2.74285,1.41798 -1.79753,0 -2.75,-1.41798 -0.94532,-1.42513 -0.94532,-4.12501 0,-2.70703 0.94532,-4.125 0.95247,-1.42514 2.75,-1.42514 z"
         id="path2133" />
      <path
         d="m 137.87049,190.92278 q -1.11719,0 -1.68295,1.10286 -0.5586,1.09571 -0.5586,3.30144 0,2.19858 0.5586,3.30144 0.56576,1.09571 1.68295,1.09571 1.12435,0 1.68294,-1.09571 0.56576,-1.10286 0.56576,-3.30144 0,-2.20573 -0.56576,-3.30144 -0.55859,-1.10286 -1.68294,-1.10286 z m 0,-1.14584 q 1.79753,0 2.74284,1.42514 0.95248,1.41797 0.95248,4.125 0,2.69988 -0.95248,4.12501 -0.94531,1.41798 -2.74284,1.41798 -1.79753,0 -2.75001,-1.41798 -0.94532,-1.42513 -0.94532,-4.12501 0,-2.70703 0.94532,-4.125 0.95248,-1.42514 2.75001,-1.42514 z"
         id="path2135" />
      <path
         d="m 149.0209,199.44493 h 2.36329 v -8.15692 l -2.57097,0.51563 v -1.31771 l 2.55665,-0.51563 h 1.44661 v 9.47463 h 2.36329 v 1.21745 h -6.15887 z"
         id="path2137" />
      <path
         d="m 163.01442,199.44493 h 2.36329 v -8.15692 l -2.57097,0.51563 v -1.31771 l 2.55665,-0.51563 H 166.81 v 9.47463 h 2.36329 v 1.21745 h -6.15887 z"
         id="path2139" />
      <path
         d="m 179.85105,190.92278 q -1.11719,0 -1.68295,1.10286 -0.55859,1.09571 -0.55859,3.30144 0,2.19858 0.55859,3.30144 0.56576,1.09571 1.68295,1.09571 1.12435,0 1.68295,-1.09571 0.56575,-1.10286 0.56575,-3.30144 0,-2.20573 -0.56575,-3.30144 -0.5586,-1.10286 -1.68295,-1.10286 z m 0,-1.14584 q 1.79753,0 2.74285,1.42514 0.95247,1.41797 0.95247,4.125 0,2.69988 -0.95247,4.12501 -0.94532,1.41798 -2.74285,1.41798 -1.79753,0 -2.75001,-1.41798 -0.94531,-1.42513 -0.94531,-4.12501 0,-2.70703 0.94531,-4.125 0.95248,-1.42514 2.75001,-1.42514 z"
         id="path2141" />
      <path
         d="m 193.84457,190.92278 q -1.11719,0 -1.68295,1.10286 -0.55859,1.09571 -0.55859,3.30144 0,2.19858 0.55859,3.30144 0.56576,1.09571 1.68295,1.09571 1.12435,0 1.68295,-1.09571 0.56575,-1.10286 0.56575,-3.30144 0,-2.20573 -0.56575,-3.30144 -0.5586,-1.10286 -1.68295,-1.10286 z m 0,-1.14584 q 1.79753,0 2.74284,1.42514 0.95248,1.41797 0.95248,4.125 0,2.69988 -0.95248,4.12501 -0.94531,1.41798 -2.74284,1.41798 -1.79753,0 -2.75001,-1.41798 -0.94531,-1.42513 -0.94531,-4.12501 0,-2.70703 0.94531,-4.125 0.95248,-1.42514 2.75001,-1.42514 z"
         id="path2143" />
      <path
         d="m 207.83809,190.92278 q -1.11719,0 -1.68294,1.10286 -0.5586,1.09571 -0.5586,3.30144 0,2.19858 0.5586,3.30144 0.56575,1.09571 1.68294,1.09571 1.12435,0 1.68295,-1.09571 0.56576,-1.10286 0.56576,-3.30144 0,-2.20573 -0.56576,-3.30144 -0.5586,-1.10286 -1.68295,-1.10286 z m 0,-1.14584 q 1.79753,0 2.74285,1.42514 0.95247,1.41797 0.95247,4.125 0,2.69988 -0.95247,4.12501 -0.94532,1.41798 -2.74285,1.41798 -1.79753,0 -2.75,-1.41798 -0.94532,-1.42513 -0.94532,-4.12501 0,-2.70703 0.94532,-4.125 0.95247,-1.42514 2.75,-1.42514 z"
         id="path2145" />
      <path
         d="m 218.98851,199.44493 h 2.36329 v -8.15692 l -2.57097,0.51563 v -1.31771 l 2.55664,-0.51563 h 1.44662 v 9.47463 h 2.36329 v 1.21745 h -6.15887 z"
         id="path2147" />
      <path
         d="m 235.82514,190.92278 q -1.11719,0 -1.68295,1.10286 -0.55859,1.09571 -0.55859,3.30144 0,2.19858 0.55859,3.30144 0.56576,1.09571 1.68295,1.09571 1.12435,0 1.68294,-1.09571 0.56576,-1.10286 0.56576,-3.30144 0,-2.20573 -0.56576,-3.30144 -0.55859,-1.10286 -1.68294,-1.10286 z m 0,-1.14584 q 1.79753,0 2.74284,1.42514 0.95248,1.41797 0.95248,4.125 0,2.69988 -0.95248,4.12501 -0.94531,1.41798 -2.74284,1.41798 -1.79753,0 -2.75001,-1.41798 -0.94531,-1.42513 -0.94531,-4.12501 0,-2.70703 0.94531,-4.125 0.95248,-1.42514 2.75001,-1.42514 z"
         id="path2149" />
      <path
         d="m 246.97555,199.44493 h 2.36329 v -8.15692 l -2.57097,0.51563 v -1.31771 l 2.55665,-0.51563 h 1.44662 v 9.47463 h 2.36328 v 1.21745 h -6.15887 z"
         id="path2151" />
      <path
         d="m 263.81218,190.92278 q -1.1172,0 -1.68295,1.10286 -0.5586,1.09571 -0.5586,3.30144 0,2.19858 0.5586,3.30144 0.56575,1.09571 1.68295,1.09571 1.12435,0 1.68294,-1.09571 0.56576,-1.10286 0.56576,-3.30144 0,-2.20573 -0.56576,-3.30144 -0.55859,-1.10286 -1.68294,-1.10286 z m 0,-1.14584 q 1.79753,0 2.74284,1.42514 0.95248,1.41797 0.95248,4.125 0,2.69988 -0.95248,4.12501 -0.94531,1.41798 -2.74284,1.41798 -1.79754,0 -2.75001,-1.41798 -0.94532,-1.42513 -0.94532,-4.12501 0,-2.70703 0.94532,-4.125 0.95247,-1.42514 2.75001,-1.42514 z"
         id="path2153" />
      <path
         d="m 123.87696,209.25615 q -1.11719,0 -1.68294,1.10287 -0.5586,1.0957 -0.5586,3.30144 0,2.19857 0.5586,3.30144 0.56575,1.0957 1.68294,1.0957 1.12436,0 1.68295,-1.0957 0.56576,-1.10287 0.56576,-3.30144 0,-2.20574 -0.56576,-3.30144 -0.55859,-1.10287 -1.68295,-1.10287 z m 0,-1.14583 q 1.79753,0 2.74285,1.42513 0.95247,1.41797 0.95247,4.12501 0,2.69987 -0.95247,4.12501 -0.94532,1.41797 -2.74285,1.41797 -1.79753,0 -2.75,-1.41797 -0.94532,-1.42514 -0.94532,-4.12501 0,-2.70704 0.94532,-4.12501 0.95247,-1.42513 2.75,-1.42513 z"
         id="path2155" />
      <path
         d="m 135.02738,217.77831 h 2.36329 v -8.15692 l -2.57097,0.51562 v -1.31771 l 2.55664,-0.51562 h 1.44662 v 9.47463 h 2.36329 v 1.21745 h -6.15887 z"
         id="path2157" />
      <path
         d="m 149.0209,217.77831 h 2.36329 v -8.15692 l -2.57097,0.51562 v -1.31771 l 2.55665,-0.51562 h 1.44661 v 9.47463 h 2.36329 v 1.21745 h -6.15887 z"
         id="path2159" />
      <path
         d="m 165.85753,209.25615 q -1.11719,0 -1.68295,1.10287 -0.55859,1.0957 -0.55859,3.30144 0,2.19857 0.55859,3.30144 0.56576,1.0957 1.68295,1.0957 1.12435,0 1.68294,-1.0957 0.56576,-1.10287 0.56576,-3.30144 0,-2.20574 -0.56576,-3.30144 -0.55859,-1.10287 -1.68294,-1.10287 z m 0,-1.14583 q 1.79753,0 2.74284,1.42513 0.95248,1.41797 0.95248,4.12501 0,2.69987 -0.95248,4.12501 -0.94531,1.41797 -2.74284,1.41797 -1.79753,0 -2.75001,-1.41797 -0.94531,-1.42514 -0.94531,-4.12501 0,-2.70704 0.94531,-4.12501 0.95248,-1.42513 2.75001,-1.42513 z"
         id="path2161" />
      <path
         d="m 177.00795,217.77831 h 2.36328 v -8.15692 l -2.57097,0.51562 v -1.31771 l 2.55665,-0.51562 h 1.44662 v 9.47463 h 2.36328 v 1.21745 h -6.15886 z"
         id="path2163" />
      <path
         d="m 191.00146,217.77831 h 2.36329 v -8.15692 l -2.57097,0.51562 v -1.31771 l 2.55665,-0.51562 h 1.44662 v 9.47463 h 2.36328 v 1.21745 h -6.15887 z"
         id="path2165" />
      <path
         d="m 207.83809,209.25615 q -1.11719,0 -1.68294,1.10287 -0.5586,1.0957 -0.5586,3.30144 0,2.19857 0.5586,3.30144 0.56575,1.0957 1.68294,1.0957 1.12435,0 1.68295,-1.0957 0.56576,-1.10287 0.56576,-3.30144 0,-2.20574 -0.56576,-3.30144 -0.5586,-1.10287 -1.68295,-1.10287 z m 0,-1.14583 q 1.79753,0 2.74285,1.42513 0.95247,1.41797 0.95247,4.12501 0,2.69987 -0.95247,4.12501 -0.94532,1.41797 -2.74285,1.41797 -1.79753,0 -2.75,-1.41797 -0.94532,-1.42514 -0.94532,-4.12501 0,-2.70704 0.94532,-4.12501 0.95247,-1.42513 2.75,-1.42513 z"
         id="path2167" />
      <path
         d="m 218.98851,217.77831 h 2.36329 v -8.15692 l -2.57097,0.51562 v -1.31771 l 2.55664,-0.51562 h 1.44662 v 9.47463 h 2.36329 v 1.21745 h -6.15887 z"
         id="path2169" />
      <path
         d="m 235.82514,209.25615 q -1.11719,0 -1.68295,1.10287 -0.55859,1.0957 -0.55859,3.30144 0,2.19857 0.55859,3.30144 0.56576,1.0957 1.68295,1.0957 1.12435,0 1.68294,-1.0957 0.56576,-1.10287 0.56576,-3.30144 0,-2.20574 -0.56576,-3.30144 -0.55859,-1.10287 -1.68294,-1.10287 z m 0,-1.14583 q 1.79753,0 2.74284,1.42513 0.95248,1.41797 0.95248,4.12501 0,2.69987 -0.95248,4.12501 -0.94531,1.41797 -2.74284,1.41797 -1.79753,0 -2.75001,-1.41797 -0.94531,-1.42514 -0.94531,-4.12501 0,-2.70704 0.94531,-4.12501 0.95248,-1.42513 2.75001,-1.42513 z"
         id="path2171" />
      <path
         d="m 246.97555,217.77831 h 2.36329 v -8.15692 l -2.57097,0.51562 v -1.31771 l 2.55665,-0.51562 h 1.44662 v 9.47463 h 2.36328 v 1.21745 h -6.15887 z"
         id="path2173" />
      <path
         d="m 260.96907,217.77831 h 2.36329 v -8.15692 l -2.57097,0.51562 v -1.31771 l 2.55664,-0.51562 h 1.44662 v 9.47463 h 2.36329 v 1.21745 h -6.15887 z"
         id="path2175" />
    </g>
    <g
       id="g1339"
       transform="translate(-0.1886179)">
      <path
         id="path234"
         style="fill:#5801ff;fill-opacity:1;fill-rule:evenodd;stroke:#990000;stroke-width:0;stroke-miterlimit:5;paint-order:stroke fill markers"
         d="M 36.823916,21.195603 A 21.516676,21.516676 0 0 0 23.032402,31.399001 21.516676,21.516676 0 0 0 36.823916,41.601841 11.296255,11.296255 0 0 1 30.369863,31.398444 11.296255,11.296255 0 0 1 36.823916,21.195603 Z m 9.698592,0.0039 A 11.296255,11.296255 0 0 1 52.962106,31.398425 11.296255,11.296255 0 0 1 46.506942,41.602378 21.516676,21.516676 0 0 0 60.299568,31.400094 21.516676,21.516676 0 0 0 46.522508,21.199476 Z" />
      <path
         id="path440"
         style="fill:#ffd600;fill-opacity:1;fill-rule:evenodd;stroke:#990000;stroke-width:0;stroke-miterlimit:5;paint-order:stroke fill markers"
         d="m 41.665708,27.095918 a 4.3033352,4.3033352 0 0 0 -4.303073,4.303073 4.3033352,4.3033352 0 0 0 4.303073,4.303073 4.3033352,4.3033352 0 0 0 4.303628,-4.303073 4.3033352,4.3033352 0 0 0 -0.34747,-1.693988 1.6137507,1.6137507 0 0 1 -1.266459,0.61822 1.6137507,1.6137507 0 0 1 -1.613931,-1.613931 1.6137507,1.6137507 0 0 1 0.618219,-1.265903 4.3033352,4.3033352 0 0 0 -1.693987,-0.347471 z" />
    </g>
  </g>
</svg>
