<?xml version="1.0" encoding="UTF-8" standalone="no"?>
<!-- Uploaded to: SVG Repo, www.svgrepo.com, Generator: SVG Repo Mixer Tools -->

<svg
   height="200.00002"
   width="289.19116"
   version="1.1"
   id="_x32_"
   viewBox="0 0 185.08234 128.00001"
   xml:space="preserve"
   sodipodi:docname="handshake.svg"
   inkscape:version="1.3.2 (091e20e, 2023-11-25)"
   xmlns:inkscape="http://www.inkscape.org/namespaces/inkscape"
   xmlns:sodipodi="http://sodipodi.sourceforge.net/DTD/sodipodi-0.dtd"
   xmlns="http://www.w3.org/2000/svg"
   xmlns:svg="http://www.w3.org/2000/svg"><defs
   id="defs1" /><sodipodi:namedview
   id="namedview1"
   pagecolor="#2b2b2c"
   bordercolor="#999999"
   borderopacity="1"
   inkscape:showpageshadow="0"
   inkscape:pageopacity="0"
   inkscape:pagecheckerboard="0"
   inkscape:deskcolor="#d1d1d1"
   inkscape:zoom="1.46125"
   inkscape:cx="400"
   inkscape:cy="320.61591"
   inkscape:window-width="2560"
   inkscape:window-height="1373"
   inkscape:window-x="0"
   inkscape:window-y="0"
   inkscape:window-maximized="1"
   inkscape:current-layer="g1" />
<style
   type="text/css"
   id="style1">
	.st0{fill:#000000;}
</style>
<g
   id="g1"
   transform="translate(0,-78.954)">
	
<rect
   style="fill:#ffd600;fill-opacity:1;fill-rule:evenodd;stroke:none;stroke-width:0;stroke-linecap:round;stroke-linejoin:round;stroke-miterlimit:5;stroke-dasharray:none;stroke-dashoffset:0;paint-order:stroke fill markers"
   id="rect3"
   width="55.525101"
   height="37.35397"
   x="0.29852271"
   y="149.98065"
   rx="38.892067"
   ry="29.45709"
   transform="matrix(0.86473209,0.50223343,0.25643631,0.96656113,0,0)" /><path
   style="fill:#5801ff;fill-opacity:1;stroke:#000000;stroke-width:0.231353px;stroke-linecap:butt;stroke-linejoin:miter;stroke-opacity:1"
   d="m 49.807814,99.230383 c 1.551218,0.969207 17.625744,8.779697 17.625744,8.779697 l 15.887585,0.6997 -8.493228,13.28893 -10.499558,13.87827 6.413356,10.91433 41.419907,-11.86116 30.35241,27.83524 c -12.02897,20.16747 -19.78247,30.74439 -40.88791,37.83346 L 55.315492,150.37669 42.002719,152.2783 23.231658,130.97482 Z"
   id="path3"
   sodipodi:nodetypes="ccccccccccccc" /><path
   style="fill:#ffd600;fill-opacity:1;stroke:#000000;stroke-width:0.231353px;stroke-linecap:butt;stroke-linejoin:miter;stroke-opacity:1"
   d="m 137.83753,95.886231 -20.01016,12.438189 -23.193395,0.1318 -23.005385,17.79084 -5.606509,13.25703 4.882016,7.25994 40.078153,-9.92603 29.37564,24.4223 5.7143,-15.50319 18.603,-15.22828 z"
   id="path2" /><path
   class="st0"
   d="m 139.61931,78.954 -18.0242,18.024198 1.6755,1.740208 c -1.19364,0.964091 -2.40173,1.904684 -3.5744,2.739724 -1.89276,1.35197 -3.7096,2.43644 -4.94119,2.94505 -0.0795,0.0354 -0.41427,0.12941 -1.07869,0.12652 -1.06133,0.0116 -2.8366,-0.25882 -5.01168,-0.59067 -2.18412,-0.32932 -4.79696,-0.68755 -7.74201,-0.69081 -2.569461,-0.009 -5.402811,0.30293 -8.386179,1.12279 -2.977223,-0.81697 -5.805151,-1.12279 -8.368107,-1.11953 -2.948303,0 -5.561145,0.35859 -7.745261,0.6908 -2.175079,0.33185 -3.947459,0.6026 -5.008429,0.59068 -0.667309,0.006 -0.999517,-0.094 -1.067115,-0.12653 -1.314012,-0.53789 -3.295333,-1.73731 -5.334854,-3.22159 -1.055186,-0.76707 -2.130977,-1.607898 -3.198092,-2.471856 L 63.487212,96.97856 45.463014,78.954361 0,126.04227 l 18.024198,18.0242 5.275931,-5.46427 11.645727,10.16398 c 0.326063,1.94879 0.940594,3.78877 1.649112,5.53512 0.46126,1.11122 0.966983,2.18086 1.484635,3.18617 -1.126038,1.86383 -1.740208,3.99192 -1.734424,6.14928 -0.0029,2.14002 0.584889,4.32666 1.792985,6.26967 1.837087,2.95408 4.779606,4.81178 7.956732,5.39956 0.01808,2.10169 0.600072,4.2446 1.78431,6.14928 2.248822,3.61562 6.140612,5.62007 10.108676,5.61393 0.152909,0 0.308711,-0.0235 0.461259,-0.0293 0.199904,1.68128 0.75262,3.35678 1.698998,4.87937 2.248823,3.61525 6.143143,5.62007 10.105423,5.61393 0.394023,0 0.785154,-0.0412 1.181707,-0.0795 0.187974,1.51391 0.690805,3.02458 1.540304,4.38847 2.048919,3.29244 5.593679,5.12049 9.199893,5.11182 1.945895,0.003 3.938783,-0.52633 5.708271,-1.62562 l 5.402813,-3.36221 c 1.064224,0.68756 2.180863,1.29305 3.353533,1.78684 2.184116,0.91999 4.544277,1.48428 6.998787,1.48717 2.69237,0.0119 5.53476,-0.72587 7.98023,-2.44547 1.59308,-1.11086 2.94216,-2.63381 4.04723,-4.42933 0.17062,0.006 0.30871,0.0354 0.48512,0.0383 1.11989,0 2.34859,-0.16773 3.56572,-0.54693 1.22545,-0.37306 2.44258,-0.93192 3.74177,-1.67514 3.09796,-1.74599 4.95566,-4.31509 5.85829,-6.51656 0.19991,-0.48187 0.34378,-0.93481 0.47319,-1.37257 0.74973,-0.23786 1.46693,-0.52922 2.11616,-0.90517 2.39559,-1.37872 3.9565,-3.47427 4.91769,-5.57886 0.9641,-2.12556 1.3874,-4.33281 1.39318,-6.45475 0,-0.20894 -0.0264,-0.41173 -0.0354,-0.61742 1.56669,-0.64056 2.97433,-1.53127 4.17375,-2.58067 1.2287,-1.07615 2.26039,-2.32799 3.02747,-3.75659 0.76455,-1.42246 1.27605,-3.05097 1.27894,-4.83492 0.003,-1.1611 -0.23532,-2.38402 -0.75551,-3.5303 -0.16773,-0.36438 -0.40559,-0.69948 -0.6232,-1.03747 0.91456,-1.63754 1.84576,-3.48295 2.60995,-5.47583 0.57332,-1.50814 1.05554,-3.08929 1.33172,-4.75033 l 12.14241,-10.59632 5.69056,5.89335 18.0242,-18.02492 z m -89.464893,87.29017 -0.208941,0.13231 c -0.543679,0.33546 -1.114108,0.48512 -1.701889,0.48801 -1.090612,-0.006 -2.137123,-0.5379 -2.751293,-1.52838 -0.3351,-0.54368 -0.48801,-1.117 -0.48801,-1.699 0.0058,-1.09639 0.535004,-2.13712 1.522592,-2.75129 l 7.139767,-4.43547 c 0.543679,-0.33799 1.114109,-0.48475 1.695745,-0.4909 1.096395,0.0116 2.137122,0.53501 2.754545,1.53127 l 3.677065,-2.28389 -3.677065,2.28678 c 0.3351,0.54079 0.484757,1.11086 0.48801,1.69321 -0.0061,0.76419 -0.279431,1.49332 -0.772863,2.0811 l -6.131937,3.80937 c -0.558138,0.34666 -1.066753,0.74936 -1.545726,1.16688 z m 9.532101,11.6779 c -0.543679,0.3351 -1.114109,0.48801 -1.698998,0.48801 -1.093504,-0.006 -2.139653,-0.535 -2.754184,-1.52548 -0.335462,-0.54368 -0.485118,-1.11989 -0.48801,-1.70189 0.0025,-0.75804 0.276178,-1.48717 0.767079,-2.06916 l 6.134467,-3.81805 c 0.555609,-0.34414 1.05844,-0.74358 1.537413,-1.1611 l 0.2234,-0.1352 c 0.543679,-0.33799 1.117,-0.48801 1.696106,-0.48801 1.099287,0.006 2.136761,0.535 2.753822,1.52838 0.3351,0.54368 0.485118,1.11085 0.48801,1.6961 -0.0058,1.09025 -0.53175,2.13676 -1.531267,2.75708 z m 19.396772,6.03181 -7.13073,4.43257 c -0.540788,0.33546 -1.111217,0.48801 -1.698998,0.48801 -1.090612,-0.006 -2.137123,-0.535 -2.751292,-1.52548 -0.335101,-0.54657 -0.484757,-1.117 -0.48801,-1.70189 0.009,-1.0964 0.535003,-2.13387 1.522591,-2.75129 l 7.139767,-4.43547 c 0.54368,-0.33799 1.114109,-0.48476 1.695745,-0.48476 1.096396,0.003 2.137122,0.53175 2.754545,1.52549 0.334739,0.54404 0.484757,1.1141 0.48801,1.69899 -0.0061,1.08989 -0.532111,2.13026 -1.531628,2.75383 z m 11.055053,7.2305 c 0.225931,0.36149 0.323172,0.7378 0.326063,1.13146 -0.0058,0.73201 -0.355705,1.4286 -1.028797,1.84901 l -6.122899,3.80323 c -0.364381,0.22918 -0.740691,0.32606 -1.137606,0.32606 -0.734545,-0.003 -1.431134,-0.3586 -1.845762,-1.02265 -0.226292,-0.36764 -0.323533,-0.74395 -0.326425,-1.13725 0.0087,-0.73816 0.358597,-1.42896 1.019761,-1.84034 h 0.0029 l 6.128683,-3.80937 c 0.373418,-0.23207 0.746836,-0.32931 1.137605,-0.32931 0.737799,0.006 1.428604,0.3557 1.842871,1.02301 l 3.679957,-2.28099 z m 47.614597,-26.88032 c -0.3145,0.60839 -1.03169,1.40186 -1.93975,1.95746 -0.90842,0.56176 -1.96361,0.89071 -2.97469,0.88782 -0.35896,0 -0.70563,0.0615 -1.04362,0.14966 -0.61742,-0.1352 -1.23485,-0.32317 -1.84287,-0.56429 -1.88408,-0.7349 -3.64453,-1.92529 -4.88805,-2.93059 -0.62321,-0.50247 -1.11701,-0.95505 -1.44632,-1.26955 l -0.36438,-0.36149 -0.0795,-0.0824 -0.0119,-0.0116 h -0.003 c -1.21135,-1.31691 -3.2628,-1.40511 -4.58259,-0.19412 -1.3198,1.21135 -1.4109,3.2628 -0.19665,4.59127 0.10844,0.1117 1.7402,1.89275 4.41197,3.72731 1.3404,0.9171 2.94216,1.85191 4.78503,2.57489 0.42619,0.16773 0.8701,0.32317 1.32594,0.46451 0.12652,0.28485 0.2881,0.55561 0.47897,0.81118 l -0.009,0.006 c 0.0235,0.0173 0.19991,0.57621 0.18509,1.2934 0.021,1.19617 -0.41427,2.76286 -1.04037,3.62682 -0.30546,0.44102 -0.61706,0.72009 -0.91963,0.8936 -0.30871,0.17062 -0.62031,0.28232 -1.2052,0.291 l -0.20894,-0.003 c -0.12363,-0.006 -0.24075,0.0148 -0.36149,0.0206 -0.006,0 -0.009,0 -0.009,0 -2.816,0.0119 -5.43752,-1.19616 -7.37185,-2.51885 -0.96409,-0.65249 -1.73731,-1.31691 -2.2575,-1.80455 -0.25593,-0.24112 -0.45258,-0.44102 -0.57332,-0.56429 l -0.12616,-0.1352 -0.0206,-0.0264 h -0.003 c -1.17267,-1.34619 -3.21545,-1.49331 -4.57067,-0.32028 -1.35811,1.17556 -1.50488,3.22448 -0.32932,4.58223 l -0.003,-0.003 c 0.12652,0.14098 1.62562,1.8689 4.23304,3.64453 1.71635,1.16074 3.95613,2.36305 6.61633,3.05675 -0.0293,0.0766 -0.047,0.15291 -0.0824,0.22955 -0.34089,0.76997 -0.8289,1.56344 -2.15737,2.33955 -0.89685,0.51187 -1.53741,0.77901 -1.9871,0.91421 -0.45259,0.1352 -0.70527,0.16195 -1.0288,0.16448 -0.42005,0.006 -1.05229,-0.0882 -2.10459,-0.30293 -0.19086,-0.0409 -0.38173,-0.0528 -0.57296,-0.0643 -0.0709,-0.0296 -0.13809,-0.056 -0.21472,-0.0944 -1.07579,-0.50572 -2.38691,-1.41992 -3.3539,-2.19857 -0.48511,-0.38499 -0.89649,-0.7378 -1.17881,-0.98759 l -0.31739,-0.28811 -0.0734,-0.0705 -0.0148,-0.0116 c -1.2963,-1.24027 -3.3539,-1.19328 -4.59416,0.10266 -1.23738,1.2963 -1.19039,3.35389 0.10591,4.59127 0.0676,0.0614 1.43439,1.37293 3.35064,2.7484 0.34089,0.24111 0.7172,0.48512 1.09351,0.72587 -0.52922,0.84372 -1.08158,1.42282 -1.62237,1.80781 -0.86432,0.59392 -1.80491,0.87588 -3.0159,0.88203 -1.08446,0.003 -2.36052,-0.26461 -3.63585,-0.8054 -0.423306,-0.17641 -0.837573,-0.42619 -1.255092,-0.65827 0.244005,-0.91131 0.379202,-1.8548 0.37631,-2.80154 0.0029,-1.94879 -0.532112,-3.94167 -1.6314,-5.70827 -1.866367,-3.00108 -4.979148,-4.76479 -8.239055,-5.05289 0,-0.11785 0.02024,-0.23497 0.02024,-0.35571 0.0029,-2.13676 -0.584889,-4.32955 -1.790093,-6.26966 v 0.006 c -2.251353,-3.62718 -6.149287,-5.63199 -10.111567,-5.62332 -0.152549,0 -0.308712,0.0264 -0.46126,0.0325 -0.199904,-1.68454 -0.75262,-3.3539 -1.698637,-4.87649 h 0.0025 c -1.837087,-2.95987 -4.782137,-4.8172 -7.959624,-5.39956 -0.02024,-2.10169 -0.599349,-4.2446 -1.78431,-6.14929 h 0.0029 c -2.248461,-3.61814 -6.149288,-5.62585 -10.111567,-5.62006 -2.142907,0 -4.326661,0.58814 -6.269664,1.79298 l -4.170859,2.5926 c -0.100132,-0.22918 -0.226292,-0.45258 -0.317387,-0.68213 -0.72587,-1.73695 -1.181708,-3.45077 -1.231593,-4.63212 L 43.276729,144.54327 29.32398,132.3629 55.777738,104.96493 c 1.35233,1.10833 2.739725,2.20762 4.162545,3.23641 2.357269,1.699 4.693934,3.1981 7.080845,4.2034 1.531628,0.63188 3.024578,0.78768 4.39462,0.79057 2.192792,-0.009 4.203032,-0.38498 6.298945,-0.6908 0.135197,-0.0235 0.276177,-0.0351 0.414266,-0.056 -2.880344,2.47186 -5.393776,5.14688 -7.518969,7.63681 -1.790093,2.1017 -3.300756,4.08266 -4.497284,5.69924 -1.181346,1.6079 -2.092659,2.9042 -2.492466,3.41571 -1.969391,2.56295 -2.815637,5.62874 -2.83335,8.70031 0.0087,2.85721 0.76708,5.83154 2.736471,8.34497 0.981804,1.24316 2.286779,2.33088 3.844435,3.07157 1.555125,0.74648 3.336181,1.12857 5.19098,1.12857 2.3016,-0.006 4.714539,-0.56428 7.269181,-1.63754 8.018547,-3.39185 16.283991,-5.65224 22.503403,-7.04542 3.10989,-0.6937 5.71117,-1.17556 7.52476,-1.47849 0.34124,-0.056 0.6261,-0.10303 0.90842,-0.14966 l 27.20963,23.45629 0.0116,0.006 0.009,0.0148 c -0.004,0.0842 -0.0452,0.32823 -0.24184,0.69261 z m 3.14821,-19.76115 -0.0943,1.82841 c -0.0499,1.04615 -0.40559,2.52175 -1.00241,4.05048 -0.30293,0.79925 -0.67309,1.60501 -1.06097,2.39812 l -23.82935,-20.54016 c -0.92577,-0.79925 -2.16026,-1.16978 -3.37414,-1.01687 -0.21147,0.0412 -17.689095,2.234 -35.081411,9.565 -1.731171,0.73165 -3.030362,0.95794 -3.900466,0.95216 -0.708156,0 -1.140497,-0.12652 -1.460776,-0.27943 -0.464513,-0.22629 -0.796722,-0.54693 -1.125677,-1.1611 -0.314495,-0.60514 -0.529219,-1.49874 -0.525966,-2.43933 -0.01771,-1.35197 0.464513,-2.7278 1.004939,-3.37992 0.673454,-0.87011 1.496203,-2.0576 2.630916,-3.59212 1.683816,-2.28099 3.970956,-5.23219 6.69839,-8.10386 2.72165,-2.87166 5.88757,-5.65224 9.206038,-7.60428 4.488608,-2.63634 8.312799,-3.29786 11.937083,-3.30979 2.23075,-0.003 4.3704,0.27618 6.45764,0.59067 2.09266,0.30872 4.10905,0.67888 6.29605,0.69081 1.36679,-0.003 2.85107,-0.15869 4.37691,-0.7819 l 0.0202,-0.006 c 2.38692,-1.0053 4.72358,-2.50439 7.08085,-4.20339 1.41414,-1.02301 2.80732,-2.12808 4.15351,-3.23316 l 26.03985,26.96852 z"
   id="path1"
   style="stroke-width:0.361489;fill:#e1e1e1;fill-opacity:1" /></g>
</svg>
