<?xml version="1.0" encoding="UTF-8" standalone="no"?>
<svg
   preserveAspectRatio="xMidYMid"
   version="1.0"
   viewBox="0 0 321.65682 256"
   zoomAndPan="magnify"
   style="fill:#000000"
   original_string_length="16911"
   id="svg12"
   sodipodi:docname="missions3.svg"
   width="321.65683"
   height="256"
   inkscape:version="1.3.2 (091e20e, 2023-11-25)"
   xmlns:inkscape="http://www.inkscape.org/namespaces/inkscape"
   xmlns:sodipodi="http://sodipodi.sourceforge.net/DTD/sodipodi-0.dtd"
   xmlns="http://www.w3.org/2000/svg"
   xmlns:svg="http://www.w3.org/2000/svg">
  <defs
     id="defs12" />
  <sodipodi:namedview
     id="namedview12"
     pagecolor="#ffffff"
     bordercolor="#999999"
     borderopacity="1"
     inkscape:showpageshadow="0"
     inkscape:pageopacity="0"
     inkscape:pagecheckerboard="0"
     inkscape:deskcolor="#d1d1d1"
     inkscape:zoom="2.338"
     inkscape:cx="314.1574"
     inkscape:cy="181.56544"
     inkscape:window-width="2560"
     inkscape:window-height="1373"
     inkscape:window-x="0"
     inkscape:window-y="0"
     inkscape:window-maximized="1"
     inkscape:current-layer="svg12" />
  <g
     id="__id146_srghfg1rkq"
     transform="scale(0.512)">
    <path
       d="m 505.341,198.907 v 101.824 c 0,11.245 -9.118,20.363 -20.363,20.363 h -198.01 c -11.245,0 -20.363,-9.118 -20.363,-20.363 V 198.907 c 0,-0.162 0,-0.334 0.01,-0.496 0.131,-5.602 2.534,-10.637 6.314,-14.24 h -22.753 c -10.978,0 -19.876,-8.899 -19.876,-19.876 V 19.876 C 230.299,8.899 239.198,0 250.176,0 h 203.056 c 10.987,0 19.886,8.899 19.886,19.876 v 144.419 c 0,5.593 -2.318,10.637 -6.037,14.249 h 17.897 c 11.083,0 20.096,8.851 20.353,19.867 0.01,0.162 0.01,0.334 0.01,0.496 z"
       style="fill:#4c4c4c"
       id="path1" />
  </g>
  <g
     id="__id147_srghfg1rkq"
     transform="scale(0.512)">
    <path
       d="m 379.128,262.808 c 0,23.954 -19.424,43.367 -43.378,43.367 -23.954,0 -43.367,-19.413 -43.367,-43.367 0,-23.954 19.413,-43.378 43.367,-43.378 23.954,0 43.378,19.424 43.378,43.378 z m 95.647,-14.38 v -2.847 c 0,-1.765 -1.431,-3.196 -3.196,-3.196 h -65.647 c -1.765,0 -3.196,1.431 -3.196,3.196 v 2.847 c 0,1.765 1.431,3.196 3.196,3.196 h 65.647 c 1.765,0.001 3.196,-1.43 3.196,-3.196 z m -28.864,18.335 v -2.847 c 0,-1.765 -1.431,-3.196 -3.196,-3.196 h -36.783 c -1.765,0 -3.196,1.431 -3.196,3.196 v 2.847 c 0,1.765 1.431,3.196 3.196,3.196 h 36.783 c 1.765,0 3.196,-1.431 3.196,-3.196 z m 31.804,18.335 v -2.847 c 0,-1.765 -1.431,-3.196 -3.196,-3.196 h -68.587 c -1.765,0 -3.196,1.431 -3.196,3.196 v 2.847 c 0,1.765 1.431,3.196 3.196,3.196 h 68.587 c 1.765,0 3.196,-1.431 3.196,-3.196 z"
       style="fill:#ffd600"
       id="path2" />
  </g>
  <g
     id="__id148_srghfg1rkq"
     transform="scale(0.512)">
    <path
       d="m 179.548,315.445 h -77.061 c -39.715,0 -71.91,32.195 -71.91,71.91 v 81.551 c 0,6.918 5.608,12.526 12.526,12.526 38.089,3.328 76.179,6.656 114.268,9.984 27.036,-3.328 54.071,-6.656 81.107,-9.984 0,-35.686 0,-71.371 0,-107.057 0,-32.546 -26.384,-58.93 -58.93,-58.93 z M 578.782,481.89 H 469.644 v -24.375 h 109.138 z"
       style="fill:#5700ff"
       id="path3" />
  </g>
  <g
     id="__id149_srghfg1rkq"
     transform="scale(0.512)">
    <path
       d="M 628.236,481.431 H 0 V 500 h 628.236 z"
       style="fill:#ffd600"
       id="path4" />
  </g>
  <g
     id="__id150_srghfg1rkq"
     transform="scale(0.512)">
    <path
       d="m 195.521,273.958 h -76.443 c -9.403,0 -17.026,-7.623 -17.026,-17.026 V 226.66 c 0,-28.133 22.806,-50.939 50.939,-50.939 h 31.723 c 5.968,0 10.806,4.838 10.806,10.806 v 87.431 z m -69.976,47.138 c 17.864,0 35.729,0 53.593,0 -1.25,53.445 -2.501,106.89 -3.75,160.335 h -41.673 c -2.724,-53.445 -5.447,-106.89 -8.17,-160.335 z"
       id="path5" />
  </g>
  <g
     id="__id151_srghfg1rkq"
     transform="scale(0.512)">
    <path
       d="m 271.475,436.133 -34.171,30.97 c -2.124,-19.786 -4.247,-39.572 -6.372,-59.357 13.514,9.462 27.028,18.924 40.543,28.387 z m -118.558,3.375 c -9.124,-39.471 -18.249,-78.941 -27.373,-118.412 -2.304,53.445 -4.609,106.89 -6.912,160.335 h 66.928 l 26.459,-96.59 c -10.961,-21.248 -21.922,-42.497 -32.883,-63.745 -8.739,39.471 -17.479,78.941 -26.219,118.412 z"
       style="fill:#5700ff"
       id="path6" />
  </g>
  <g
     id="__id152_srghfg1rkq"
     transform="scale(0.512)">
    <path
       d="m 158.385,447.269 c 4.106,0.934 7.841,1.537 11.168,1.934 14.496,1.728 29.797,3.314 32.433,11.281 0.866,2.617 0.096,5.246 -0.659,7.017 -14.314,0.086 -28.628,0.174 -42.942,0.259 0,-6.83 0,-13.66 0,-20.491 z m 28.582,-246.234 h -11.049 c -3.393,0 -6.699,1.131 -9.396,3.48 -0.522,0.522 -1.044,1.044 -1.566,1.653 -3.828,4.785 -4.002,11.049 -3.654,17.661 0.435,8.439 1.566,17.487 -3.219,24.621 -1.653,2.523 -4.698,5.742 -10.527,7.743 -0.087,-6.786 -4.872,-12.267 -10.788,-12.354 -6.003,-0.174 -11.223,5.394 -11.223,12.354 v 32.104 2.61 30.189 c 9.124,4.117 18.247,8.235 27.371,12.352 8.74,-4.117 17.481,-8.235 26.222,-12.352 0,-10.063 0,-20.126 0,-30.189 h 0.435 c 10.527,0 19.053,-9.657 19.053,-21.489 v -55.332 c 0,-7.222 -5.22,-13.051 -11.659,-13.051 z"
       style="fill:#f9b9ac"
       id="path7" />
  </g>
  <g
     id="__id153_srghfg1rkq"
     transform="scale(0.512)">
    <path
       d="m 473.118,19.876 v 0.143 H 230.299 V 19.876 C 230.299,8.899 239.198,0 250.176,0 h 203.056 c 10.987,0 19.886,8.899 19.886,19.876 z m 11.86,158.668 h -198.01 c -11.083,0 -20.096,8.851 -20.353,19.867 h 238.717 c -0.258,-11.016 -9.271,-19.867 -20.354,-19.867 z m -200.241,84.264 h 51.013 v -51.026 c -28.178,0 -51.013,22.849 -51.013,51.026 z"
       style="fill:#5700ff"
       id="path8" />
  </g>
  <g
     id="__id154_srghfg1rkq"
     transform="scale(0.512)">
    <path
       d="m 458.526,46.742 v 108.973 c 0,4.813 -3.902,8.715 -8.715,8.715 h -3.724 V 46.404 H 431.889 V 164.43 H 411.57 V 66.866 H 397.372 V 164.43 H 377.054 V 88.368 H 362.856 V 164.43 H 342.538 V 123.942 H 328.34 V 164.43 H 308.02 V 88.368 H 293.822 V 164.43 H 273.504 V 66.866 h -14.198 v 97.564 h -4.338 c -4.813,0 -8.715,-3.902 -8.715,-8.715 V 46.742 c 0,-4.813 3.902,-8.715 8.715,-8.715 H 449.81 c 4.814,-10e-4 8.716,3.901 8.716,8.715 z m 130.633,154.253 v -97.742 c 0,-6.751 -5.473,-12.224 -12.224,-12.224 h -72.898 c -6.751,0 -12.224,5.473 -12.224,12.224 v 97.742 c 0,6.751 5.473,12.224 12.224,12.224 h 72.898 c 6.751,0 12.224,-5.473 12.224,-12.224 z"
       style="fill:#ffd600"
       id="path9" />
  </g>
  <g
     id="__id155_srghfg1rkq"
     transform="scale(0.512)">
    <path
       d="m 272.93,366.066 -35.627,101.037 h -78.918 v 14.328 c 13.955,0.347 28.246,0.506 42.858,0.447 10.507,-0.042 20.845,-0.195 31.008,-0.447 8.015,0 16.031,0 24.046,0 H 381.008 L 418.466,366.066 Z M 525.966,60.111 c 0,3.307 -2.681,5.988 -5.988,5.988 -3.307,0 -5.988,-2.681 -5.988,-5.988 0,-0.139 0.012,-0.274 0.021,-0.411 -8.57,-3.118 -16.325,-3.596 -23.113,-1.409 -12.23,3.941 -18.524,15.288 -24.611,26.262 -6.078,10.959 -11.82,21.311 -23.014,22.828 -8.368,1.134 -13.962,-3.579 -19.375,-8.136 -5.263,-4.431 -10.676,-9.015 -19.182,-8.77 -10.245,0.294 -16.903,7.324 -23.341,14.122 -6.218,6.567 -12.63,13.361 -21.91,12.596 -8.962,-0.737 -14.842,-8.035 -19.699,-16.066 -0.349,0.063 -0.707,0.101 -1.075,0.101 -3.307,0 -5.988,-2.681 -5.988,-5.988 0,-1.507 0.561,-2.88 1.479,-3.932 -4.162,-7.32 -8.318,-13.545 -13.819,-13.653 -7.717,-0.147 -14.24,11.974 -20.506,23.702 -7.423,13.893 -15.098,28.259 -27.246,28.831 -0.252,0.012 -0.507,0.018 -0.759,0.018 -9.008,0 -17.882,-7.566 -27.026,-23.054 -0.271,0.038 -0.546,0.064 -0.827,0.064 -3.307,0 -5.988,-2.681 -5.988,-5.988 0,-3.307 2.681,-5.988 5.988,-5.988 3.307,0 5.988,2.681 5.988,5.988 0,1.275 -0.402,2.455 -1.081,3.426 8.252,13.934 16.345,21.108 23.483,20.77 9.441,-0.445 16.467,-13.596 23.263,-26.315 7.204,-13.483 14.012,-26.225 24.547,-26.225 0.087,0 0.171,0 0.258,0.002 8.124,0.16 13.133,7.696 18.046,16.375 0.063,-0.002 0.125,-0.009 0.188,-0.009 3.307,0 5.988,2.681 5.988,5.988 0,1.189 -0.351,2.294 -0.949,3.226 4.341,7.234 9.212,13.405 16.126,13.974 6.953,0.581 12.11,-4.845 18.055,-11.122 6.774,-7.153 14.452,-15.26 26.668,-15.61 10.269,-0.29 16.72,5.115 22.389,9.888 5.042,4.244 9.402,7.911 15.664,7.058 8.825,-1.196 13.765,-10.102 19.485,-20.415 6.231,-11.235 13.294,-23.968 27.318,-28.487 7.984,-2.573 16.978,-1.993 26.794,1.693 1.026,-0.826 2.329,-1.322 3.748,-1.322 3.309,0 5.989,2.681 5.989,5.988 z"
       id="path10" />
  </g>
  <g
     id="__id156_srghfg1rkq"
     transform="scale(0.512)">
    <path
       d="m 575.706,275.802 c 0.447,-1.086 0.383,-1.086 1.596,-1.213 1.788,-0.192 3.512,-0.383 5.236,-0.575 0,-2.81 0,-5.619 0,-8.429 -2.043,-0.192 -4.023,-0.447 -6.066,-0.639 -0.319,0 -0.383,-0.192 -0.511,-0.447 -0.383,-1.022 -0.83,-2.107 -1.213,-3.129 -0.128,-0.447 -0.575,-0.83 -0.511,-1.213 0.064,-0.383 0.511,-0.702 0.83,-1.086 1.022,-1.277 2.107,-2.618 3.129,-3.895 -1.98,-2.043 -3.959,-4.023 -5.939,-6.003 -0.128,0.128 -0.255,0.192 -0.383,0.319 -1.469,1.149 -2.937,2.363 -4.406,3.512 -0.128,0.064 -0.447,0.128 -0.575,0.064 -1.405,-0.511 -2.746,-1.149 -4.087,-1.66 -0.255,-0.064 -0.383,-0.128 -0.383,-0.447 -0.064,-0.766 -0.192,-1.596 -0.255,-2.363 -0.128,-1.213 -0.255,-2.427 -0.383,-3.704 -2.81,0 -5.62,0 -8.429,0 -0.192,2.043 -0.447,4.087 -0.639,6.13 0,0.255 -0.064,0.383 -0.319,0.447 -1.277,0.447 -2.49,0.958 -3.767,1.533 -0.447,0.192 -0.703,0.319 -1.086,-0.128 -0.255,-0.255 -0.575,-0.447 -0.894,-0.702 -1.213,-0.958 -2.427,-1.916 -3.576,-2.874 -2.043,2.043 -4.023,4.023 -6.003,6.003 1.213,1.533 2.49,3.129 3.768,4.662 0.192,0.255 0.192,0.447 0.064,0.702 -0.511,0.958 -0.894,1.98 -1.341,2.937 -0.192,0.511 -0.255,1.149 -0.575,1.405 -0.383,0.255 -1.022,0.128 -1.532,0.192 -1.596,0.192 -3.193,0.319 -4.789,0.511 0,2.81 0,5.619 0,8.429 0.192,0 0.319,0.064 0.511,0.064 1.852,0.255 3.768,0.447 5.619,0.639 0.128,0 0.319,0.192 0.383,0.319 0.639,1.341 1.149,2.682 1.724,4.087 0.064,0.192 0.064,0.447 -0.064,0.575 -0.766,1.022 -1.533,1.98 -2.299,2.937 -0.511,0.639 -1.022,1.277 -1.469,1.852 2.043,2.043 4.023,4.023 6.003,6.003 1.533,-1.213 3.129,-2.49 4.661,-3.768 0.255,-0.255 0.447,-0.192 0.702,-0.064 1.277,0.511 2.554,1.086 3.895,1.596 0.319,0.128 0.447,0.192 0.447,0.511 0.192,2.043 0.383,4.023 0.639,6.13 2.81,0 5.619,0 8.301,-0.255 0,-0.128 0.064,-0.319 0.064,-0.447 0.192,-1.852 0.383,-3.768 0.575,-5.683 0.064,-0.255 0.128,-0.383 0.383,-0.447 1.341,-0.511 2.682,-1.086 4.087,-1.66 0.128,-0.064 0.383,0 0.511,0.064 0.383,0.255 0.766,0.575 1.149,0.894 1.277,1.022 2.49,2.043 3.64,2.937 2.043,-2.043 4.023,-4.023 6.003,-6.003 -1.213,-1.533 -2.49,-3.065 -3.768,-4.662 -0.192,-0.255 -0.192,-0.447 -0.064,-0.702 0.448,-1.084 0.959,-2.17 1.406,-3.256 z m -18.378,3.096 c -4.676,-0.138 -8.756,-4.034 -8.664,-9.123 0.092,-4.768 4.08,-8.848 9.123,-8.756 4.814,0.092 8.802,4.08 8.756,8.985 -10e-4,4.906 -4.081,9.032 -9.215,8.894 z M 198.761,118.229 c 0.447,-1.086 0.383,-1.086 1.596,-1.213 1.788,-0.192 3.512,-0.383 5.236,-0.575 0,-2.81 0,-5.619 0,-8.429 -2.043,-0.192 -4.023,-0.447 -6.066,-0.639 -0.319,0 -0.383,-0.192 -0.511,-0.447 -0.383,-1.022 -0.83,-2.107 -1.213,-3.129 -0.128,-0.447 -0.575,-0.83 -0.511,-1.213 0.064,-0.383 0.511,-0.702 0.83,-1.086 1.022,-1.277 2.107,-2.618 3.129,-3.895 -1.98,-2.043 -3.959,-4.023 -5.939,-6.003 -0.128,0.128 -0.255,0.192 -0.383,0.319 -1.469,1.149 -2.937,2.363 -4.406,3.512 -0.128,0.064 -0.447,0.128 -0.575,0.064 -1.405,-0.511 -2.746,-1.149 -4.087,-1.66 -0.255,-0.064 -0.383,-0.128 -0.383,-0.447 -0.064,-0.766 -0.192,-1.596 -0.255,-2.363 -0.128,-1.213 -0.255,-2.427 -0.383,-3.704 -2.81,0 -5.619,0 -8.429,0 -0.192,2.043 -0.447,4.087 -0.639,6.13 0,0.255 -0.064,0.383 -0.319,0.447 -1.277,0.447 -2.49,0.958 -3.768,1.533 -0.447,0.192 -0.702,0.319 -1.086,-0.128 -0.255,-0.255 -0.575,-0.447 -0.894,-0.702 -1.213,-0.958 -2.427,-1.916 -3.576,-2.874 -2.043,2.043 -4.023,4.023 -6.003,6.003 1.213,1.533 2.49,3.129 3.768,4.662 0.192,0.255 0.192,0.447 0.064,0.702 -0.511,0.958 -0.894,1.98 -1.341,2.937 -0.192,0.511 -0.255,1.149 -0.575,1.405 -0.383,0.255 -1.022,0.128 -1.533,0.192 -1.596,0.192 -3.193,0.319 -4.789,0.511 0,2.81 0,5.619 0,8.429 0.192,0 0.319,0.064 0.511,0.064 1.852,0.255 3.768,0.447 5.619,0.639 0.128,0 0.319,0.192 0.383,0.319 0.639,1.341 1.149,2.682 1.724,4.087 0.064,0.192 0.064,0.447 -0.064,0.575 -0.766,1.022 -1.533,1.98 -2.299,2.937 -0.511,0.639 -1.022,1.277 -1.469,1.852 2.043,2.043 4.023,4.023 6.003,6.003 1.533,-1.213 3.129,-2.49 4.662,-3.768 0.256,-0.255 0.447,-0.192 0.702,-0.064 1.277,0.511 2.554,1.086 3.895,1.596 0.319,0.128 0.447,0.192 0.447,0.511 0.192,2.043 0.383,4.023 0.639,6.13 2.81,0 5.619,0 8.301,-0.255 0,-0.128 0.064,-0.319 0.064,-0.447 0.192,-1.852 0.383,-3.768 0.575,-5.683 0.064,-0.255 0.128,-0.383 0.383,-0.447 1.341,-0.511 2.682,-1.086 4.087,-1.66 0.128,-0.064 0.383,0 0.511,0.064 0.383,0.255 0.766,0.575 1.149,0.894 1.277,1.022 2.491,2.043 3.64,2.937 2.043,-2.043 4.023,-4.023 6.003,-6.003 -1.213,-1.533 -2.49,-3.065 -3.768,-4.662 -0.192,-0.255 -0.192,-0.447 -0.064,-0.702 0.449,-1.085 0.96,-2.171 1.407,-3.256 z m -18.378,3.095 c -4.676,-0.138 -8.756,-4.034 -8.664,-9.123 0.092,-4.768 4.08,-8.848 9.123,-8.756 4.814,0.092 8.802,4.08 8.756,8.985 -0.001,4.906 -4.081,9.032 -9.215,8.894 z m 375.911,195.713 c 0.288,-0.7 0.247,-0.7 1.03,-0.783 1.153,-0.124 2.265,-0.247 3.378,-0.371 0,-1.812 0,-3.625 0,-5.437 -1.318,-0.124 -2.595,-0.288 -3.913,-0.412 -0.206,0 -0.247,-0.124 -0.329,-0.288 -0.247,-0.659 -0.535,-1.359 -0.783,-2.018 -0.082,-0.288 -0.371,-0.535 -0.33,-0.783 0.041,-0.247 0.33,-0.453 0.535,-0.7 0.659,-0.824 1.359,-1.689 2.018,-2.513 -1.277,-1.318 -2.554,-2.595 -3.831,-3.872 -0.082,0.082 -0.165,0.124 -0.247,0.206 -0.947,0.741 -1.895,1.524 -2.842,2.265 -0.082,0.041 -0.288,0.082 -0.371,0.041 -0.906,-0.329 -1.771,-0.741 -2.636,-1.071 -0.165,-0.041 -0.247,-0.082 -0.247,-0.288 -0.041,-0.494 -0.124,-1.03 -0.165,-1.524 -0.082,-0.783 -0.165,-1.565 -0.247,-2.389 -1.812,0 -3.625,0 -5.437,0 -0.124,1.318 -0.288,2.636 -0.412,3.954 0,0.165 -0.041,0.247 -0.206,0.288 -0.824,0.288 -1.606,0.618 -2.43,0.989 -0.288,0.124 -0.453,0.206 -0.7,-0.082 -0.165,-0.165 -0.371,-0.288 -0.577,-0.453 -0.783,-0.618 -1.565,-1.236 -2.307,-1.854 -1.318,1.318 -2.595,2.595 -3.872,3.872 0.783,0.989 1.606,2.018 2.43,3.007 0.124,0.165 0.124,0.288 0.041,0.453 -0.33,0.618 -0.577,1.277 -0.865,1.895 -0.124,0.329 -0.165,0.741 -0.371,0.906 -0.247,0.165 -0.659,0.082 -0.988,0.124 -1.03,0.124 -2.06,0.206 -3.089,0.33 0,1.812 0,3.625 0,5.437 0.124,0 0.206,0.041 0.329,0.041 1.195,0.165 2.43,0.288 3.625,0.412 0.082,0 0.206,0.124 0.247,0.206 0.412,0.865 0.741,1.73 1.112,2.636 0.041,0.124 0.041,0.288 -0.041,0.371 -0.494,0.659 -0.989,1.277 -1.483,1.895 -0.33,0.412 -0.659,0.824 -0.947,1.194 1.318,1.318 2.595,2.595 3.872,3.872 0.989,-0.783 2.018,-1.606 3.007,-2.43 0.165,-0.165 0.288,-0.124 0.453,-0.041 0.824,0.33 1.648,0.7 2.513,1.03 0.206,0.082 0.288,0.124 0.288,0.33 0.124,1.318 0.247,2.595 0.412,3.954 1.812,0 3.625,0 5.355,-0.165 0,-0.082 0.041,-0.206 0.041,-0.288 0.124,-1.194 0.247,-2.43 0.371,-3.666 0.041,-0.165 0.082,-0.247 0.247,-0.288 0.865,-0.329 1.73,-0.7 2.636,-1.071 0.082,-0.041 0.247,0 0.329,0.041 0.247,0.165 0.494,0.371 0.741,0.577 0.824,0.659 1.606,1.318 2.348,1.895 1.318,-1.318 2.595,-2.595 3.872,-3.872 -0.783,-0.989 -1.606,-1.977 -2.43,-3.007 -0.124,-0.165 -0.124,-0.288 -0.041,-0.453 0.289,-0.702 0.619,-1.402 0.907,-2.102 z m -11.854,1.996 c -3.016,-0.089 -5.648,-2.602 -5.589,-5.884 0.059,-3.075 2.632,-5.707 5.884,-5.648 3.105,0.059 5.678,2.632 5.648,5.796 0,3.164 -2.631,5.825 -5.943,5.736 z M 181.219,72.111 c 0.288,-0.7 0.247,-0.7 1.03,-0.783 1.153,-0.124 2.265,-0.247 3.378,-0.371 0,-1.812 0,-3.625 0,-5.437 -1.318,-0.124 -2.595,-0.288 -3.913,-0.412 -0.206,0 -0.247,-0.124 -0.329,-0.288 -0.247,-0.659 -0.535,-1.359 -0.783,-2.018 -0.082,-0.288 -0.371,-0.535 -0.329,-0.783 0.041,-0.247 0.329,-0.453 0.535,-0.7 0.659,-0.824 1.359,-1.689 2.018,-2.513 -1.277,-1.318 -2.554,-2.595 -3.831,-3.872 -0.082,0.082 -0.165,0.124 -0.247,0.206 -0.947,0.741 -1.895,1.524 -2.842,2.265 -0.082,0.041 -0.288,0.082 -0.371,0.041 -0.906,-0.33 -1.771,-0.741 -2.636,-1.071 -0.165,-0.041 -0.247,-0.082 -0.247,-0.288 -0.041,-0.494 -0.124,-1.03 -0.165,-1.524 -0.082,-0.783 -0.165,-1.565 -0.247,-2.389 -1.812,0 -3.625,0 -5.437,0 -0.124,1.318 -0.288,2.636 -0.412,3.954 0,0.165 -0.041,0.247 -0.206,0.288 -0.824,0.288 -1.606,0.618 -2.43,0.989 -0.288,0.124 -0.453,0.206 -0.7,-0.082 -0.165,-0.165 -0.371,-0.288 -0.577,-0.453 -0.783,-0.618 -1.565,-1.236 -2.307,-1.854 -1.318,1.318 -2.595,2.595 -3.872,3.872 0.783,0.989 1.606,2.018 2.43,3.007 0.124,0.165 0.124,0.288 0.041,0.453 -0.33,0.618 -0.577,1.277 -0.865,1.895 -0.124,0.33 -0.165,0.741 -0.371,0.906 -0.247,0.165 -0.659,0.082 -0.989,0.124 -1.03,0.124 -2.059,0.206 -3.089,0.33 0,1.812 0,3.625 0,5.437 0.124,0 0.206,0.041 0.329,0.041 1.195,0.165 2.43,0.288 3.625,0.412 0.082,0 0.206,0.124 0.247,0.206 0.412,0.865 0.741,1.73 1.112,2.636 0.041,0.124 0.041,0.288 -0.041,0.371 -0.494,0.659 -0.989,1.277 -1.483,1.895 -0.33,0.412 -0.659,0.824 -0.947,1.194 1.318,1.318 2.595,2.595 3.872,3.872 0.989,-0.783 2.018,-1.606 3.007,-2.43 0.165,-0.165 0.288,-0.124 0.453,-0.041 0.824,0.33 1.648,0.7 2.513,1.03 0.206,0.082 0.288,0.124 0.288,0.33 0.124,1.318 0.247,2.595 0.412,3.954 1.812,0 3.625,0 5.355,-0.165 0,-0.082 0.041,-0.206 0.041,-0.288 0.124,-1.194 0.247,-2.43 0.371,-3.666 0.041,-0.165 0.082,-0.247 0.247,-0.288 0.865,-0.33 1.73,-0.7 2.636,-1.071 0.082,-0.041 0.247,0 0.329,0.041 0.247,0.165 0.494,0.371 0.741,0.577 0.824,0.659 1.606,1.318 2.348,1.895 1.318,-1.318 2.595,-2.595 3.872,-3.872 -0.783,-0.989 -1.606,-1.977 -2.43,-3.007 -0.124,-0.165 -0.124,-0.288 -0.041,-0.453 0.29,-0.702 0.619,-1.402 0.907,-2.102 z m -11.854,1.997 c -3.016,-0.089 -5.648,-2.602 -5.589,-5.884 0.059,-3.075 2.632,-5.707 5.884,-5.648 3.105,0.059 5.678,2.632 5.648,5.796 0.001,3.163 -2.631,5.824 -5.943,5.736 z"
       style="fill:#5700ff"
       id="path11" />
  </g>
  <g
     id="__id157_srghfg1rkq"
     transform="scale(0.512)">
    <path
       d="m 251.212,10.01 c 0,1.686 -1.367,3.053 -3.053,3.053 -1.686,0 -3.053,-1.367 -3.053,-3.053 0,-1.686 1.367,-3.053 3.053,-3.053 1.686,0 3.053,1.367 3.053,3.053 z m 8.093,-3.053 c -1.686,0 -3.053,1.367 -3.053,3.053 0,1.686 1.367,3.053 3.053,3.053 1.686,0 3.053,-1.367 3.053,-3.053 0,-1.686 -1.367,-3.053 -3.053,-3.053 z m 11.146,0 c -1.686,0 -3.053,1.367 -3.053,3.053 0,1.686 1.367,3.053 3.053,3.053 1.686,0 3.053,-1.367 3.053,-3.053 0,-1.686 -1.367,-3.053 -3.053,-3.053 z m 19.02,181.521 c 0,1.686 -1.367,3.053 -3.053,3.053 -1.686,0 -3.053,-1.367 -3.053,-3.053 0,-1.686 1.367,-3.053 3.053,-3.053 1.686,0 3.053,1.367 3.053,3.053 z m 8.092,-3.053 c -1.686,0 -3.053,1.367 -3.053,3.053 0,1.686 1.367,3.053 3.053,3.053 1.686,0 3.053,-1.367 3.053,-3.053 0,-1.686 -1.367,-3.053 -3.053,-3.053 z m 11.146,0 c -1.686,0 -3.053,1.367 -3.053,3.053 0,1.686 1.367,3.053 3.053,3.053 1.686,0 3.053,-1.367 3.053,-3.053 0,-1.686 -1.367,-3.053 -3.053,-3.053 z M 567.533,433.14 H 458.394 v 24.375 H 567.532 V 433.14 Z m -217.502,-8.964 c 0,9.218 -7.473,16.691 -16.691,16.691 -9.218,0 -16.691,-7.473 -16.691,-16.691 0,-9.218 7.473,-16.691 16.691,-16.691 9.218,0 16.691,7.473 16.691,16.691 z M 578.782,100.917 H 502.19 v 22.937 h 76.593 v -22.937 z m -60.953,49.553 h -15.64 v -12.456 h 15.64 z m 30.477,0 h -15.64 v -12.456 h 15.64 z m 30.476,0 h -15.64 v -12.456 h 15.64 z m -60.953,23.872 h -15.64 v -12.456 h 15.64 z m 30.477,0 h -15.64 v -12.456 h 15.64 z m 30.476,0 h -15.64 v -12.456 h 15.64 z m -60.953,23.873 h -15.64 v -12.456 h 15.64 z m 30.477,0 h -15.64 v -12.456 h 15.64 z m 30.476,0 h -15.64 v -12.456 h 15.64 z"
       style="fill:#4c4c4c"
       id="path12" />
  </g>
</svg>
